####
#
# OBJ File Generated by Meshlab
#
####
# Object drags.obj
#
# Vertices: 66
# Faces: 61
#
####
mtllib ./drags.obj.mtl

vn 0.000000 0.059678 0.998218
v 0.000000 16.000000 160.000000
vn 0.050122 -0.987530 0.149240
v 9.600000 -9.600000 -80.000000
vn -0.050122 -0.987530 0.149240
v -9.600000 -9.600000 -80.000000
vn 0.707320 -0.702235 0.081018
v 32.000000 -9.600000 -80.000000
vn -0.707320 -0.702235 0.081018
v -32.000000 -9.600000 -80.000000
vn 0.000000 0.999978 -0.006666
v 16.000000 12.800000 -80.000000
vn 0.000000 0.999978 -0.006666
v -16.000000 12.800000 -80.000000
vn 0.721427 0.691111 0.043680
v 32.000000 12.800000 -80.000000
vn -0.721427 0.691111 0.043680
v -32.000000 12.800000 -80.000000
vn 0.000000 -1.000000 0.000000
v 32.000000 16.000000 158.399994
vn 0.000000 -1.000000 0.000000
v 32.000000 16.000000 161.600006
vn 0.000000 -1.000000 0.000000
v -32.000000 16.000000 161.600006
vn 0.000000 -1.000000 0.000000
v -32.000000 16.000000 158.399994
vn 0.022267 -0.993026 0.115778
v 12.800000 16.000000 158.399994
vn 0.000000 -0.992278 0.124035
v 17.600000 16.000000 158.399994
vn 0.227663 -0.973065 0.036260
v 3.200000 12.800000 132.800003
vn 0.316228 -0.948683 0.000000
v 3.200000 12.800000 140.800003
vn -0.022267 -0.993026 0.115778
v -12.800000 16.000000 158.399994
vn 0.000000 -0.992278 0.124035
v -17.600000 16.000000 158.399994
vn -0.227663 -0.973065 0.036260
v -3.200000 12.800000 132.800003
vn -0.316228 -0.948683 0.000000
v -3.200000 12.800000 140.800003
vn 0.000000 0.000000 1.000000
v 80.000000 -4.800000 -160.000000
vn 0.000000 0.000000 1.000000
v 32.000000 -4.800000 -160.000000
vn 0.000000 0.000000 1.000000
v 32.000000 -14.400000 -160.000000
vn 0.000000 0.000000 1.000000
v 80.000000 -14.400000 -160.000000
vn 0.000000 -1.000000 0.000000
v 80.000000 -9.600000 -155.199997
vn 0.000000 -1.000000 0.000000
v 32.000000 -9.600000 -155.199997
vn 0.000000 -1.000000 0.000000
v 32.000000 -9.600000 -164.800003
vn 0.000000 -1.000000 0.000000
v 80.000000 -9.600000 -164.800003
vn 0.000000 0.000000 1.000000
v -80.000000 -4.800000 -160.000000
vn 0.000000 0.000000 1.000000
v -32.000000 -4.800000 -160.000000
vn 0.000000 0.000000 1.000000
v -32.000000 -14.400000 -160.000000
vn 0.000000 0.000000 1.000000
v -80.000000 -14.400000 -160.000000
vn 0.000000 -1.000000 0.000000
v -80.000000 -9.600000 -155.199997
vn 0.000000 -1.000000 0.000000
v -32.000000 -9.600000 -155.199997
vn 0.000000 -1.000000 0.000000
v -32.000000 -9.600000 -164.800003
vn 0.000000 -1.000000 0.000000
v -80.000000 -9.600000 -164.800003
vn 0.626515 -0.765493 0.146628
v 19.200001 -9.600000 -128.000000
vn 0.982823 -0.102503 0.153468
v 32.000000 -9.600000 -176.000000
vn -0.626515 -0.765493 0.146628
v -19.200001 -9.600000 -128.000000
vn -0.982823 -0.102503 0.153468
v -32.000000 -9.600000 -176.000000
vn 0.000000 0.707107 -0.707107
v 16.000000 12.800000 -176.000000
vn 0.000000 0.707107 -0.707107
v -16.000000 12.800000 -176.000000
vn 0.577350 0.577350 -0.577350
v 32.000000 12.800000 -176.000000
vn -0.577350 0.577350 -0.577350
v -32.000000 12.800000 -176.000000
vn 0.565215 -0.791044 0.234056
v 16.000000 -25.600000 -128.000000
vn -0.565215 -0.791044 0.234056
v -16.000000 -25.600000 -128.000000
vn 0.000000 -0.707107 -0.707107
v 16.000000 -25.600000 -176.000000
vn 0.000000 -0.707107 -0.707107
v -16.000000 -25.600000 -176.000000
vn 0.670848 -0.562291 -0.483520
v 32.000000 -25.600000 -176.000000
vn -0.670848 -0.562291 -0.483520
v -32.000000 -25.600000 -176.000000
vn 0.894427 0.447214 0.000000
v 16.000000 -25.600000 -144.000000
vn 0.894427 0.447214 0.000000
v 16.000000 -25.600000 -160.000000
vn 0.894427 0.447214 0.000000
v 32.000000 -57.599998 -192.000000
vn 0.894427 0.447214 0.000000
v 32.000000 -57.599998 -176.000000
vn -0.894427 0.447214 0.000000
v -16.000000 -25.600000 -144.000000
vn -0.894427 0.447214 0.000000
v -16.000000 -25.600000 -160.000000
vn -0.894427 0.447214 0.000000
v -32.000000 -57.599998 -192.000000
vn -0.894427 0.447214 0.000000
v -32.000000 -57.599998 -176.000000
vn 0.000000 -1.000000 0.000000
v 0.000000 -57.599998 -128.000000
vn 0.000000 -1.000000 0.000000
v 64.000000 -57.599998 -208.000000
vn 0.000000 -1.000000 0.000000
v -64.000000 -57.599998 -208.000000
vn 0.000000 0.000000 -1.000000
v 9.600000 -3.200000 -176.000000
vn 0.000000 0.000000 -1.000000
v 9.600000 -9.600000 -176.000000
vn 0.000000 0.000000 -1.000000
v -9.600000 -9.600000 -176.000000
vn 0.000000 0.000000 -1.000000
v -9.600000 -3.200000 -176.000000
# 66 vertices, 0 vertices normals


usemtl material_0
f 46//46 2//2 3//3
f 3//3 47//47 46//46
f 2//2 46//46 38//38
f 47//47 3//3 40//40

usemtl material_1
f 63//63 64//64 65//65
f 65//65 66//66 63//63

usemtl material_2
f 2//2 1//1 3//3
f 1//1 6//6 7//7
f 1//1 4//4 8//8
f 5//5 1//1 9//9
f 10//10 11//11 12//12
f 12//12 13//13 10//10
f 15//15 14//14 16//16
f 17//17 16//16 14//14
f 18//18 19//19 20//20
f 20//20 21//21 18//18
f 22//22 23//23 24//24
f 24//24 25//25 22//22
f 26//26 27//27 28//28
f 28//28 29//29 26//26
f 31//31 30//30 32//32
f 33//33 32//32 30//30
f 35//35 34//34 36//36
f 37//37 36//36 34//34
f 6//6 42//42 43//43
f 43//43 7//7 6//6
f 44//44 8//8 39//39
f 4//4 39//39 8//8
f 9//9 45//45 41//41
f 41//41 5//5 9//9
f 48//48 46//46 49//49
f 47//47 49//49 46//46
f 46//46 50//50 39//39
f 39//39 38//38 46//46
f 51//51 47//47 41//41
f 40//40 41//41 47//47
f 42//42 48//48 43//43
f 49//49 43//43 48//48
f 53//53 52//52 54//54
f 55//55 54//54 52//52
f 56//56 57//57 58//58
f 58//58 59//59 56//56

usemtl material_3
f 1//1 2//2 4//4
f 3//3 1//1 5//5
f 6//6 1//1 8//8
f 1//1 7//7 9//9
f 2//2 38//38 39//39
f 39//39 4//4 2//2
f 40//40 3//3 41//41
f 5//5 41//41 3//3
f 42//42 6//6 44//44
f 8//8 44//44 6//6
f 7//7 43//43 45//45
f 45//45 9//9 7//7
f 50//50 46//46 48//48
f 47//47 51//51 49//49
f 48//48 42//42 44//44
f 44//44 50//50 48//48
f 43//43 49//49 45//45
f 51//51 45//45 49//49
f 61//61 60//60 62//62
# 61 faces, 0 coords texture

# End of File
