mtllib ./destroy.obj.mtl

v 102.000000 -10.200000 170.000000
v 102.000000 10.200000 170.000000
v -102.000000 10.200000 170.000000
v -102.000000 -10.200000 170.000000
v 102.000000 0.000000 180.199997
v 102.000000 0.000000 159.800003
v -102.000000 0.000000 159.800003
v -102.000000 0.000000 180.199997
v 136.000000 -10.200000 -170.000000
v 136.000000 10.200000 -170.000000
v -136.000000 10.200000 -170.000000
v -136.000000 -10.200000 -170.000000
v 136.000000 0.000000 -180.199997
v 136.000000 0.000000 -159.800003
v -136.000000 0.000000 -159.800003
v -136.000000 0.000000 -180.199997
v 51.000000 17.000000 170.000000
v 51.000000 17.000000 0.000000
v -51.000000 17.000000 0.000000
v -51.000000 17.000000 170.000000
v 68.000000 17.000000 0.000000
v 68.000000 17.000000 -68.000000
v -68.000000 17.000000 -68.000000
v -68.000000 17.000000 0.000000
v 85.000000 17.000000 -68.000000
v 85.000000 17.000000 -272.000000
v -85.000000 17.000000 -272.000000
v -85.000000 17.000000 -68.000000
v 51.000000 -17.000000 170.000000
v 17.000000 -17.000000 255.000000
v 17.000000 17.000000 255.000000
v -51.000000 -17.000000 170.000000
v -17.000000 -17.000000 255.000000
v -17.000000 17.000000 255.000000
v 0.000000 0.000000 255.000000
v 51.000000 -17.000000 0.000000
v -51.000000 -17.000000 0.000000
v 68.000000 -17.000000 0.000000
v 68.000000 -17.000000 -68.000000
v -68.000000 -17.000000 -68.000000
v -68.000000 -17.000000 0.000000
v 85.000000 -42.500000 -68.000000
v 85.000000 -42.500000 -272.000000
v 68.000000 -42.500000 -272.000000
v 68.000000 -42.500000 -85.000000
v -68.000000 -42.500000 -85.000000
v -85.000000 -42.500000 -68.000000
v -85.000000 -42.500000 -272.000000
v -68.000000 -42.500000 -272.000000
v 68.000000 -68.000000 -85.000000
v 68.000000 -68.000000 -272.000000
v -68.000000 -68.000000 -272.000000
v -68.000000 -68.000000 -85.000000
v 17.000000 -34.000000 170.000000
v 17.000000 -17.000000 170.000000
v 17.000000 -17.000000 0.000000
v 17.000000 -34.000000 0.000000
v 17.000000 -17.000000 -68.000000
v 17.000000 -34.000000 -68.000000
v -17.000000 -34.000000 0.000000
v -17.000000 -17.000000 0.000000
v -17.000000 -17.000000 -68.000000
v -17.000000 -34.000000 -68.000000
v -17.000000 -34.000000 170.000000
v 0.000000 -34.000000 0.000000
v 0.000000 -34.000000 170.000000
v -17.000000 -17.000000 170.000000
v 1.700000 -28.900000 170.000000
v 5.100000 -32.299999 170.000000
v 11.900000 -32.299999 170.000000
v 15.300000 -28.900000 170.000000
v 15.300000 -22.100000 170.000000
v 11.900000 -18.700001 170.000000
v 5.100000 -18.700001 170.000000
v 1.700000 -22.100000 170.000000
v -1.700000 -28.900000 170.000000
v -5.100000 -32.299999 170.000000
v -11.900000 -32.299999 170.000000
v -15.300000 -28.900000 170.000000
v -15.300000 -22.100000 170.000000
v -11.900000 -18.700001 170.000000
v -5.100000 -18.700001 170.000000
v -1.700000 -22.100000 170.000000
v 17.000000 -17.000000 -272.000000
v 17.000000 17.000000 -272.000000
v 85.000000 -17.000000 -272.000000
v -17.000000 -17.000000 -272.000000
v -17.000000 17.000000 -272.000000
v -85.000000 -17.000000 -272.000000
v 85.000000 -17.000000 -68.000000
v -85.000000 -17.000000 -68.000000
v 51.000000 -57.799999 -85.000000
v 51.000000 -52.700001 -85.000000
v 11.900000 -52.700001 -85.000000
v 11.900000 -57.799999 -85.000000
v -51.000000 -57.799999 -85.000000
v -51.000000 -52.700001 -85.000000
v -11.900000 -52.700001 -85.000000
v -11.900000 -57.799999 -85.000000
v -51.000000 -57.799999 -272.000000
v -51.000000 -52.700001 -272.000000
v -11.900000 -52.700001 -272.000000
v -11.900000 -57.799999 -272.000000
v 51.000000 -57.799999 -272.000000
v 51.000000 -52.700001 -272.000000
v 11.900000 -52.700001 -272.000000
v 11.900000 -57.799999 -272.000000
v 68.000000 0.000000 0.000000
v -68.000000 0.000000 0.000000
v 20.400000 -6.800000 -272.000000
v 27.200001 -13.600000 -272.000000
v 40.799999 -13.600000 -272.000000
v 47.599998 -6.800000 -272.000000
v 47.599998 6.800000 -272.000000
v 40.799999 13.600000 -272.000000
v 27.200001 13.600000 -272.000000
v 20.400000 6.800000 -272.000000
v -20.400000 -6.800000 -272.000000
v -27.200001 -13.600000 -272.000000
v -40.799999 -13.600000 -272.000000
v -47.599998 -6.800000 -272.000000
v -47.599998 6.800000 -272.000000
v -40.799999 13.600000 -272.000000
v -27.200001 13.600000 -272.000000
v -20.400000 6.800000 -272.000000
v 0.000000 0.000000 -272.000000
vn 0.000000 0.000000 1.000000
vn 0.000000 0.000000 1.000000
vn 0.000000 0.000000 1.000000
vn 0.000000 0.000000 1.000000
vn 0.000000 0.000000 -1.000000
vn 0.000000 0.000000 -1.000000
vn 0.000000 0.000000 -1.000000
vn 0.000000 0.000000 -1.000000
vn 0.000000 0.000000 1.000000
vn 0.000000 0.000000 1.000000
vn 0.000000 -1.000000 0.000000
vn 0.000000 -1.000000 0.000000
vn 0.000000 0.000000 1.000000
vn 0.000000 0.000000 1.000000
vn 0.000000 -1.000000 0.000000
vn 0.000000 -1.000000 0.000000
vn 0.000000 1.000000 0.000000
vn 0.000000 1.000000 0.000000
vn 0.000000 1.000000 0.000000
vn 0.000000 1.000000 0.000000
vn 0.000000 1.000000 0.000000
vn 0.000000 1.000000 0.000000
vn 0.928477 0.000000 0.371391
vn 0.928477 0.000000 0.371391
vn -0.928477 0.000000 0.371391
vn -0.928477 0.000000 0.371391
vn 0.000000 1.000000 0.000000
vn 0.000000 1.000000 0.000000
vn 0.000000 0.000000 1.000000
vn 0.000000 0.000000 1.000000
vn 0.000000 -1.000000 0.000000
vn 0.000000 -1.000000 0.000000
vn 0.000000 -1.000000 0.000000
vn 0.000000 -1.000000 0.000000
vn 0.000000 -1.000000 0.000000
vn 0.000000 -1.000000 0.000000
vn 0.000000 -1.000000 0.000000
vn 0.000000 -1.000000 0.000000
vn 0.000000 -1.000000 0.000000
vn 0.000000 -1.000000 0.000000
vn 0.000000 -1.000000 0.000000
vn 0.000000 -1.000000 0.000000
vn 0.000000 -1.000000 0.000000
vn 0.000000 -1.000000 0.000000
vn 1.000000 0.000000 0.000000
vn 1.000000 0.000000 0.000000
vn 1.000000 0.000000 0.000000
vn 1.000000 0.000000 0.000000
vn -1.000000 0.000000 0.000000
vn -1.000000 0.000000 0.000000
vn 0.000000 -1.000000 0.000000
vn 0.000000 -1.000000 0.000000
vn 0.000000 -1.000000 0.000000
vn 0.000000 -1.000000 0.000000
vn 0.000000 0.000000 1.000000
vn 0.000000 0.000000 1.000000
vn 0.000000 -1.000000 0.000000
vn 0.000000 -1.000000 0.000000
vn -1.000000 0.000000 0.000000
vn -1.000000 0.000000 0.000000
vn 0.000000 0.000000 -1.000000
vn 0.000000 0.000000 -1.000000
vn 0.000000 0.000000 -1.000000
vn 0.000000 0.000000 -1.000000
vn 0.000000 0.000000 -1.000000
vn 0.000000 0.000000 -1.000000
vn 0.000000 0.000000 1.000000
vn 0.000000 0.000000 1.000000
vn 0.000000 0.000000 1.000000
vn 0.000000 0.000000 1.000000
vn 0.000000 0.000000 -1.000000
vn 0.000000 0.000000 -1.000000
vn 1.000000 0.000000 0.000000
vn 1.000000 0.000000 0.000000
vn 1.000000 0.000000 0.000000
vn 1.000000 0.000000 0.000000
vn 1.000000 0.000000 0.000000
vn 1.000000 0.000000 0.000000
vn -1.000000 0.000000 0.000000
vn -1.000000 0.000000 0.000000
vn -1.000000 0.000000 0.000000
vn -1.000000 0.000000 0.000000
vn -1.000000 0.000000 0.000000
vn -1.000000 0.000000 0.000000
vn 0.000000 0.000000 1.000000
vn 0.000000 0.000000 1.000000
vn 1.000000 0.000000 0.000000
vn -1.000000 0.000000 0.000000
vn 1.000000 0.000000 0.000000
vn -1.000000 0.000000 0.000000
vn 1.000000 0.000000 0.000000
vn -1.000000 0.000000 0.000000
vn 0.000000 0.000000 1.000000
vn 0.000000 0.000000 1.000000
vn 1.000000 0.000000 0.000000
vn 1.000000 0.000000 0.000000
vn -1.000000 0.000000 0.000000
vn -1.000000 0.000000 0.000000
vn 0.000000 0.000000 1.000000
vn 0.000000 0.000000 1.000000
vn 0.000000 0.000000 -1.000000
vn 0.000000 0.000000 -1.000000
vn 0.000000 0.000000 -1.000000
vn 0.000000 0.000000 -1.000000
vn 0.000000 0.000000 1.000000
vn 0.000000 0.000000 1.000000
vn 0.000000 0.000000 1.000000
vn 0.000000 0.000000 1.000000
vn 0.000000 0.000000 1.000000
vn 0.000000 0.000000 1.000000
vn 0.000000 0.000000 1.000000
vn 0.000000 0.000000 1.000000
vn 0.000000 0.000000 1.000000
vn 0.000000 0.000000 1.000000
vn 0.000000 0.000000 1.000000
vn 0.000000 0.000000 1.000000
vn 0.000000 0.000000 -1.000000
vn 0.000000 0.000000 -1.000000
vn 0.000000 0.000000 -1.000000
vn 0.000000 0.000000 -1.000000
vn 0.000000 0.000000 -1.000000
vn 0.000000 0.000000 -1.000000
vn 0.000000 0.000000 -1.000000
vn 0.000000 0.000000 -1.000000
vn 0.000000 0.000000 -1.000000
vn 0.000000 0.000000 -1.000000
vn 0.000000 0.000000 -1.000000
vn 0.000000 0.000000 -1.000000
usemtl material_0
f 92//1 93//1 94//1
f 94//2 95//2 92//2
f 97//3 96//3 98//3
f 99//4 98//4 96//4
f 100//5 101//5 102//5
f 102//6 103//6 100//6
f 105//7 104//7 106//7
f 107//8 106//8 104//8

usemtl material_1
f 1//9 2//9 3//9
f 3//10 4//10 1//10
f 6//11 5//11 7//11
f 8//12 7//12 5//12
f 9//13 10//13 11//13
f 11//14 12//14 9//14
f 13//15 14//15 15//15
f 15//16 16//16 13//16
f 17//17 18//17 19//17
f 19//18 20//18 17//18
f 21//19 22//19 23//19
f 23//20 24//20 21//20
f 25//21 26//21 27//21
f 27//22 28//22 25//22
f 29//23 31//23 30//23
f 29//24 17//24 31//24
f 32//25 33//25 34//25
f 34//26 20//26 32//26
f 34//27 31//27 17//27
f 34//28 17//28 20//28
f 30//29 35//29 33//29
f 31//30 34//30 35//30
f 36//31 29//31 37//31
f 29//32 32//32 37//32
f 40//33 39//33 38//33
f 40//34 38//34 41//34
f 43//35 42//35 44//35
f 42//36 45//36 44//36
f 46//37 45//37 42//37
f 46//38 42//38 47//38
f 47//39 48//39 49//39
f 49//40 46//40 47//40
f 52//41 51//41 50//41
f 52//42 50//42 53//42
f 29//43 30//43 33//43
f 33//44 32//44 29//44
f 55//45 54//45 56//45
f 57//46 56//46 54//46
f 56//47 57//47 58//47
f 59//48 58//48 57//48
f 60//49 61//49 62//49
f 63//50 60//50 62//50
f 60//51 65//51 64//51
f 65//52 66//52 64//52
f 57//53 54//53 65//53
f 66//54 65//54 54//54
f 54//55 55//55 67//55
f 67//56 64//56 54//56
f 59//57 57//57 63//57
f 60//58 63//58 57//58
f 61//59 60//59 67//59
f 64//60 67//60 60//60
f 84//61 85//61 26//61
f 26//62 86//62 84//62
f 27//63 88//63 87//63
f 89//64 27//64 87//64
f 89//65 86//65 43//65
f 48//66 89//66 43//66
f 42//67 90//67 91//67
f 91//68 47//68 42//68
f 50//69 45//69 46//69
f 46//70 53//70 50//70
f 49//71 44//71 51//71
f 52//72 49//72 51//72
f 90//73 26//73 25//73
f 86//74 26//74 90//74
f 90//75 42//75 86//75
f 43//76 86//76 42//76
f 50//77 44//77 45//77
f 50//78 51//78 44//78
f 91//79 28//79 27//79
f 27//80 89//80 91//80
f 47//81 91//81 89//81
f 89//82 48//82 47//82
f 53//83 46//83 49//83
f 49//84 52//84 53//84
f 90//85 25//85 28//85
f 28//86 91//86 90//86
f 21//87 108//87 22//87
f 23//88 109//88 24//88
f 39//89 108//89 38//89
f 41//90 109//90 40//90
f 39//91 22//91 108//91
f 109//92 23//92 40//92
f 38//93 21//93 24//93
f 24//94 41//94 38//94
f 36//95 18//95 17//95
f 17//96 29//96 36//96
f 37//97 20//97 19//97
f 32//98 20//98 37//98
f 30//99 31//99 35//99
f 33//100 35//100 34//100
f 126//101 88//101 85//101
f 87//102 126//102 84//102
f 84//103 126//103 85//103
f 88//104 126//104 87//104

usemtl material_2
f 68//105 69//105 70//105
f 68//106 70//106 71//106
f 68//107 71//107 72//107
f 68//108 72//108 73//108
f 68//109 73//109 74//109
f 68//110 74//110 75//110
f 77//111 76//111 78//111
f 78//112 76//112 79//112
f 79//113 76//113 80//113
f 80//114 76//114 81//114
f 81//115 76//115 82//115
f 82//116 76//116 83//116
f 111//117 110//117 112//117
f 112//118 110//118 113//118
f 113//119 110//119 114//119
f 114//120 110//120 115//120
f 115//121 110//121 116//121
f 116//122 110//122 117//122
f 118//123 119//123 120//123
f 118//124 120//124 121//124
f 118//125 121//125 122//125
f 118//126 122//126 123//126
f 118//127 123//127 124//127
f 118//128 124//128 125//128
# 128 faces, 0 coords texture

# End of File
