mtllib ./bprmpup.obj.mtl

v -700.000000 0.000000 -3309.000000
v 0.000000 0.000000 -3309.000000
v 0.000000 -97.000000 -2757.000000
v -700.000000 -97.000000 -2757.000000
v 700.000000 0.000000 -3309.000000
v 700.000000 -97.000000 -2757.000000
v -700.000000 -194.000000 -2206.000000
v 0.000000 -194.000000 -2206.000000
v 700.000000 -194.000000 -2206.000000
v 0.000000 -292.000000 -1654.000000
v 700.000000 -292.000000 -1654.000000
v -700.000000 -292.000000 -1654.000000
v 700.000000 -389.000000 -1103.000000
v 0.000000 -389.000000 -1103.000000
v -700.000000 -389.000000 -1103.000000
v 0.000000 -486.000000 -551.000000
v 700.000000 -486.000000 -551.000000
v -700.000000 -486.000000 -551.000000
v -700.000000 -583.000000 0.000000
v 0.000000 -583.000000 0.000000
v 700.000000 -583.000000 0.000000
v 0.000000 -583.000000 560.000000
v -700.000000 -583.000000 560.000000
v 700.000000 -583.000000 560.000000
v -700.000000 -583.000000 1120.000000
v 0.000000 -583.000000 1120.000000
v 700.000000 -583.000000 1120.000000
v 0.000000 -583.000000 1680.000000
v -700.000000 -583.000000 1680.000000
v 700.000000 -583.000000 1680.000000
v -700.000000 0.000000 1120.000000
v -700.000000 0.000000 1680.000000
v -700.000000 -150.000000 1680.000000
v -700.000000 -500.000000 1680.000000
v -700.000000 -500.000000 560.000000
v -700.000000 -500.000000 1120.000000
v -700.000000 -500.000000 0.000000
v -700.000000 -150.000000 1120.000000
v -700.000000 -150.000000 560.000000
v -700.000000 0.000000 560.000000
v -700.000000 -150.000000 0.000000
v -700.000000 0.000000 0.000000
v -700.000000 0.000000 -551.000000
v -700.000000 -150.000000 -1103.000000
v -700.000000 -150.000000 -551.000000
v -700.000000 0.000000 -1103.000000
v -700.000000 -150.000000 -1654.000000
v -700.000000 0.000000 -1654.000000
v -700.000000 -306.000000 -1103.000000
v -700.000000 -403.000000 -551.000000
v -700.000000 0.000000 -2206.000000
v -700.000000 0.000000 -2757.000000
v 700.000000 0.000000 1120.000000
v 700.000000 0.000000 1680.000000
v 700.000000 -150.000000 1680.000000
v 700.000000 -500.000000 1680.000000
v 700.000000 -500.000000 560.000000
v 700.000000 -500.000000 1120.000000
v 700.000000 -500.000000 0.000000
v 700.000000 -150.000000 1120.000000
v 700.000000 -150.000000 560.000000
v 700.000000 0.000000 560.000000
v 700.000000 -150.000000 0.000000
v 700.000000 0.000000 0.000000
v 700.000000 0.000000 -551.000000
v 700.000000 -150.000000 -1103.000000
v 700.000000 -150.000000 -551.000000
v 700.000000 0.000000 -1103.000000
v 700.000000 -150.000000 -1654.000000
v 700.000000 0.000000 -1654.000000
v 700.000000 -306.000000 -1103.000000
v 700.000000 -403.000000 -551.000000
v 700.000000 0.000000 -2206.000000
v 700.000000 0.000000 -2757.000000
v 0.000000 -150.000000 1680.000000
v 0.000000 0.000000 1680.000000
v 0.000000 -500.000000 1680.000000
v -840.000000 0.000000 0.000000
v -840.000000 0.000000 840.000000
v -700.000000 0.000000 840.000000
v -840.000000 0.000000 1680.000000
v -840.000000 0.000000 -900.000000
v -700.000000 0.000000 -900.000000
v -840.000000 0.000000 -1800.000000
v -700.000000 0.000000 -1800.000000
v -700.000000 0.000000 -2700.000000
v -840.000000 0.000000 -2700.000000
v -840.000000 0.000000 -3309.000000
v 840.000000 0.000000 0.000000
v 840.000000 0.000000 840.000000
v 700.000000 0.000000 840.000000
v 840.000000 0.000000 1680.000000
v 840.000000 0.000000 -900.000000
v 700.000000 0.000000 -900.000000
v 840.000000 0.000000 -1800.000000
v 700.000000 0.000000 -1800.000000
v 700.000000 0.000000 -2700.000000
v 840.000000 0.000000 -2700.000000
v 840.000000 0.000000 -3309.000000
v -20.000000 -146.000000 -2481.000000
v -20.000000 -48.000000 -3033.000000
v 20.000000 -48.000000 -3033.000000
v 20.000000 -146.000000 -2481.000000
v -20.000000 -341.000000 -1378.000000
v -20.000000 -243.000000 -1930.000000
v 20.000000 -243.000000 -1930.000000
v 20.000000 -341.000000 -1378.000000
v -20.000000 -535.000000 -275.000000
v -20.000000 -437.000000 -827.000000
v 20.000000 -437.000000 -827.000000
v 20.000000 -535.000000 -275.000000
v -20.000000 -583.000000 840.000000
v -20.000000 -583.000000 280.000000
v 20.000000 -583.000000 280.000000
v 20.000000 -583.000000 840.000000
vn 0.000000 -0.984603 -0.174803
vn 0.000000 -0.984603 -0.174803
vn 0.000000 -0.984603 -0.174803
vn 0.000000 -0.984603 -0.174803
vn 0.000000 -0.984603 -0.174803
vn 0.000000 -0.984603 -0.174803
vn 0.000000 0.000000 -1.000000
vn 0.000000 0.000000 -1.000000
vn 0.000000 0.000000 1.000000
vn 0.000000 0.000000 1.000000
vn 0.000000 0.000000 -1.000000
vn 0.000000 0.000000 -1.000000
vn 0.000000 0.000000 1.000000
vn 0.000000 0.000000 1.000000
vn 0.000000 1.000000 0.000000
vn 0.000000 1.000000 0.000000
vn 0.000000 -1.000000 0.000000
vn 0.000000 -1.000000 0.000000
vn 0.000000 -1.000000 0.000000
vn 0.000000 -1.000000 0.000000
vn 0.000000 -1.000000 0.000000
vn 0.000000 -1.000000 0.000000
vn 0.000000 1.000000 0.000000
vn 0.000000 1.000000 0.000000
vn 0.000000 -1.000000 0.000000
vn 0.000000 -1.000000 0.000000
vn 0.000000 -1.000000 0.000000
vn 0.000000 -1.000000 0.000000
vn 0.000000 1.000000 0.000000
vn 0.000000 1.000000 0.000000
vn 0.000000 1.000000 0.000000
vn 0.000000 1.000000 0.000000
vn 0.000000 1.000000 0.000000
vn 0.000000 1.000000 0.000000
vn 0.000000 -1.000000 0.000000
vn 0.000000 -1.000000 0.000000
vn 0.000000 1.000000 0.000000
vn 0.000000 1.000000 0.000000
vn 0.000000 -1.000000 0.000000
vn 0.000000 -1.000000 0.000000
vn 0.000000 -0.984909 -0.173073
vn 0.000000 -0.984909 -0.173073
vn 0.000000 0.984909 0.173073
vn 0.000000 0.984909 0.173073
vn 0.000000 -0.984855 -0.173377
vn 0.000000 -0.984855 -0.173377
vn 0.000000 0.984603 0.174803
vn 0.000000 0.984603 0.174803
vn 0.000000 -0.984603 -0.174803
vn 0.000000 -0.984603 -0.174803
vn 0.000000 0.984855 0.173377
vn 0.000000 0.984855 0.173377
vn 0.000000 -0.984909 -0.173073
vn 0.000000 -0.984909 -0.173073
vn 0.000000 0.984855 0.173377
vn 0.000000 0.984855 0.173377
vn 0.000000 -0.984855 -0.173377
vn 0.000000 -0.984855 -0.173377
vn 0.000000 -1.000000 0.000000
vn 0.000000 -1.000000 0.000000
vn 0.000000 1.000000 0.000000
vn 0.000000 1.000000 0.000000
vn 0.000000 1.000000 0.000000
vn 0.000000 1.000000 0.000000
vn 0.000000 -1.000000 0.000000
vn 0.000000 -1.000000 0.000000
vn 0.000000 0.984855 0.173377
vn 0.000000 0.984855 0.173377
vn 0.000000 -0.984855 -0.173377
vn 0.000000 -0.984855 -0.173377
vn 0.000000 0.984909 0.173073
vn 0.000000 0.984909 0.173073
vn 0.000000 -1.000000 0.000000
vn 0.000000 -1.000000 0.000000
vn 0.000000 1.000000 0.000000
vn 0.000000 1.000000 0.000000
vn 1.000000 0.000000 0.000000
vn 1.000000 0.000000 0.000000
vn 1.000000 0.000000 0.000000
vn 1.000000 0.000000 0.000000
vn 1.000000 0.000000 0.000000
vn 1.000000 0.000000 0.000000
vn -1.000000 0.000000 0.000000
vn -1.000000 0.000000 0.000000
vn 1.000000 0.000000 0.000000
vn 1.000000 0.000000 0.000000
vn -1.000000 0.000000 0.000000
vn -1.000000 0.000000 0.000000
vn 1.000000 0.000000 0.000000
vn 1.000000 0.000000 0.000000
vn -1.000000 0.000000 0.000000
vn -1.000000 0.000000 0.000000
vn 1.000000 0.000000 0.000000
vn 1.000000 0.000000 0.000000
vn 1.000000 0.000000 0.000000
vn 1.000000 0.000000 0.000000
vn 1.000000 0.000000 0.000000
vn 1.000000 0.000000 0.000000
vn -1.000000 0.000000 0.000000
vn -1.000000 0.000000 0.000000
vn 1.000000 0.000000 0.000000
vn 1.000000 0.000000 0.000000
vn -1.000000 0.000000 0.000000
vn 1.000000 0.000000 0.000000
vn 1.000000 0.000000 0.000000
vn 1.000000 0.000000 0.000000
vn 1.000000 0.000000 0.000000
vn 1.000000 0.000000 0.000000
vn 1.000000 0.000000 0.000000
vn -1.000000 0.000000 0.000000
vn -1.000000 0.000000 0.000000
vn 1.000000 0.000000 0.000000
vn 1.000000 0.000000 0.000000
vn -1.000000 0.000000 0.000000
vn -1.000000 0.000000 0.000000
vn 1.000000 0.000000 0.000000
vn 1.000000 0.000000 0.000000
vn -1.000000 0.000000 0.000000
vn -1.000000 0.000000 0.000000
vn 1.000000 0.000000 0.000000
vn 1.000000 0.000000 0.000000
vn 1.000000 0.000000 0.000000
vn 1.000000 0.000000 0.000000
vn 1.000000 0.000000 0.000000
vn 1.000000 0.000000 0.000000
vn -1.000000 0.000000 0.000000
vn -1.000000 0.000000 0.000000
vn 1.000000 0.000000 0.000000
vn 1.000000 0.000000 0.000000
vn -1.000000 0.000000 0.000000
usemtl material_0
f 100//1 101//1 102//1
f 102//2 103//2 100//2
f 104//3 105//3 106//3
f 106//4 107//4 104//4
f 108//5 109//5 110//5
f 110//6 111//6 108//6

usemtl material_1
f 75//7 76//7 54//7
f 54//8 55//8 75//8
f 75//9 76//9 32//9
f 32//10 33//10 75//10
f 56//11 30//11 28//11
f 28//12 77//12 56//12
f 34//13 29//13 28//13
f 28//14 77//14 34//14

usemtl material_2
f 42//15 78//15 79//15
f 79//16 80//16 42//16
f 32//17 81//17 79//17
f 79//18 80//18 32//18
f 42//19 78//19 82//19
f 82//20 83//20 42//20
f 83//21 82//21 84//21
f 84//22 85//22 83//22
f 86//23 87//23 84//23
f 84//24 85//24 86//24
f 86//25 87//25 88//25
f 88//26 1//26 86//26
f 64//27 89//27 90//27
f 90//28 91//28 64//28
f 54//29 92//29 90//29
f 90//30 91//30 54//30
f 64//31 89//31 93//31
f 93//32 94//32 64//32
f 94//33 93//33 95//33
f 95//34 96//34 94//34
f 97//35 98//35 95//35
f 95//36 96//36 97//36
f 97//37 98//37 99//37
f 99//38 5//38 97//38
f 112//39 113//39 114//39
f 114//40 115//40 112//40

usemtl material_3
f 1//41 2//41 3//41
f 3//42 4//42 1//42
f 5//43 2//43 3//43
f 3//44 6//44 5//44
f 9//45 8//45 3//45
f 3//46 6//46 9//46
f 9//47 8//47 10//47
f 10//48 11//48 9//48
f 7//49 8//49 10//49
f 10//50 12//50 7//50
f 15//51 14//51 10//51
f 10//52 12//52 15//52
f 15//53 14//53 16//53
f 16//54 18//54 15//54
f 19//55 20//55 16//55
f 16//56 18//56 19//56
f 21//57 20//57 16//57
f 16//58 17//58 21//58
f 19//59 20//59 22//59
f 22//60 23//60 19//60
f 21//61 20//61 22//61
f 22//62 24//62 21//62
f 25//63 26//63 22//63
f 22//64 23//64 25//64
f 25//65 26//65 28//65
f 28//66 29//66 25//66

usemtl material_4
f 7//67 8//67 3//67
f 3//68 4//68 7//68
f 13//69 14//69 10//69
f 10//70 11//70 13//70
f 13//71 14//71 16//71
f 16//72 17//72 13//72
f 27//73 26//73 22//73
f 22//74 24//74 27//74
f 27//75 26//75 28//75
f 28//76 30//76 27//76
f 25//77 31//77 32//77
f 25//78 32//78 33//78
f 25//79 33//79 34//79
f 25//80 34//80 29//80
f 25//81 23//81 35//81
f 35//82 36//82 25//82
f 19//83 23//83 35//83
f 35//84 37//84 19//84
f 38//85 39//85 40//85
f 40//86 31//86 38//86
f 41//87 39//87 40//87
f 40//88 42//88 41//88
f 19//89 18//89 43//89
f 43//90 42//90 19//90
f 44//91 45//91 43//91
f 43//92 46//92 44//92
f 44//93 47//93 48//93
f 48//94 46//94 44//94
f 18//95 15//95 49//95
f 49//96 50//96 18//96
f 15//97 12//97 47//97
f 47//98 49//98 15//98
f 7//99 12//99 48//99
f 48//100 51//100 7//100
f 7//101 4//101 52//101
f 52//102 51//102 7//102
f 1//103 4//103 52//103
f 27//104 53//104 54//104
f 27//105 54//105 55//105
f 27//106 55//106 56//106
f 27//107 56//107 30//107
f 27//108 24//108 57//108
f 57//109 58//109 27//109
f 21//110 24//110 57//110
f 57//111 59//111 21//111
f 60//112 61//112 62//112
f 62//113 53//113 60//113
f 63//114 61//114 62//114
f 62//115 64//115 63//115
f 21//116 17//116 65//116
f 65//117 64//117 21//117
f 66//118 67//118 65//118
f 65//119 68//119 66//119
f 66//120 69//120 70//120
f 70//121 68//121 66//121
f 17//122 13//122 71//122
f 71//123 72//123 17//123
f 13//124 11//124 69//124
f 69//125 71//125 13//125
f 9//126 11//126 70//126
f 70//127 73//127 9//127
f 9//128 6//128 74//128
f 74//129 73//129 9//129
f 5//130 6//130 74//130
# 130 faces, 0 coords texture

# End of File
