mtllib ./brdr2.obj.mtl

v 100.000000 0.000000 -50.000000
v 100.000000 -10230.000000 -50.000000
v 0.000000 -10270.000000 0.000000
v -100.000000 -10230.000000 -50.000000
v -100.000000 0.000000 -50.000000
v 0.000000 0.000000 0.000000
v 700.000000 0.000000 -50.000000
v 700.000000 -10230.000000 -50.000000
v 800.000000 -10270.000000 0.000000
v 125.000000 -10270.000000 0.000000
v 125.000000 -10450.000000 0.000000
v 125.000000 -10550.000000 -50.000000
v 175.000000 -10550.000000 -50.000000
v 175.000000 -10450.000000 0.000000
v 175.000000 -10270.000000 0.000000
v 375.000000 -10270.000000 0.000000
v 375.000000 -10450.000000 0.000000
v 375.000000 -10550.000000 -50.000000
v 425.000000 -10550.000000 -50.000000
v 425.000000 -10450.000000 0.000000
v 425.000000 -10270.000000 0.000000
v 675.000000 -10270.000000 0.000000
v 675.000000 -10450.000000 0.000000
v 675.000000 -10550.000000 -50.000000
v 625.000000 -10550.000000 -50.000000
v 625.000000 -10450.000000 0.000000
v 625.000000 -10270.000000 0.000000
v 900.000000 0.000000 -50.000000
v 900.000000 -10230.000000 -50.000000
v 800.000000 0.000000 0.000000
v 1500.000000 0.000000 -50.000000
v 1500.000000 -10230.000000 -50.000000
v 1600.000000 -10270.000000 0.000000
v 925.000000 -10270.000000 0.000000
v 925.000000 -10450.000000 0.000000
v 925.000000 -10550.000000 -50.000000
v 975.000000 -10550.000000 -50.000000
v 975.000000 -10450.000000 0.000000
v 975.000000 -10270.000000 0.000000
v 1175.000000 -10270.000000 0.000000
v 1175.000000 -10450.000000 0.000000
v 1175.000000 -10550.000000 -50.000000
v 1225.000000 -10550.000000 -50.000000
v 1225.000000 -10450.000000 0.000000
v 1225.000000 -10270.000000 0.000000
v 1425.000000 -10270.000000 0.000000
v 1425.000000 -10450.000000 0.000000
v 1425.000000 -10550.000000 -50.000000
v 1475.000000 -10550.000000 -50.000000
v 1475.000000 -10450.000000 0.000000
v 1475.000000 -10270.000000 0.000000
v 1600.000000 0.000000 0.000000
v 1700.000000 0.000000 -50.000000
v 1700.000000 -10230.000000 -50.000000
v 2400.000000 0.000000 0.000000
v 2400.000000 -10270.000000 0.000000
v 2300.000000 -10230.000000 -50.000000
v 2300.000000 0.000000 -50.000000
v 1725.000000 -10270.000000 0.000000
v 1725.000000 -10450.000000 0.000000
v 1725.000000 -10550.000000 -50.000000
v 1775.000000 -10550.000000 -50.000000
v 1775.000000 -10450.000000 0.000000
v 1775.000000 -10270.000000 0.000000
v 1975.000000 -10270.000000 0.000000
v 1975.000000 -10450.000000 0.000000
v 1975.000000 -10550.000000 -50.000000
v 2025.000000 -10550.000000 -50.000000
v 2025.000000 -10450.000000 0.000000
v 2025.000000 -10270.000000 0.000000
v 2225.000000 -10270.000000 0.000000
v 2225.000000 -10450.000000 0.000000
v 2225.000000 -10550.000000 -50.000000
v 2275.000000 -10550.000000 -50.000000
v 2275.000000 -10450.000000 0.000000
v 2275.000000 -10270.000000 0.000000
v -700.000000 0.000000 -50.000000
v -700.000000 -10230.000000 -50.000000
v -800.000000 -10270.000000 0.000000
v -125.000000 -10270.000000 0.000000
v -125.000000 -10450.000000 0.000000
v -125.000000 -10550.000000 -50.000000
v -175.000000 -10550.000000 -50.000000
v -175.000000 -10450.000000 0.000000
v -175.000000 -10270.000000 0.000000
v -375.000000 -10270.000000 0.000000
v -375.000000 -10450.000000 0.000000
v -375.000000 -10550.000000 -50.000000
v -425.000000 -10550.000000 -50.000000
v -425.000000 -10450.000000 0.000000
v -425.000000 -10270.000000 0.000000
v -675.000000 -10270.000000 0.000000
v -675.000000 -10450.000000 0.000000
v -675.000000 -10550.000000 -50.000000
v -625.000000 -10550.000000 -50.000000
v -625.000000 -10450.000000 0.000000
v -625.000000 -10270.000000 0.000000
v -900.000000 0.000000 -50.000000
v -900.000000 -10230.000000 -50.000000
v -800.000000 0.000000 0.000000
v -1500.000000 0.000000 -50.000000
v -1500.000000 -10230.000000 -50.000000
v -1600.000000 -10270.000000 0.000000
v -925.000000 -10270.000000 0.000000
v -925.000000 -10450.000000 0.000000
v -925.000000 -10550.000000 -50.000000
v -975.000000 -10550.000000 -50.000000
v -975.000000 -10450.000000 0.000000
v -975.000000 -10270.000000 0.000000
v -1175.000000 -10270.000000 0.000000
v -1175.000000 -10450.000000 0.000000
v -1175.000000 -10550.000000 -50.000000
v -1225.000000 -10550.000000 -50.000000
v -1225.000000 -10450.000000 0.000000
v -1225.000000 -10270.000000 0.000000
v -1425.000000 -10270.000000 0.000000
v -1425.000000 -10450.000000 0.000000
v -1425.000000 -10550.000000 -50.000000
v -1475.000000 -10550.000000 -50.000000
v -1475.000000 -10450.000000 0.000000
v -1475.000000 -10270.000000 0.000000
v -1600.000000 0.000000 0.000000
v -1700.000000 0.000000 -50.000000
v -1700.000000 -10230.000000 -50.000000
v -2400.000000 0.000000 0.000000
v -2400.000000 -10270.000000 0.000000
v -2300.000000 -10230.000000 -50.000000
v -2300.000000 0.000000 -50.000000
v -1725.000000 -10270.000000 0.000000
v -1725.000000 -10450.000000 0.000000
v -1725.000000 -10550.000000 -50.000000
v -1775.000000 -10550.000000 -50.000000
v -1775.000000 -10450.000000 0.000000
v -1775.000000 -10270.000000 0.000000
v -1975.000000 -10270.000000 0.000000
v -1975.000000 -10450.000000 0.000000
v -1975.000000 -10550.000000 -50.000000
v -2025.000000 -10550.000000 -50.000000
v -2025.000000 -10450.000000 0.000000
v -2025.000000 -10270.000000 0.000000
v -2225.000000 -10270.000000 0.000000
v -2225.000000 -10450.000000 0.000000
v -2225.000000 -10550.000000 -50.000000
v -2275.000000 -10550.000000 -50.000000
v -2275.000000 -10450.000000 0.000000
v -2275.000000 -10270.000000 0.000000
vn 0.000000 0.780869 0.624695
vn 0.000000 0.780869 0.624695
vn 0.000000 0.780869 0.624695
vn 0.000000 0.780869 0.624695
vn 0.000000 0.780869 0.624695
vn 0.000000 0.780869 0.624695
vn 0.000000 -0.780869 -0.624695
vn 0.000000 -0.780869 -0.624695
vn 0.000000 -0.780869 -0.624695
vn 0.000000 -0.780869 -0.624695
vn 0.000000 -0.780869 -0.624695
vn 0.000000 -0.780869 -0.624695
vn -1.000000 0.000000 0.000000
vn 0.000000 -0.175791 0.984428
vn 0.707107 0.000000 0.707107
vn 0.000000 -0.447214 0.894427
vn -1.000000 0.000000 0.000000
vn 0.000000 -0.175791 0.984428
vn 0.707107 0.000000 0.707107
vn 0.000000 -0.447214 0.894427
vn 1.000000 0.000000 0.000000
vn 0.000000 0.175791 -0.984428
vn -0.849473 0.235965 -0.471929
vn 0.000000 0.000000 -1.000000
vn -1.000000 0.000000 0.000000
vn 0.000000 -0.175791 0.984428
vn 0.707107 0.000000 0.707107
vn 0.000000 -0.447214 0.894427
vn -1.000000 0.000000 0.000000
vn 0.000000 -0.175791 0.984428
vn 0.707107 0.000000 0.707107
vn 0.000000 -0.447214 0.894427
vn -1.000000 0.000000 0.000000
vn 0.000000 -0.175791 0.984428
vn 0.707107 0.000000 0.707107
vn 0.000000 -0.447214 0.894427
vn -1.000000 0.000000 0.000000
vn 0.000000 -0.175791 0.984428
vn 0.707107 0.000000 0.707107
vn 0.000000 -0.447214 0.894427
vn -1.000000 0.000000 0.000000
vn 0.000000 -0.175791 0.984428
vn 0.707107 0.000000 0.707107
vn 0.000000 -0.447214 0.894427
vn -1.000000 0.000000 0.000000
vn 0.000000 -0.175791 0.984428
vn 0.707107 0.000000 0.707107
vn 0.000000 -0.447214 0.894427
vn 1.000000 0.000000 0.000000
vn 0.000000 0.175791 -0.984428
vn -0.849473 0.235965 -0.471929
vn 0.000000 0.000000 -1.000000
vn 1.000000 0.000000 0.000000
vn 0.000000 0.175791 -0.984428
vn -0.849473 0.235965 -0.471929
vn 0.000000 0.000000 -1.000000
vn -1.000000 0.000000 0.000000
vn 0.000000 -0.175791 0.984428
vn 0.707107 0.000000 0.707107
vn 0.000000 -0.447214 0.894427
vn 1.000000 0.000000 0.000000
vn 0.000000 0.175791 -0.984428
vn -0.849473 0.235965 -0.471929
vn 0.000000 0.000000 -1.000000
vn 1.000000 0.000000 0.000000
vn 0.000000 0.175791 -0.984428
vn -0.849473 0.235965 -0.471929
vn 0.000000 0.000000 -1.000000
vn 1.000000 0.000000 0.000000
vn 0.000000 0.175791 -0.984428
vn -0.849473 0.235965 -0.471929
vn 0.000000 0.000000 -1.000000
vn 1.000000 0.000000 0.000000
vn 0.000000 0.175791 -0.984428
vn -0.849473 0.235965 -0.471929
vn 0.000000 0.000000 -1.000000
vn 1.000000 0.000000 0.000000
vn 0.000000 0.175791 -0.984428
vn -0.849473 0.235965 -0.471929
vn 0.000000 0.000000 -1.000000
vn 1.000000 0.000000 0.000000
vn 0.000000 0.175791 -0.984428
vn -0.849473 0.235965 -0.471929
vn 0.000000 0.000000 -1.000000
vn 0.447214 0.000000 -0.894427
vn -0.447214 0.000000 -0.894427
vn -0.447214 0.000000 -0.894427
vn 0.447214 0.000000 -0.894427
vn 0.447214 0.000000 -0.894427
vn -0.447214 0.000000 -0.894427
vn -0.447214 0.000000 -0.894427
vn 0.447214 0.000000 -0.894427
vn 0.447214 0.000000 -0.894427
vn 0.447214 0.000000 -0.894427
vn -0.447214 0.000000 -0.894427
vn -0.447214 0.000000 -0.894427
vn 0.447214 0.000000 -0.894427
vn 0.447214 0.000000 -0.894427
vn -0.447214 0.000000 0.894427
vn 0.447214 0.000000 0.894427
vn 0.447214 0.000000 0.894427
vn -0.447214 0.000000 0.894427
vn 0.447214 0.000000 0.894427
vn 0.447214 0.000000 0.894427
vn -0.447214 0.000000 0.894427
vn -0.447214 0.000000 0.894427
vn 0.447214 0.000000 0.894427
vn 0.447214 0.000000 0.894427
vn 0.000000 0.000000 -1.000000
vn 0.000000 0.000000 -1.000000
vn 0.000000 0.000000 -1.000000
vn 0.000000 0.000000 -1.000000
vn 0.000000 0.000000 -1.000000
vn 0.000000 0.000000 -1.000000
vn 0.000000 0.000000 1.000000
vn 0.000000 0.000000 1.000000
vn 0.000000 0.000000 1.000000
vn 0.000000 0.000000 1.000000
vn 0.000000 0.000000 1.000000
vn 0.000000 0.000000 1.000000
usemtl material_0
f 9//1 8//1 2//1
f 2//2 3//2 9//2
f 33//3 32//3 29//3
f 29//4 9//4 33//4
f 56//5 57//5 54//5
f 54//6 33//6 56//6
f 79//7 78//7 4//7
f 4//8 3//8 79//8
f 103//9 102//9 99//9
f 99//10 79//10 103//10
f 126//11 127//11 124//11
f 124//12 103//12 126//12

usemtl material_1
f 13//13 14//13 15//13
f 13//14 15//14 10//14
f 13//15 10//15 11//15
f 13//16 11//16 12//16
f 19//17 20//17 21//17
f 19//18 21//18 16//18
f 19//19 16//19 17//19
f 19//20 17//20 18//20
f 22//21 23//21 24//21
f 22//22 24//22 25//22
f 22//23 25//23 26//23
f 22//24 26//24 27//24
f 37//25 38//25 39//25
f 37//26 39//26 34//26
f 37//27 34//27 35//27
f 37//28 35//28 36//28
f 43//29 44//29 45//29
f 43//30 45//30 40//30
f 43//31 40//31 41//31
f 43//32 41//32 42//32
f 49//33 50//33 51//33
f 49//34 51//34 46//34
f 49//35 46//35 47//35
f 49//36 47//36 48//36
f 62//37 63//37 64//37
f 62//38 64//38 59//38
f 62//39 59//39 60//39
f 62//40 60//40 61//40
f 68//41 69//41 70//41
f 68//42 70//42 65//42
f 68//43 65//43 66//43
f 68//44 66//44 67//44
f 74//45 75//45 76//45
f 74//46 76//46 71//46
f 74//47 71//47 72//47
f 74//48 72//48 73//48
f 80//49 81//49 82//49
f 80//50 82//50 83//50
f 80//51 83//51 84//51
f 80//52 84//52 85//52
f 86//53 87//53 88//53
f 86//54 88//54 89//54
f 86//55 89//55 90//55
f 86//56 90//56 91//56
f 95//57 96//57 97//57
f 95//58 97//58 92//58
f 95//59 92//59 93//59
f 95//60 93//60 94//60
f 104//61 105//61 106//61
f 104//62 106//62 107//62
f 104//63 107//63 108//63
f 104//64 108//64 109//64
f 110//65 111//65 112//65
f 110//66 112//66 113//66
f 110//67 113//67 114//67
f 110//68 114//68 115//68
f 116//69 117//69 118//69
f 116//70 118//70 119//70
f 116//71 119//71 120//71
f 116//72 120//72 121//72
f 129//73 130//73 131//73
f 129//74 131//74 132//74
f 129//75 132//75 133//75
f 129//76 133//76 134//76
f 135//77 136//77 137//77
f 135//78 137//78 138//78
f 135//79 138//79 139//79
f 135//80 139//80 140//80
f 141//81 142//81 143//81
f 141//82 143//82 144//82
f 141//83 144//83 145//83
f 141//84 145//84 146//84

usemtl material_2
f 3//85 4//85 6//85
f 3//86 6//86 1//86
f 3//87 1//87 2//87
f 6//88 4//88 5//88
f 9//89 8//89 30//89
f 9//90 30//90 28//90
f 9//91 28//91 29//91
f 30//92 8//92 7//92
f 33//93 32//93 31//93
f 33//94 31//94 52//94
f 33//95 52//95 53//95
f 33//96 53//96 54//96
f 55//97 56//97 57//97
f 57//98 58//98 55//98
f 100//99 98//99 79//99
f 100//100 79//100 78//100
f 100//101 78//101 77//101
f 79//102 98//102 99//102
f 103//103 102//103 101//103
f 103//104 101//104 122//104
f 103//105 122//105 123//105
f 103//106 123//106 124//106
f 125//107 126//107 127//107
f 127//108 128//108 125//108

usemtl material_3
f 7//109 8//109 2//109
f 2//110 1//110 7//110
f 31//111 32//111 29//111
f 29//112 28//112 31//112
f 58//113 57//113 54//113
f 54//114 53//114 58//114
f 77//115 78//115 4//115
f 4//116 5//116 77//116
f 101//117 102//117 99//117
f 99//118 98//118 101//118
f 128//119 127//119 124//119
f 124//120 123//120 128//120
# 120 faces, 0 coords texture

# End of File
