mtllib ./cac1.obj.mtl

v -17.600000 0.000000 0.000000
v 16.799999 0.000000 0.000000
v 14.400000 -200.000000 0.000000
v 8.800000 -232.000000 0.000000
v 2.400000 -240.000000 0.000000
v -9.600000 -224.000000 0.000000
v -16.000000 -176.000000 0.000000
v 0.000000 0.000000 -16.799999
v 0.000000 0.000000 16.000000
v 0.000000 -200.000000 15.200000
v 0.000000 -232.000000 10.400000
v 0.000000 -228.000000 -9.600000
v 0.000000 -160.000000 -14.400000
v 0.000000 0.000000 35.200001
v 22.400000 0.000000 20.799999
v 35.200001 0.000000 0.000000
v 22.400000 0.000000 -19.200001
v 0.000000 0.000000 -35.200001
v -24.000000 0.000000 -17.600000
v -35.200001 0.000000 0.000000
v -22.400000 0.000000 25.600000
vn 0.000000 0.000000 -1.000000
vn 0.000000 0.000000 -1.000000
vn 0.000000 0.000000 -1.000000
vn 0.000000 0.000000 -1.000000
vn 0.000000 0.000000 -1.000000
vn 1.000000 0.000000 0.000000
vn 1.000000 0.000000 0.000000
vn 0.978034 0.024272 0.207029
vn 0.967727 -0.007954 -0.251874
vn 1.000000 0.000000 0.000000
vn 0.000000 1.000000 0.000000
vn 0.000000 1.000000 0.000000
vn 0.000000 1.000000 0.000000
vn 0.000000 1.000000 0.000000
vn 0.000000 1.000000 0.000000
vn 0.000000 1.000000 0.000000
usemtl material_0
f 1//1 2//1 3//1
f 1//2 3//2 4//2
f 1//3 4//3 5//3
f 1//4 5//4 6//4
f 1//5 6//5 7//5
f 8//6 9//6 10//6
f 8//7 10//7 11//7
f 8//8 11//8 5//8
f 8//9 5//9 12//9
f 8//10 12//10 13//10
f 14//11 15//11 16//11
f 14//12 16//12 17//12
f 14//13 17//13 18//13
f 14//14 18//14 19//14
f 14//15 19//15 20//15
f 14//16 20//16 21//16
# 16 faces, 0 coords texture

# End of File
