mtllib ./drmpg.obj.mtl

v -680.000000 0.000000 -3394.000000
v -30.000000 0.000000 -3440.000000
v 0.000000 -70.000000 -2837.000000
v -700.000000 -90.000000 -2800.000000
v 640.000000 0.000000 -3394.000000
v 700.000000 -50.000000 -2890.000000
v -700.000000 -117.000000 -2230.000000
v 20.000000 -117.000000 -2280.000000
v 690.000000 -130.000000 -2280.000000
v -20.000000 -176.000000 -1723.000000
v -670.000000 -186.000000 -1760.000000
v 710.000000 -196.000000 -1723.000000
v -720.000000 -280.000000 -1176.000000
v 0.000000 -300.000000 -1176.000000
v 700.000000 -270.000000 -1176.000000
v -30.000000 -380.000000 -628.000000
v -670.000000 -418.000000 -628.000000
v 690.000000 -408.000000 -628.000000
v -700.000000 -500.000000 -100.000000
v 0.000000 -545.000000 -80.000000
v 700.000000 -515.000000 -120.000000
v 20.000000 -525.000000 500.000000
v -500.000000 -490.000000 460.000000
v 480.000000 -490.000000 480.000000
v -900.000000 0.000000 -2860.000000
v 870.000000 0.000000 -2837.000000
v -920.000000 0.000000 -2280.000000
v 900.000000 0.000000 -2280.000000
v -970.000000 0.000000 -1700.000000
v 1020.000000 0.000000 -1760.000000
v -875.000000 -166.000000 -1176.000000
v -1050.000000 0.000000 -1176.000000
v 875.000000 -146.000000 -1146.000000
v 1050.000000 0.000000 -1176.000000
v -900.000000 -180.000000 -628.000000
v -1100.000000 0.000000 -600.000000
v 900.000000 -204.000000 -600.000000
v 1100.000000 0.000000 -670.000000
v -1150.000000 0.000000 -50.000000
v -950.000000 -262.000000 -120.000000
v 1100.000000 0.000000 -80.000000
v 950.000000 -262.000000 -80.000000
v -1100.000000 0.000000 500.000000
v -850.000000 -240.000000 480.000000
v 1150.000000 0.000000 480.000000
v 850.000000 -262.000000 460.000000
v -530.000000 -280.000000 974.000000
v -10.000000 -245.000000 974.000000
v 540.000000 -262.000000 974.000000
v 0.000000 0.000000 1469.000000
v -500.000000 0.000000 1380.000000
v 470.000000 0.000000 1400.000000
v -1000.000000 0.000000 974.000000
v 1000.000000 0.000000 974.000000
vn -0.711260 -0.687352 -0.147160
vn -0.670301 -0.719400 -0.182098
vn -0.698675 0.697181 0.160601
vn -0.715159 0.683750 0.145030
vn 0.679900 0.719872 -0.139712
vn 0.783584 0.617188 -0.071235
vn 0.648479 -0.751700 0.120089
vn 0.865242 -0.495367 -0.077254
vn 0.586037 0.796805 0.147185
vn 0.718172 0.694031 0.050494
vn 0.589089 -0.786084 -0.187206
vn 0.700088 -0.705986 -0.107050
vn -0.672428 -0.737634 -0.061130
vn -0.804670 -0.568571 -0.170977
vn -0.714073 0.700071 0.000000
vn -0.859587 0.492130 0.137544
vn -0.679390 -0.719642 0.143331
vn -0.495098 -0.831057 0.253419
vn -0.637975 0.745293 -0.193717
vn -0.474242 0.832638 -0.286021
vn 0.583079 0.792782 0.177526
vn 0.586496 -0.803996 -0.098045
vn 0.687348 0.724614 0.049869
vn 0.672326 0.737951 0.058362
vn 0.625423 -0.772395 -0.110686
vn 0.700386 -0.710401 -0.069208
vn -0.545328 -0.786623 0.289555
vn -0.511087 0.802357 -0.308243
vn 0.432975 0.726780 -0.533221
vn 0.421434 -0.739921 0.524319
vn 0.684437 0.721545 0.104494
vn 0.543206 0.823729 0.162470
vn 0.636960 -0.770202 -0.032721
vn 0.526223 -0.846845 -0.077096
vn -0.008132 -0.993343 -0.114909
vn 0.020365 -0.988612 -0.149104
vn 0.005824 0.996459 0.083873
vn -0.026030 0.998542 0.047299
vn -0.019266 -0.992949 -0.116965
vn -0.027229 -0.993861 -0.107230
vn -0.042436 0.990183 0.133179
vn 0.026716 0.975117 0.220074
vn -0.027470 -0.988922 -0.145872
vn 0.057408 -0.966873 -0.248720
vn -0.058601 0.986956 0.149948
vn 0.053371 0.956975 0.285219
vn -0.070381 -0.996596 0.042932
vn -0.065153 -0.997203 0.036633
vn -0.367505 -0.917615 -0.151406
vn 0.461680 0.886053 0.041971
vn 0.406821 0.913400 0.014028
vn -0.522627 0.844244 0.118802
vn -0.520261 0.845526 0.120060
vn 0.090798 0.923739 -0.372104
vn -0.057747 0.857957 -0.510465
vn 0.027684 0.895664 -0.443868
vn -0.078036 0.843425 -0.531549
vn 0.006833 -0.995012 -0.099525
vn 0.019570 -0.993027 -0.116250
vn 0.019234 0.991285 0.130320
vn -0.022037 0.996150 0.084847
vn -0.007351 -0.994354 -0.105854
vn 0.023564 -0.988903 -0.146683
vn 0.027086 0.975111 0.220058
vn -0.024118 0.987327 0.156854
vn 0.041531 -0.969067 -0.243277
vn -0.038441 -0.988477 -0.146408
vn -0.030108 0.977966 0.206582
vn 0.037234 0.957434 0.286240
vn 0.046078 -0.997227 0.058446
vn 0.077200 -0.996512 0.031700
vn -0.317090 0.939314 0.130935
vn 0.523591 -0.845801 -0.102341
vn 0.286558 -0.957938 -0.015434
vn -0.533005 -0.844863 -0.045949
vn -0.449004 -0.887727 -0.101666
vn 0.086897 -0.908499 0.408753
vn -0.026626 -0.861431 0.507177
vn 0.060246 -0.895086 0.441805
vn -0.101437 -0.815448 0.569873
vn 0.559620 0.800600 -0.214161
vn 0.688525 0.711405 -0.140839
vn 0.519947 -0.824038 0.224982
vn 0.695142 -0.707252 0.128730
usemtl material_0
f 35//1 17//1 19//1
f 19//2 40//2 35//2
f 37//3 18//3 21//3
f 21//4 42//4 37//4

usemtl material_1
f 43//5 44//5 40//5
f 40//6 39//6 43//6
f 45//7 46//7 42//7
f 42//8 41//8 45//8

usemtl material_2
f 17//9 13//9 31//9
f 31//10 35//10 17//10
f 18//11 15//11 33//11
f 33//12 37//12 18//12

usemtl material_3
f 39//13 36//13 35//13
f 35//14 40//14 39//14
f 41//15 38//15 37//15
f 37//16 42//16 41//16
f 53//17 43//17 44//17
f 44//18 47//18 53//18
f 54//19 45//19 46//19
f 46//20 49//20 54//20

usemtl material_4
f 31//21 13//21 11//21
f 33//22 15//22 12//22
f 35//23 31//23 32//23
f 32//24 36//24 35//24
f 37//25 33//25 34//25
f 34//26 38//26 37//26
f 44//27 23//27 47//27
f 46//28 24//28 49//28
f 47//29 53//29 51//29
f 49//30 54//30 52//30

usemtl material_5
f 29//31 32//31 31//31
f 31//32 11//32 29//32
f 30//33 34//33 33//33
f 33//34 12//34 30//34

usemtl material_6
f 1//35 2//35 3//35
f 3//36 4//36 1//36
f 7//37 8//37 3//37
f 3//38 4//38 7//38
f 8//39 9//39 12//39
f 12//40 10//40 8//40
f 14//41 15//41 12//41
f 12//42 10//42 14//42
f 13//43 14//43 16//43
f 16//44 17//44 13//44
f 16//45 17//45 19//45
f 19//46 20//46 16//46
f 22//47 23//47 19//47
f 19//48 20//48 22//48
f 1//49 4//49 25//49
f 27//50 7//50 4//50
f 4//51 25//51 27//51
f 28//52 9//52 12//52
f 12//53 30//53 28//53
f 22//54 23//54 47//54
f 47//55 48//55 22//55
f 49//56 48//56 50//56
f 50//57 52//57 49//57

usemtl material_7
f 2//58 5//58 6//58
f 6//59 3//59 2//59
f 8//60 9//60 6//60
f 6//61 3//61 8//61
f 7//62 8//62 10//62
f 10//63 11//63 7//63
f 13//64 14//64 10//64
f 10//65 11//65 13//65
f 14//66 15//66 18//66
f 18//67 16//67 14//67
f 20//68 21//68 18//68
f 18//69 16//69 20//69
f 20//70 21//70 24//70
f 24//71 22//71 20//71
f 5//72 6//72 26//72
f 28//73 9//73 6//73
f 6//74 26//74 28//74
f 11//75 29//75 27//75
f 27//76 7//76 11//76
f 22//77 24//77 49//77
f 49//78 48//78 22//78
f 47//79 48//79 50//79
f 50//80 51//80 47//80

usemtl material_8
f 44//81 23//81 19//81
f 19//82 40//82 44//82
f 46//83 24//83 21//83
f 21//84 42//84 46//84
# 84 faces, 0 coords texture

# End of File
