mtllib ./drodb.obj.mtl

v 140.000000 0.000000 -2240.000000
v 70.000000 0.000000 -2800.000000
v 840.000000 0.000000 -2800.000000
v 910.000000 0.000000 -2240.000000
v -910.000000 0.000000 -2240.000000
v -840.000000 0.000000 -2800.000000
v -70.000000 0.000000 -1680.000000
v 770.000000 0.000000 -1680.000000
v -770.000000 0.000000 -1680.000000
v 0.000000 0.000000 -1120.000000
v 840.000000 0.000000 -1120.000000
v -840.000000 0.000000 -1120.000000
v -770.000000 0.000000 -560.000000
v -140.000000 0.000000 -560.000000
v 840.000000 0.000000 -560.000000
v -840.000000 0.000000 0.000000
v -70.000000 0.000000 0.000000
v 700.000000 0.000000 0.000000
v -770.000000 0.000000 560.000000
v 0.000000 0.000000 560.000000
v 700.000000 0.000000 560.000000
v -700.000000 0.000000 1120.000000
v 0.000000 0.000000 1120.000000
v 910.000000 0.000000 1120.000000
v -770.000000 0.000000 1680.000000
v -70.000000 0.000000 1680.000000
v 840.000000 0.000000 1680.000000
v -910.000000 0.000000 2240.000000
v 140.000000 0.000000 2240.000000
v 770.000000 0.000000 2240.000000
v -840.000000 0.000000 2800.000000
v 70.000000 0.000000 2800.000000
v 840.000000 0.000000 2800.000000
v 1260.000000 -70.000000 2240.000000
v 1190.000000 0.000000 2800.000000
v 1540.000000 0.000000 2800.000000
v 1470.000000 0.000000 2240.000000
v 1260.000000 -70.000000 1680.000000
v 1540.000000 0.000000 1680.000000
v 1190.000000 0.000000 1120.000000
v 1680.000000 0.000000 1120.000000
v 1120.000000 -70.000000 560.000000
v 1540.000000 0.000000 560.000000
v 1190.000000 -105.000000 0.000000
v 1540.000000 0.000000 0.000000
v 1260.000000 -84.000000 -2240.000000
v 1190.000000 0.000000 -2800.000000
v 1540.000000 0.000000 -2800.000000
v 1680.000000 0.000000 -2240.000000
v 1120.000000 0.000000 -1680.000000
v 1610.000000 0.000000 -1680.000000
v 1190.000000 -70.000000 -1120.000000
v 1470.000000 0.000000 -1120.000000
v 1190.000000 0.000000 -560.000000
v 1610.000000 0.000000 -560.000000
v -1120.000000 -84.000000 2240.000000
v -1190.000000 0.000000 2800.000000
v -1540.000000 0.000000 2800.000000
v -1610.000000 0.000000 2240.000000
v -1190.000000 0.000000 1680.000000
v -1610.000000 0.000000 1680.000000
v -1120.000000 -70.000000 1120.000000
v -1470.000000 0.000000 1120.000000
v -1260.000000 -70.000000 560.000000
v -1540.000000 0.000000 560.000000
v -1190.000000 0.000000 0.000000
v -1680.000000 0.000000 0.000000
v -1120.000000 -70.000000 -2240.000000
v -1190.000000 0.000000 -2800.000000
v -1470.000000 0.000000 -2240.000000
v -1540.000000 0.000000 -2800.000000
v -1120.000000 -105.000000 -1680.000000
v -1540.000000 0.000000 -1680.000000
v -1260.000000 0.000000 -1120.000000
v -1610.000000 0.000000 -1120.000000
v -1260.000000 -70.000000 -560.000000
v -1540.000000 0.000000 -560.000000
v -20.000000 0.000000 280.000000
v -20.000000 0.000000 -280.000000
v 20.000000 0.000000 -280.000000
v 20.000000 0.000000 280.000000
v -20.000000 0.000000 1400.000000
v -20.000000 0.000000 840.000000
v 20.000000 0.000000 840.000000
v 20.000000 0.000000 1400.000000
v -20.000000 0.000000 -1400.000000
v -20.000000 0.000000 -840.000000
v 20.000000 0.000000 -840.000000
v 20.000000 0.000000 -1400.000000
v -20.000000 0.000000 1960.000000
v -20.000000 0.000000 2520.000000
v 20.000000 0.000000 2520.000000
v 20.000000 0.000000 1960.000000
v -20.000000 0.000000 -1960.000000
v -20.000000 0.000000 -2520.000000
v 20.000000 0.000000 -2520.000000
v 20.000000 0.000000 -1960.000000
vn -0.141421 -0.989949 0.000000
vn -0.164364 -0.986186 -0.020546
vn 0.162724 0.976344 -0.142384
vn 0.000000 1.000000 0.000000
vn 0.232484 0.968685 -0.087182
vn 0.000000 1.000000 0.000000
vn 0.000000 -0.988936 0.148340
vn -0.168926 -0.985403 0.021116
vn 0.141333 -0.989331 -0.035333
vn 0.164364 -0.986186 -0.020546
vn 0.315673 -0.947020 -0.059189
vn 0.286609 -0.955364 -0.071652
vn 0.195749 0.978744 0.061172
vn 0.242424 0.969697 0.030303
vn -0.140351 0.982456 0.122807
vn 0.000000 1.000000 0.000000
vn 0.000000 -1.000000 0.000000
vn 0.000000 -1.000000 0.000000
vn 0.000000 -1.000000 0.000000
vn 0.000000 -1.000000 0.000000
vn 0.000000 1.000000 0.000000
vn 0.000000 1.000000 0.000000
vn 0.000000 1.000000 0.000000
vn 0.000000 1.000000 0.000000
vn 0.000000 -1.000000 0.000000
vn 0.000000 -1.000000 0.000000
vn 0.000000 -0.992278 0.124035
vn -0.141399 -0.989795 0.017675
vn 0.242424 -0.969697 0.030303
vn 0.316228 -0.948683 0.000000
vn 0.164260 -0.985562 -0.041065
vn 0.000000 -0.992278 0.124035
vn -0.164399 0.986394 0.000000
vn -0.286039 0.953463 -0.095346
vn 0.000000 -0.988936 -0.148340
vn 0.195881 -0.979404 -0.048970
vn 0.000000 -1.000000 0.000000
vn 0.239796 -0.959185 -0.149873
vn 0.000000 0.982872 0.184289
vn 0.209242 0.976464 0.052311
vn 0.000000 -1.000000 0.000000
vn 0.282823 -0.942744 -0.176764
vn -0.365148 0.912871 0.182574
vn 0.000000 1.000000 0.000000
vn 0.000000 -0.992278 0.124035
vn -0.195881 -0.979404 -0.048970
vn 0.242091 0.968364 -0.060523
vn 0.196057 0.980286 -0.024507
vn 0.000000 -0.992278 -0.124035
vn 0.315981 -0.947943 0.039498
vn -0.195180 -0.975900 -0.097590
vn 0.000000 -1.000000 0.000000
vn 0.000000 0.992278 0.124035
vn 0.242424 0.969697 -0.030303
vn 0.239796 0.959185 -0.149873
vn 0.000000 1.000000 0.000000
vn 0.000000 1.000000 0.000000
vn -0.312348 0.937043 -0.156174
vn 0.000000 0.992278 0.124035
vn 0.164364 0.986186 0.020546
vn -0.242091 0.968364 -0.060523
vn 0.000000 0.992278 0.124035
vn -0.164260 -0.985562 0.041065
vn -0.209529 -0.977802 0.000000
vn 0.000000 0.988936 0.148340
vn 0.233274 0.971974 -0.029159
vn 0.000000 0.988936 -0.148340
vn -0.196057 0.980286 -0.024507
vn -0.195180 -0.975900 -0.097590
vn 0.000000 -1.000000 0.000000
vn 0.000000 -0.992278 0.124035
vn -0.196116 -0.980581 0.000000
vn 0.000000 1.000000 0.000000
vn -0.240772 0.963087 -0.120386
vn 0.000000 0.988936 -0.148340
vn -0.370991 0.927478 0.046374
vn 0.000000 0.988936 0.148340
vn 0.168964 0.985622 0.000000
vn 0.162724 -0.976344 0.142384
vn 0.000000 -1.000000 0.000000
vn -0.140633 0.984428 0.105474
vn 0.000000 1.000000 0.000000
vn -0.239796 -0.959185 -0.149873
vn 0.000000 -1.000000 0.000000
vn 0.000000 0.982872 -0.184289
vn -0.287163 0.957209 -0.035895
vn 0.000000 -0.982872 0.184289
vn -0.242424 -0.969697 -0.030303
vn 0.140633 -0.984428 0.105474
vn 0.000000 -1.000000 0.000000
vn 0.000000 -1.000000 0.000000
vn 0.000000 -1.000000 0.000000
vn 0.000000 1.000000 0.000000
vn 0.000000 1.000000 0.000000
vn 0.000000 -1.000000 0.000000
vn 0.000000 -1.000000 0.000000
vn 0.000000 -1.000000 0.000000
vn 0.000000 -1.000000 0.000000
vn 0.000000 1.000000 0.000000
vn 0.000000 1.000000 0.000000
vn 0.000000 1.000000 0.000000
vn 0.000000 1.000000 0.000000
vn 0.000000 -1.000000 0.000000
vn 0.000000 -1.000000 0.000000
vn 0.000000 -1.000000 0.000000
vn 0.000000 -1.000000 0.000000
vn 0.000000 -1.000000 0.000000
vn 0.000000 -1.000000 0.000000
vn 0.000000 1.000000 0.000000
vn 0.000000 1.000000 0.000000
vn 0.000000 -1.000000 0.000000
vn 0.000000 -1.000000 0.000000
vn 0.000000 1.000000 0.000000
vn 0.000000 1.000000 0.000000
vn 0.000000 1.000000 0.000000
vn 0.000000 1.000000 0.000000
vn 0.000000 -1.000000 0.000000
vn 0.000000 -1.000000 0.000000
vn 0.000000 -1.000000 0.000000
vn 0.000000 -1.000000 0.000000
vn 0.000000 1.000000 0.000000
vn 0.000000 1.000000 0.000000
vn 0.000000 1.000000 0.000000
vn 0.000000 1.000000 0.000000
vn 0.000000 1.000000 0.000000
vn 0.000000 1.000000 0.000000
vn 0.000000 -1.000000 0.000000
vn 0.000000 -1.000000 0.000000
vn 0.000000 1.000000 0.000000
vn 0.000000 1.000000 0.000000
usemtl material_0
f 38//1 34//1 30//1
f 30//2 27//2 38//2
f 40//3 42//3 21//3
f 21//4 24//4 40//4
f 50//5 46//5 4//5
f 4//6 8//6 50//6
f 56//7 57//7 58//7
f 58//8 59//8 56//8
f 62//9 64//9 19//9
f 19//10 22//10 62//10
f 72//11 68//11 5//11
f 5//12 9//12 72//12
f 72//13 68//13 70//13
f 70//14 73//14 72//14
f 74//15 76//15 13//15
f 13//16 12//16 74//16

usemtl material_1
f 78//17 79//17 80//17
f 80//18 81//18 78//18
f 82//19 83//19 84//19
f 84//20 85//20 82//20
f 86//21 87//21 88//21
f 88//22 89//22 86//22
f 90//23 91//23 92//23
f 92//24 93//24 90//24
f 94//25 95//25 96//25
f 96//26 97//26 94//26

usemtl material_2
f 34//27 35//27 33//27
f 33//28 30//28 34//28
f 38//29 39//29 37//29
f 37//30 34//30 38//30
f 42//31 43//31 41//31
f 41//32 40//32 42//32
f 42//33 43//33 45//33
f 45//34 44//34 42//34
f 46//35 47//35 48//35
f 48//36 49//36 46//36
f 50//37 51//37 53//37
f 53//38 52//38 50//38
f 44//39 54//39 15//39
f 15//40 18//40 44//40
f 54//41 55//41 45//41
f 45//42 44//42 54//42
f 60//43 56//43 28//43
f 28//44 25//44 60//44
f 62//45 60//45 61//45
f 61//46 63//46 62//46
f 62//47 64//47 65//47
f 65//48 63//48 62//48
f 68//49 69//49 6//49
f 6//50 5//50 68//50
f 69//51 68//51 70//51
f 70//52 71//52 69//52
f 76//53 74//53 75//53
f 75//54 77//54 76//54
f 66//55 76//55 77//55
f 77//56 67//56 66//56

usemtl material_3
f 35//57 36//57 37//57
f 37//58 34//58 35//58
f 38//59 40//59 24//59
f 24//60 27//60 38//60
f 38//61 39//61 41//61
f 41//62 40//62 38//62
f 44//63 42//63 21//63
f 21//64 18//64 44//64
f 46//65 47//65 3//65
f 3//66 4//66 46//66
f 46//67 50//67 51//67
f 51//68 49//68 46//68
f 50//69 52//69 11//69
f 11//70 8//70 50//70
f 52//71 54//71 15//71
f 15//72 11//72 52//72
f 54//73 55//73 53//73
f 53//74 52//74 54//74
f 56//75 57//75 31//75
f 31//76 28//76 56//76
f 56//77 60//77 61//77
f 61//78 59//78 56//78
f 60//79 62//79 22//79
f 22//80 25//80 60//80
f 66//81 64//81 19//81
f 19//82 16//82 66//82
f 66//83 64//83 65//83
f 65//84 67//84 66//84
f 72//85 74//85 12//85
f 12//86 9//86 72//86
f 72//87 74//87 75//87
f 75//88 73//88 72//88
f 66//89 76//89 13//89
f 13//90 16//90 66//90

usemtl material_4
f 1//91 2//91 3//91
f 3//92 4//92 1//92
f 1//93 7//93 8//93
f 8//94 4//94 1//94
f 10//95 7//95 8//95
f 8//96 11//96 10//96
f 12//97 9//97 7//97
f 7//98 10//98 12//98
f 12//99 13//99 14//99
f 14//100 10//100 12//100
f 16//101 19//101 20//101
f 20//102 17//102 16//102
f 22//103 19//103 20//103
f 20//104 23//104 22//104
f 23//105 20//105 21//105
f 21//106 24//106 23//106
f 28//107 25//107 26//107
f 26//108 29//108 28//108
f 28//109 31//109 32//109
f 32//110 29//110 28//110

usemtl material_5
f 5//111 6//111 2//111
f 2//112 1//112 5//112
f 5//113 9//113 7//113
f 7//114 1//114 5//114
f 10//115 14//115 15//115
f 15//116 11//116 10//116
f 16//117 13//117 14//117
f 14//118 17//118 16//118
f 17//119 14//119 15//119
f 15//120 18//120 17//120
f 17//121 20//121 21//121
f 21//122 18//122 17//122
f 22//123 25//123 26//123
f 26//124 23//124 22//124
f 23//125 26//125 27//125
f 27//126 24//126 23//126
f 29//127 26//127 27//127
f 27//128 30//128 29//128
f 29//129 32//129 33//129
f 33//130 30//130 29//130
# 130 faces, 0 coords texture

# End of File
