mtllib ./fix.obj.mtl

v 261.000000 -630.000000 0.000000
v -261.000000 -630.000000 0.000000
v -224.100006 -540.000000 -60.299999
v 224.100006 -540.000000 -60.299999
v 208.800003 -504.000000 -60.299999
v -208.800003 -504.000000 -60.299999
v 261.000000 630.000000 0.000000
v -261.000000 630.000000 0.000000
v -224.100006 540.000000 -60.299999
v 224.100006 540.000000 -60.299999
v 208.800003 504.000000 -60.299999
v -208.800003 504.000000 -60.299999
v -630.000000 -261.000000 0.000000
v -540.000000 -224.100006 -60.299999
v -504.000000 -208.800003 -60.299999
v -630.000000 261.000000 0.000000
v -540.000000 224.100006 -60.299999
v -504.000000 208.800003 -60.299999
v 630.000000 -261.000000 0.000000
v 540.000000 -224.100006 -60.299999
v 504.000000 -208.800003 -60.299999
v 630.000000 261.000000 0.000000
v 540.000000 224.100006 -60.299999
v 504.000000 208.800003 -60.299999
v -224.100006 -540.000000 60.299999
v 224.100006 -540.000000 60.299999
v 208.800003 -504.000000 60.299999
v -208.800003 -504.000000 60.299999
v -224.100006 540.000000 60.299999
v 224.100006 540.000000 60.299999
v 208.800003 504.000000 60.299999
v -208.800003 504.000000 60.299999
v -540.000000 -224.100006 60.299999
v -504.000000 -208.800003 60.299999
v -540.000000 224.100006 60.299999
v -504.000000 208.800003 60.299999
v 540.000000 -224.100006 60.299999
v 504.000000 -208.800003 60.299999
v 540.000000 224.100006 60.299999
v 504.000000 208.800003 60.299999
vn 0.000000 -0.556616 -0.830770
vn 0.000000 -0.556616 -0.830770
vn 0.000000 0.000000 1.000000
vn 0.000000 0.000000 1.000000
vn 0.000000 -0.556616 0.830770
vn 0.000000 -0.556616 0.830770
vn 0.000000 0.000000 -1.000000
vn 0.000000 0.000000 -1.000000
vn -0.394398 -0.394398 -0.830001
vn -0.394398 -0.394398 -0.830001
vn 0.000000 0.000000 1.000000
vn 0.000000 0.000000 1.000000
vn 0.394398 -0.394398 0.830001
vn 0.394398 -0.394398 0.830001
vn 0.000000 0.000000 -1.000000
vn 0.000000 0.000000 -1.000000
vn -0.394398 0.394398 0.830001
vn -0.394398 0.394398 0.830001
vn 0.000000 0.000000 -1.000000
vn 0.000000 0.000000 -1.000000
vn 0.394398 0.394398 -0.830001
vn 0.394398 0.394398 -0.830001
vn 0.000000 0.000000 1.000000
vn 0.000000 0.000000 1.000000
vn 0.556616 0.000000 -0.830770
vn 0.556616 0.000000 -0.830770
vn 0.000000 0.000000 1.000000
vn 0.000000 0.000000 1.000000
vn 0.556616 0.000000 0.830770
vn 0.556616 0.000000 0.830770
vn 0.000000 0.000000 -1.000000
vn 0.000000 0.000000 -1.000000
vn 0.000000 0.556616 -0.830770
vn 0.000000 0.556616 -0.830770
vn 0.000000 0.000000 1.000000
vn 0.000000 0.000000 1.000000
vn 0.000000 0.556616 0.830770
vn 0.000000 0.556616 0.830770
vn 0.000000 0.000000 -1.000000
vn 0.000000 0.000000 -1.000000
vn 0.394398 0.394398 -0.830001
vn 0.394398 0.394398 -0.830001
vn 0.000000 0.000000 1.000000
vn 0.000000 0.000000 1.000000
vn -0.394398 0.394398 0.830001
vn -0.394398 0.394398 0.830001
vn 0.000000 0.000000 -1.000000
vn 0.000000 0.000000 -1.000000
vn 0.394398 -0.394398 0.830001
vn 0.394398 -0.394398 0.830001
vn 0.000000 0.000000 -1.000000
vn 0.000000 0.000000 -1.000000
vn -0.394398 -0.394398 -0.830001
vn -0.394398 -0.394398 -0.830001
vn 0.000000 0.000000 1.000000
vn 0.000000 0.000000 1.000000
vn -0.556616 0.000000 -0.830770
vn -0.556616 0.000000 -0.830770
vn 0.000000 0.000000 1.000000
vn 0.000000 0.000000 1.000000
vn -0.556616 0.000000 0.830770
vn -0.556616 0.000000 0.830770
vn 0.000000 0.000000 -1.000000
vn 0.000000 0.000000 -1.000000
usemtl material_0
f 1//1 2//1 3//1
f 3//2 4//2 1//2
f 5//3 6//3 3//3
f 3//4 4//4 5//4
f 7//5 8//5 9//5
f 9//6 10//6 7//6
f 11//7 12//7 9//7
f 9//8 10//8 11//8
f 2//9 13//9 14//9
f 14//10 3//10 2//10
f 6//11 15//11 14//11
f 14//12 3//12 6//12
f 8//13 16//13 17//13
f 17//14 9//14 8//14
f 12//15 18//15 17//15
f 17//16 9//16 12//16
f 1//17 19//17 20//17
f 20//18 4//18 1//18
f 5//19 21//19 20//19
f 20//20 4//20 5//20
f 7//21 22//21 23//21
f 23//22 10//22 7//22
f 11//23 24//23 23//23
f 23//24 10//24 11//24
f 22//25 19//25 20//25
f 20//26 23//26 22//26
f 24//27 21//27 20//27
f 20//28 23//28 24//28
f 16//29 13//29 14//29
f 14//30 17//30 16//30
f 18//31 15//31 14//31
f 14//32 17//32 18//32
f 1//33 2//33 25//33
f 25//34 26//34 1//34
f 27//35 28//35 25//35
f 25//36 26//36 27//36
f 7//37 8//37 29//37
f 29//38 30//38 7//38
f 31//39 32//39 29//39
f 29//40 30//40 31//40
f 2//41 13//41 33//41
f 33//42 25//42 2//42
f 28//43 34//43 33//43
f 33//44 25//44 28//44
f 8//45 16//45 35//45
f 35//46 29//46 8//46
f 32//47 36//47 35//47
f 35//48 29//48 32//48
f 1//49 19//49 37//49
f 37//50 26//50 1//50
f 27//51 38//51 37//51
f 37//52 26//52 27//52
f 7//53 22//53 39//53
f 39//54 30//54 7//54
f 31//55 40//55 39//55
f 39//56 30//56 31//56
f 22//57 19//57 37//57
f 37//58 39//58 22//58
f 40//59 38//59 37//59
f 37//60 39//60 40//60
f 16//61 13//61 33//61
f 33//62 35//62 16//62
f 36//63 34//63 33//63
f 33//64 35//64 36//64
# 64 faces, 0 coords texture

# End of File
