mtllib ./grod.obj.mtl

v 70.000000 0.000000 -2800.000000
v 840.000000 0.000000 -2800.000000
v 910.000000 0.000000 -2240.000000
v 560.000000 0.000000 -2660.000000
v 140.000000 0.000000 -2240.000000
v -910.000000 0.000000 -2240.000000
v -840.000000 0.000000 -2800.000000
v -630.000000 0.000000 -2660.000000
v 770.000000 -70.000000 -1680.000000
v -70.000000 0.000000 -1680.000000
v -770.000000 0.000000 -1680.000000
v 0.000000 0.000000 -1260.000000
v 840.000000 0.000000 -1120.000000
v -840.000000 -70.000000 -1120.000000
v -770.000000 0.000000 -560.000000
v -140.000000 0.000000 -560.000000
v 840.000000 0.000000 -560.000000
v -840.000000 0.000000 0.000000
v -70.000000 -70.000000 0.000000
v 700.000000 -70.000000 0.000000
v -770.000000 0.000000 560.000000
v 0.000000 0.000000 560.000000
v 700.000000 0.000000 560.000000
v -700.000000 -70.000000 1120.000000
v 0.000000 -70.000000 1190.000000
v 910.000000 0.000000 1120.000000
v -770.000000 0.000000 1680.000000
v -70.000000 0.000000 1750.000000
v 840.000000 -70.000000 1680.000000
v -910.000000 0.000000 2240.000000
v 140.000000 0.000000 2170.000000
v 770.000000 0.000000 2240.000000
v -490.000000 0.000000 2660.000000
v 70.000000 0.000000 2800.000000
v -840.000000 0.000000 2800.000000
v 560.000000 0.000000 2590.000000
v 840.000000 0.000000 2800.000000
v 1260.000000 0.000000 2240.000000
v 1190.000000 0.000000 2800.000000
v 1260.000000 0.000000 1680.000000
v 1190.000000 0.000000 1120.000000
v 1120.000000 0.000000 560.000000
v 1190.000000 0.000000 0.000000
v 1260.000000 0.000000 -2240.000000
v 1190.000000 0.000000 -2800.000000
v 1120.000000 0.000000 -1680.000000
v 1190.000000 0.000000 -1120.000000
v 1190.000000 0.000000 -560.000000
v -1120.000000 0.000000 2240.000000
v -1190.000000 0.000000 2800.000000
v -1190.000000 0.000000 1680.000000
v -1120.000000 0.000000 1120.000000
v -1260.000000 0.000000 560.000000
v -1190.000000 0.000000 0.000000
v -1120.000000 0.000000 -2240.000000
v -1190.000000 0.000000 -2800.000000
v -1120.000000 0.000000 -1680.000000
v -1260.000000 0.000000 -1120.000000
v -1260.000000 0.000000 -560.000000
vn 0.000000 -1.000000 0.000000
vn 0.000000 -1.000000 0.000000
vn 0.000000 -1.000000 0.000000
vn -0.082299 -0.987594 0.133737
vn 0.000000 1.000000 0.000000
vn 0.000000 0.992278 -0.124035
vn -0.085876 0.996158 -0.017175
vn 0.000000 1.000000 0.000000
vn 0.089712 0.986835 -0.134568
vn 0.000000 -0.992278 -0.124035
vn 0.011042 -0.993823 -0.110425
vn 0.000000 -0.993884 -0.110432
vn 0.074529 -0.996827 -0.027948
vn 0.000000 1.000000 0.000000
vn 0.080809 -0.996639 -0.013468
vn 0.000000 0.992278 0.124035
vn 0.000000 1.000000 0.000000
vn 0.000000 -0.992278 -0.124035
vn 0.000000 -0.992278 -0.124035
vn 0.083005 0.996063 0.031127
vn 0.000000 1.000000 0.000000
vn 0.000000 -1.000000 0.000000
vn 0.000000 1.000000 0.000000
vn 0.000000 -1.000000 0.000000
vn 0.000000 0.992278 -0.124035
vn 0.000000 0.992278 -0.124035
vn 0.000000 -1.000000 0.000000
vn 0.000000 -1.000000 0.000000
vn 0.000000 1.000000 0.000000
vn 0.000000 1.000000 0.000000
vn 0.000000 -1.000000 0.000000
vn -0.089961 -0.989576 -0.112452
vn 0.000000 -1.000000 0.000000
vn 0.000000 1.000000 0.000000
vn 0.000000 1.000000 0.000000
vn 0.067351 0.991026 -0.115459
vn -0.067351 0.991026 0.115459
vn 0.000000 -1.000000 0.000000
vn 0.000000 -1.000000 0.000000
vn 0.000000 1.000000 0.000000
vn 0.000000 1.000000 0.000000
vn 0.012252 0.992391 -0.122517
vn 0.012252 0.992391 -0.122517
vn 0.000000 -0.992278 -0.124035
vn 0.000000 -1.000000 0.000000
vn 0.000000 -1.000000 0.000000
vn 0.000000 -1.000000 0.000000
vn 0.162724 -0.976344 0.142384
vn 0.000000 1.000000 0.000000
vn -0.163538 0.981228 0.102211
vn 0.000000 1.000000 0.000000
vn 0.000000 1.000000 0.000000
vn 0.000000 -1.000000 0.000000
vn 0.140351 -0.982456 0.122807
vn 0.000000 1.000000 0.000000
vn 0.000000 1.000000 0.000000
vn 0.000000 1.000000 0.000000
vn -0.195588 0.977940 0.073345
vn 0.000000 -1.000000 0.000000
vn 0.195180 -0.975900 0.097590
vn 0.000000 -1.000000 0.000000
vn 0.000000 -1.000000 0.000000
vn 0.000000 1.000000 0.000000
vn -0.140872 0.986105 0.088045
vn 0.000000 1.000000 0.000000
vn 0.000000 1.000000 0.000000
vn 0.000000 1.000000 0.000000
vn 0.000000 1.000000 0.000000
vn -0.164364 -0.986186 -0.020546
vn 0.000000 -0.992278 0.124035
vn 0.000000 -1.000000 0.000000
vn -0.163538 -0.981228 -0.102211
vn 0.000000 1.000000 0.000000
vn 0.000000 1.000000 0.000000
vn 0.000000 -1.000000 0.000000
vn 0.000000 -1.000000 0.000000
vn 0.000000 -1.000000 0.000000
vn 0.000000 -1.000000 0.000000
vn 0.164260 0.985562 0.041065
vn 0.000000 0.992278 0.124035
vn 0.000000 1.000000 0.000000
vn 0.162724 0.976344 -0.142384
vn 0.000000 -1.000000 0.000000
vn 0.000000 -1.000000 0.000000
vn -0.073821 -0.996588 0.036911
vn -0.013594 -0.992394 0.122350
usemtl material_0
f 30//1 27//1 28//1
f 28//2 31//2 30//2

usemtl material_1
f 12//3 10//3 13//3

usemtl material_2
f 10//4 9//4 13//4

usemtl material_3
f 6//5 10//5 5//5

usemtl material_4
f 14//6 15//6 16//6
f 16//7 12//7 14//7
f 18//8 21//8 22//8
f 22//9 19//9 18//9
f 24//10 21//10 22//10
f 22//11 25//11 24//11
f 25//12 22//12 23//12
f 23//13 26//13 25//13

usemtl material_5
f 6//14 11//14 10//14

usemtl material_6
f 14//15 10//15 12//15

usemtl material_7
f 5//16 9//16 3//16

usemtl material_8
f 16//17 17//17 13//17
f 19//18 16//18 17//18
f 17//19 20//19 19//19

usemtl material_9
f 5//20 10//20 9//20

usemtl material_10
f 12//21 16//21 13//21

usemtl material_11
f 6//22 7//22 1//22
f 34//23 37//23 32//23
f 32//24 36//24 34//24

usemtl material_12
f 19//25 22//25 23//25
f 23//26 20//26 19//26

usemtl material_13
f 6//27 8//27 1//27
f 1//28 5//28 6//28
f 31//29 34//29 36//29
f 36//30 32//30 31//30

usemtl material_14
f 18//31 15//31 16//31
f 16//32 19//32 18//32

usemtl material_15
f 1//33 2//33 3//33
f 3//34 4//34 1//34
f 30//35 35//35 34//35

usemtl material_16
f 25//36 28//36 29//36
f 29//37 26//37 25//37

usemtl material_17
f 5//38 1//38 4//38
f 4//39 3//39 5//39
f 30//40 33//40 34//40
f 34//41 31//41 30//41

usemtl material_18
f 24//42 27//42 28//42
f 28//43 25//43 24//43

usemtl material_19
f 14//44 11//44 10//44

usemtl material_20
f 38//45 39//45 37//45
f 37//46 32//46 38//46
f 40//47 38//47 32//47
f 32//48 29//48 40//48
f 40//49 41//49 26//49
f 26//50 29//50 40//50
f 41//51 42//51 23//51
f 23//52 26//52 41//52
f 43//53 42//53 23//53
f 23//54 20//54 43//54
f 44//55 45//55 2//55
f 2//56 3//56 44//56
f 46//57 44//57 3//57
f 3//58 9//58 46//58
f 46//59 47//59 13//59
f 13//60 9//60 46//60
f 47//61 48//61 17//61
f 17//62 13//62 47//62
f 43//63 48//63 17//63
f 17//64 20//64 43//64
f 49//65 50//65 35//65
f 35//66 30//66 49//66
f 51//67 49//67 30//67
f 30//68 27//68 51//68
f 51//69 52//69 24//69
f 24//70 27//70 51//70
f 52//71 53//71 21//71
f 21//72 24//72 52//72
f 54//73 53//73 21//73
f 21//74 18//74 54//74
f 55//75 56//75 7//75
f 7//76 6//76 55//76
f 57//77 55//77 6//77
f 6//78 11//78 57//78
f 57//79 58//79 14//79
f 14//80 11//80 57//80
f 58//81 59//81 15//81
f 15//82 14//82 58//82
f 54//83 59//83 15//83
f 15//84 18//84 54//84

usemtl material_21
f 31//85 28//85 29//85
f 29//86 32//86 31//86
# 86 faces, 0 coords texture

# End of File
