mtllib ./mixnd.obj.mtl

v 140.000000 0.000000 -2520.000000
v 70.000000 0.000000 -2800.000000
v 840.000000 0.000000 -2800.000000
v 840.000000 0.000000 -2520.000000
v -910.000000 0.000000 -2520.000000
v -840.000000 0.000000 -2800.000000
v 140.000000 0.000000 -2240.000000
v 910.000000 0.000000 -2240.000000
v -910.000000 0.000000 -2240.000000
v -70.000000 0.000000 -1680.000000
v 770.000000 0.000000 -1680.000000
v -770.000000 0.000000 -1680.000000
v 0.000000 0.000000 -1400.000000
v 770.000000 0.000000 -1400.000000
v -840.000000 0.000000 -1400.000000
v 0.000000 0.000000 -1120.000000
v 840.000000 0.000000 -1120.000000
v -840.000000 0.000000 -1120.000000
v -770.000000 0.000000 -840.000000
v 0.000000 0.000000 -840.000000
v 840.000000 0.000000 -840.000000
v -770.000000 0.000000 -560.000000
v -140.000000 0.000000 -560.000000
v 840.000000 0.000000 -560.000000
v -840.000000 0.000000 -280.000000
v 0.000000 0.000000 -280.000000
v 700.000000 0.000000 -280.000000
v -840.000000 0.000000 0.000000
v -70.000000 0.000000 0.000000
v 700.000000 0.000000 0.000000
v -770.000000 0.000000 560.000000
v 0.000000 0.000000 560.000000
v 700.000000 0.000000 560.000000
v -700.000000 0.000000 1120.000000
v 0.000000 0.000000 1120.000000
v 700.000000 0.000000 1120.000000
v -700.000000 0.000000 1680.000000
v 0.000000 0.000000 1680.000000
v 700.000000 0.000000 1680.000000
v -700.000000 0.000000 2240.000000
v 0.000000 0.000000 2240.000000
v 700.000000 0.000000 2240.000000
v -700.000000 0.000000 2800.000000
v 0.000000 0.000000 2800.000000
v 700.000000 0.000000 2800.000000
v 840.000000 0.000000 2240.000000
v 840.000000 0.000000 2800.000000
v 840.000000 0.000000 1680.000000
v 840.000000 0.000000 1120.000000
v 980.000000 0.000000 560.000000
v 1050.000000 0.000000 0.000000
v 1120.000000 0.000000 -2240.000000
v 1190.000000 0.000000 -2800.000000
v 1120.000000 0.000000 -1680.000000
v 1190.000000 0.000000 -1120.000000
v 1190.000000 0.000000 -560.000000
v -840.000000 0.000000 2240.000000
v -840.000000 0.000000 2800.000000
v -840.000000 0.000000 1680.000000
v -840.000000 0.000000 1120.000000
v -980.000000 0.000000 560.000000
v -1050.000000 0.000000 0.000000
v -1120.000000 0.000000 -2240.000000
v -1190.000000 0.000000 -2800.000000
v -1120.000000 0.000000 -1680.000000
v -1120.000000 0.000000 -1120.000000
v -1050.000000 0.000000 -560.000000
v -20.000000 0.000000 -1960.000000
v -20.000000 0.000000 -2520.000000
v 20.000000 0.000000 -2520.000000
v 20.000000 0.000000 -1960.000000
v -20.000000 0.000000 1960.000000
v -20.000000 0.000000 2520.000000
v 20.000000 0.000000 2520.000000
v 20.000000 0.000000 1960.000000
vn 0.000000 -1.000000 0.000000
vn 0.000000 -1.000000 0.000000
vn 0.000000 -1.000000 0.000000
vn 0.000000 -1.000000 0.000000
vn 0.000000 1.000000 0.000000
vn 0.000000 1.000000 0.000000
vn 0.000000 1.000000 0.000000
vn 0.000000 1.000000 0.000000
vn 0.000000 1.000000 0.000000
vn 0.000000 1.000000 0.000000
vn 0.000000 -1.000000 0.000000
vn 0.000000 -1.000000 0.000000
vn 0.000000 -1.000000 0.000000
vn 0.000000 -1.000000 0.000000
vn 0.000000 -1.000000 0.000000
vn 0.000000 -1.000000 0.000000
vn 0.000000 1.000000 0.000000
vn 0.000000 1.000000 0.000000
vn 0.000000 -1.000000 0.000000
vn 0.000000 -1.000000 0.000000
vn 0.000000 -1.000000 0.000000
vn 0.000000 -1.000000 0.000000
vn 0.000000 1.000000 0.000000
vn 0.000000 1.000000 0.000000
vn 0.000000 1.000000 0.000000
vn 0.000000 -1.000000 0.000000
vn 0.000000 -1.000000 0.000000
vn 0.000000 -1.000000 0.000000
vn 0.000000 1.000000 0.000000
vn 0.000000 1.000000 0.000000
vn 0.000000 -1.000000 0.000000
vn 0.000000 -1.000000 0.000000
vn 0.000000 -1.000000 0.000000
vn 0.000000 1.000000 0.000000
vn 0.000000 1.000000 0.000000
vn 0.000000 1.000000 0.000000
vn 0.000000 1.000000 0.000000
vn 0.000000 1.000000 0.000000
vn 0.000000 -1.000000 0.000000
vn 0.000000 -1.000000 0.000000
vn 0.000000 -1.000000 0.000000
vn 0.000000 1.000000 0.000000
vn 0.000000 1.000000 0.000000
vn 0.000000 1.000000 0.000000
vn 0.000000 -1.000000 0.000000
vn 0.000000 -1.000000 0.000000
vn 0.000000 -1.000000 0.000000
vn 0.000000 -1.000000 0.000000
vn 0.000000 -1.000000 0.000000
vn 0.000000 -1.000000 0.000000
vn 0.000000 1.000000 0.000000
vn 0.000000 1.000000 0.000000
vn 0.000000 1.000000 0.000000
vn 0.000000 -1.000000 0.000000
vn 0.000000 -1.000000 0.000000
vn 0.000000 -1.000000 0.000000
vn 0.000000 -1.000000 0.000000
vn 0.000000 -1.000000 0.000000
vn 0.000000 -1.000000 0.000000
vn 0.000000 -1.000000 0.000000
vn 0.000000 1.000000 0.000000
vn 0.000000 1.000000 0.000000
vn 0.000000 -1.000000 0.000000
vn 0.000000 -1.000000 0.000000
vn 0.000000 1.000000 0.000000
vn 0.000000 1.000000 0.000000
vn 0.000000 1.000000 0.000000
vn 0.000000 1.000000 0.000000
vn 0.000000 -1.000000 0.000000
vn 0.000000 -1.000000 0.000000
vn 0.000000 -1.000000 0.000000
vn 0.000000 -1.000000 0.000000
vn 0.000000 1.000000 0.000000
vn 0.000000 1.000000 0.000000
vn 0.000000 1.000000 0.000000
vn 0.000000 1.000000 0.000000
vn 0.000000 1.000000 0.000000
vn 0.000000 1.000000 0.000000
vn 0.000000 -1.000000 0.000000
vn 0.000000 -1.000000 0.000000
vn 0.000000 -1.000000 0.000000
vn 0.000000 -1.000000 0.000000
vn 0.000000 1.000000 0.000000
vn 0.000000 1.000000 0.000000
vn 0.000000 1.000000 0.000000
vn 0.000000 1.000000 0.000000
vn 0.000000 1.000000 0.000000
vn 0.000000 1.000000 0.000000
vn 0.000000 -1.000000 0.000000
vn 0.000000 -1.000000 0.000000
vn 0.000000 1.000000 0.000000
vn 0.000000 1.000000 0.000000
vn 0.000000 -1.000000 0.000000
vn 0.000000 -1.000000 0.000000
vn 0.000000 -1.000000 0.000000
vn 0.000000 -1.000000 0.000000
vn 0.000000 -1.000000 0.000000
vn 0.000000 -1.000000 0.000000
vn 0.000000 -1.000000 0.000000
vn 0.000000 -1.000000 0.000000
vn 0.000000 -1.000000 0.000000
vn 0.000000 -1.000000 0.000000
vn 0.000000 1.000000 0.000000
vn 0.000000 1.000000 0.000000
vn 0.000000 1.000000 0.000000
vn 0.000000 1.000000 0.000000
vn 0.000000 1.000000 0.000000
vn 0.000000 1.000000 0.000000
usemtl material_0
f 46//1 47//1 45//1
f 45//2 42//2 46//2
f 48//3 46//3 42//3
f 42//4 39//4 48//4
f 48//5 49//5 36//5
f 36//6 39//6 48//6
f 57//7 58//7 43//7
f 43//8 40//8 57//8
f 59//9 57//9 40//9
f 40//10 37//10 59//10
f 59//11 60//11 34//11
f 34//12 37//12 59//12

usemtl material_1
f 13//13 10//13 11//13
f 11//14 14//14 13//14
f 15//15 12//15 10//15
f 10//16 13//16 15//16

usemtl material_2
f 54//17 52//17 8//17
f 8//18 11//18 54//18
f 65//19 63//19 9//19
f 9//20 12//20 65//20

usemtl material_3
f 16//21 13//21 14//21
f 14//22 17//22 16//22

usemtl material_4
f 52//23 53//23 3//23
f 52//24 3//24 4//24
f 52//25 4//25 8//25
f 63//26 64//26 6//26
f 63//27 6//27 5//27
f 63//28 5//28 9//28

usemtl material_5
f 7//29 10//29 11//29
f 11//30 8//30 7//30

usemtl material_6
f 55//31 56//31 24//31
f 55//32 24//32 21//32
f 55//33 21//33 17//33
f 66//34 67//34 22//34
f 66//35 22//35 19//35
f 66//36 19//36 18//36

usemtl material_7
f 9//37 12//37 10//37
f 10//38 7//38 9//38

usemtl material_8
f 54//39 55//39 17//39
f 54//40 17//40 14//40
f 54//41 14//41 11//41
f 65//42 66//42 18//42
f 65//43 18//43 15//43
f 65//44 15//44 12//44

usemtl material_9
f 7//45 1//45 4//45
f 4//46 8//46 7//46

usemtl material_10
f 68//47 69//47 70//47
f 70//48 71//48 68//48

usemtl material_11
f 9//49 5//49 1//49
f 1//50 7//50 9//50

usemtl material_12
f 51//51 56//51 24//51
f 51//52 24//52 27//52
f 51//53 27//53 30//53
f 62//54 67//54 22//54
f 62//55 22//55 25//55
f 62//56 25//56 28//56

usemtl material_13
f 1//57 2//57 3//57
f 3//58 4//58 1//58

usemtl material_14
f 5//59 6//59 2//59
f 2//60 1//60 5//60

usemtl material_15
f 72//61 73//61 74//61
f 74//62 75//62 72//62

usemtl material_16
f 51//63 50//63 33//63
f 33//64 30//64 51//64
f 62//65 61//65 31//65
f 31//66 28//66 62//66

usemtl material_17
f 49//67 50//67 33//67
f 33//68 36//68 49//68
f 60//69 61//69 31//69
f 31//70 34//70 60//70

usemtl material_18
f 18//71 15//71 13//71
f 13//72 16//72 18//72

usemtl material_19
f 18//73 19//73 20//73
f 20//74 16//74 18//74

usemtl material_20
f 20//75 23//75 24//75
f 24//76 21//76 20//76

usemtl material_21
f 19//77 22//77 23//77
f 23//78 20//78 19//78

usemtl material_22
f 26//79 23//79 24//79
f 24//80 27//80 26//80

usemtl material_23
f 25//81 22//81 23//81
f 23//82 26//82 25//82

usemtl material_24
f 28//83 31//83 32//83
f 32//84 29//84 28//84
f 34//85 37//85 38//85
f 38//86 35//86 34//86
f 35//87 38//87 39//87
f 39//88 36//88 35//88
f 41//89 38//89 39//89
f 39//90 42//90 41//90
f 41//91 44//91 45//91
f 45//92 42//92 41//92

usemtl material_25
f 28//93 25//93 26//93
f 26//94 29//94 28//94
f 29//95 26//95 27//95
f 27//96 30//96 29//96

usemtl material_26
f 34//97 31//97 32//97
f 32//98 35//98 34//98
f 35//99 32//99 33//99
f 33//100 36//100 35//100
f 40//101 37//101 38//101
f 38//102 41//102 40//102
f 40//103 43//103 44//103
f 44//104 41//104 40//104

usemtl material_27
f 29//105 32//105 33//105
f 33//106 30//106 29//106

usemtl material_28
f 16//107 20//107 21//107
f 21//108 17//108 16//108
# 108 faces, 0 coords texture

# End of File
