mtllib ./mixpn.obj.mtl

v -700.000000 0.000000 0.000000
v -700.000000 0.000000 -560.000000
v 0.000000 0.000000 -560.000000
v 0.000000 0.000000 0.000000
v 700.000000 0.000000 -560.000000
v 700.000000 0.000000 0.000000
v -700.000000 0.000000 560.000000
v 0.000000 0.000000 560.000000
v 700.000000 0.000000 560.000000
v 840.000000 0.000000 0.000000
v 840.000000 0.000000 560.000000
v 840.000000 0.000000 -560.000000
v -840.000000 0.000000 0.000000
v -840.000000 0.000000 560.000000
v -840.000000 0.000000 -560.000000
v -20.000000 0.000000 280.000000
v -20.000000 0.000000 -280.000000
v 20.000000 0.000000 -280.000000
v 20.000000 0.000000 280.000000
vn 0.000000 -1.000000 0.000000
vn 0.000000 -1.000000 0.000000
vn 0.000000 -1.000000 0.000000
vn 0.000000 -1.000000 0.000000
vn 0.000000 1.000000 0.000000
vn 0.000000 1.000000 0.000000
vn 0.000000 1.000000 0.000000
vn 0.000000 1.000000 0.000000
vn 0.000000 -1.000000 0.000000
vn 0.000000 -1.000000 0.000000
vn 0.000000 1.000000 0.000000
vn 0.000000 1.000000 0.000000
vn 0.000000 1.000000 0.000000
vn 0.000000 1.000000 0.000000
vn 0.000000 -1.000000 0.000000
vn 0.000000 -1.000000 0.000000
vn 0.000000 -1.000000 0.000000
vn 0.000000 -1.000000 0.000000
usemtl material_0
f 10//1 11//1 9//1
f 9//2 6//2 10//2
f 12//3 10//3 6//3
f 6//4 5//4 12//4
f 13//5 14//5 7//5
f 7//6 1//6 13//6
f 15//7 13//7 1//7
f 1//8 2//8 15//8

usemtl material_1
f 16//9 17//9 18//9
f 18//10 19//10 16//10

usemtl material_2
f 1//11 7//11 8//11
f 8//12 4//12 1//12

usemtl material_3
f 4//13 8//13 9//13
f 9//14 6//14 4//14

usemtl material_4
f 1//15 2//15 3//15
f 3//16 4//16 1//16

usemtl material_5
f 4//17 3//17 5//17
f 5//18 6//18 4//18
# 18 faces, 0 coords texture

# End of File
