mtllib ./pipg.obj.mtl

v 980.000000 0.000000 -770.000000
v 980.000000 0.000000 0.000000
v 490.000000 0.000000 0.000000
v 490.000000 0.000000 -770.000000
v 0.000000 0.000000 -770.000000
v 0.000000 0.000000 0.000000
v -490.000000 0.000000 0.000000
v -490.000000 0.000000 -770.000000
v -980.000000 0.000000 -770.000000
v -980.000000 0.000000 0.000000
vn 0.000000 1.000000 0.000000
vn 0.000000 1.000000 0.000000
vn 0.000000 -1.000000 0.000000
vn 0.000000 -1.000000 0.000000
vn 0.000000 -1.000000 0.000000
vn 0.000000 -1.000000 0.000000
vn 0.000000 1.000000 0.000000
vn 0.000000 1.000000 0.000000
usemtl material_0
f 9//1 10//1 7//1
f 7//2 8//2 9//2

usemtl material_1
f 1//3 2//3 3//3
f 3//4 4//4 1//4
f 5//5 6//5 7//5
f 7//6 8//6 5//6

usemtl material_2
f 5//7 6//7 3//7
f 3//8 4//8 5//8
# 8 faces, 0 coords texture

# End of File
