####
#
# OBJ File Generated by Meshlab
#
####
# Object prmpc.obj
#
# Vertices: 65
# Faces: 72
#
####
mtllib ./prmpc.obj.mtl

vn 0.000000 0.000000 -1.000000
vn 0.000000 0.000000 -1.000000
vn 0.000000 0.000000 -1.000000
vn 0.000000 0.000000 -1.000000
vn 0.000000 0.000000 1.000000
vn 0.000000 0.000000 1.000000
vn 0.000000 0.000000 1.000000
vn 0.000000 0.000000 1.000000
vn 0.000000 -0.819736 -0.572741
vn 0.000000 -0.819736 -0.572741
vn 0.000000 0.819736 0.572741
vn 0.000000 0.819736 0.572741
vn 0.000000 0.000000 -1.000000
vn 0.000000 0.000000 -1.000000
vn 0.000000 0.000000 1.000000
vn 0.000000 0.000000 1.000000
vn 0.000000 -0.981597 -0.190965
vn 0.000000 -0.981597 -0.190965
vn 0.000000 -0.819483 -0.573103
vn 0.000000 -0.819483 -0.573103
vn -1.000000 0.000000 0.000000
vn -1.000000 0.000000 0.000000
vn -1.000000 0.000000 0.000000
vn -1.000000 0.000000 0.000000
vn -1.000000 0.000000 0.000000
vn 0.000000 1.000000 0.000000
vn 0.000000 1.000000 0.000000
vn 1.000000 0.000000 0.000000
vn 0.000000 0.944051 0.329799
vn 0.496840 0.000000 -0.867842
vn 0.496840 0.000000 -0.867842
vn -1.000000 0.000000 0.000000
vn -1.000000 0.000000 0.000000
vn -1.000000 0.000000 0.000000
vn -1.000000 0.000000 0.000000
vn -1.000000 0.000000 0.000000
vn 0.000000 -1.000000 0.000000
vn 0.000000 -1.000000 0.000000
vn 1.000000 0.000000 0.000000
vn 0.000000 -0.944051 -0.329799
vn 0.496840 0.000000 0.867842
vn 0.496840 0.000000 0.867842
vn 0.000000 0.000000 -1.000000
vn 0.000000 0.000000 -1.000000
vn 0.000000 0.981597 0.190965
vn 0.000000 0.981597 0.190965
vn 0.000000 0.981930 0.189245
vn 0.000000 0.981930 0.189245
vn 0.000000 -0.981930 -0.189245
vn 0.000000 -0.981930 -0.189245
vn 0.000000 0.819483 0.573103
vn 0.000000 0.819483 0.573103
vn 1.000000 0.000000 0.000000
vn 1.000000 0.000000 0.000000
vn -1.000000 0.000000 0.000000
vn -1.000000 0.000000 0.000000
vn -1.000000 0.000000 0.000000
vn -1.000000 0.000000 0.000000
vn 0.000000 0.000000 1.000000
vn 0.000000 0.000000 1.000000
vn 1.000000 0.000000 0.000000
vn 1.000000 0.000000 0.000000
vn -1.000000 0.000000 0.000000
vn -1.000000 0.000000 0.000000
vn -1.000000 0.000000 0.000000
vn -1.000000 0.000000 0.000000
vn 0.000000 0.000000 -1.000000
vn 0.000000 0.000000 -1.000000
vn 0.000000 0.000000 -1.000000
vn 0.000000 0.000000 -1.000000
vn 0.000000 0.000000 1.000000
vn 0.000000 0.000000 1.000000
@
v -300.000000 0.000000 -825.000000
@
v 0.000000 0.000000 -825.000000
@
v 0.000000 -107.000000 -275.000000
@
v -300.000000 -107.000000 -275.000000
@
v 300.000000 0.000000 -825.000000
@
v 300.000000 -107.000000 -275.000000
@
v -300.000000 -160.000000 0.000000
@
v 0.000000 -160.000000 0.000000
@
v 300.000000 -160.000000 0.000000
@
v 0.000000 -320.000000 229.000000
@
v -300.000000 -320.000000 229.000000
@
v 300.000000 -320.000000 229.000000
@
v -300.000000 -641.000000 688.000000
@
v 0.000000 -641.000000 688.000000
@
v 300.000000 -641.000000 688.000000
@
v -700.000000 0.000000 -825.000000
@
v -300.000000 -240.000000 -825.000000
@
v -700.000000 -240.000000 -825.000000
@
v -300.000000 -240.000000 0.000000
@
v -700.000000 -240.000000 0.000000
@
v -700.000000 0.000000 0.000000
@
v -300.000000 0.000000 229.000000
@
v 700.000000 0.000000 -825.000000
@
v 300.000000 -240.000000 -825.000000
@
v 700.000000 -240.000000 -825.000000
@
v 300.000000 -240.000000 0.000000
@
v 700.000000 -240.000000 0.000000
@
v 700.000000 0.000000 0.000000
@
v 300.000000 0.000000 229.000000
@
v -300.000000 -581.000000 688.000000
@
v -300.000000 -260.000000 229.000000
@
v -300.000000 -100.000000 688.000000
@
v -300.000000 0.000000 688.000000
@
v -300.000000 -100.000000 229.000000
@
v -300.000000 -545.000000 628.000000
@
v -300.000000 -95.000000 688.000000
@
v -300.000000 -95.000000 628.000000
@
v -240.000000 -581.000000 688.000000
@
v -240.000000 -95.000000 688.000000
@
v 300.000000 -581.000000 688.000000
@
v 300.000000 -260.000000 229.000000
@
v 300.000000 -100.000000 688.000000
@
v 300.000000 0.000000 688.000000
@
v 300.000000 -100.000000 229.000000
@
v 300.000000 -545.000000 628.000000
@
v 300.000000 -95.000000 688.000000
@
v 300.000000 -95.000000 628.000000
@
v 240.000000 -581.000000 688.000000
@
v 240.000000 -95.000000 688.000000
@
v -500.000000 -160.000000 -825.000000
@
v -600.000000 -160.000000 -825.000000
@
v -700.000000 -40.000000 -825.000000
@
v -600.000000 -40.000000 -825.000000
@
v -300.000000 -160.000000 -825.000000
@
v -400.000000 -160.000000 -825.000000
@
v -500.000000 -40.000000 -825.000000
@
v -400.000000 -40.000000 -825.000000
@
v 500.000000 -160.000000 -825.000000
@
v 600.000000 -160.000000 -825.000000
@
v 700.000000 -40.000000 -825.000000
@
v 600.000000 -40.000000 -825.000000
@
v 300.000000 -160.000000 -825.000000
@
v 400.000000 -160.000000 -825.000000
@
v 500.000000 -40.000000 -825.000000
@
v 400.000000 -40.000000 -825.000000
# 65 vertices, 0 vertices normals


usemtl material_0
f 50//1 51//1 52//1
f 52//2 53//2 50//2
f 54//3 55//3 56//3
f 56//4 57//4 54//4
f 58//5 59//5 60//5
f 60//6 61//6 58//6
f 62//7 63//7 64//7
f 64//8 65//8 62//8

usemtl material_1
f 7//9 8//9 10//9
f 10//10 11//10 7//10
f 9//11 8//11 10//11
f 10//12 12//12 9//12

usemtl material_2
f 16//13 1//13 17//13
f 17//14 18//14 16//14
f 23//15 5//15 24//15
f 24//16 25//16 23//16

usemtl material_3
f 1//17 2//17 3//17
f 3//18 4//18 1//18
f 15//19 14//19 10//19
f 10//20 12//20 15//20
f 17//21 19//21 7//21
f 17//22 7//22 4//22
f 17//23 4//23 1//23
f 16//24 18//24 20//24
f 20//25 21//25 16//25
f 18//26 20//26 19//26
f 19//27 17//27 18//27
f 11//28 19//28 7//28
f 11//29 19//29 20//29
f 21//30 22//30 11//30
f 11//31 20//31 21//31
f 24//32 26//32 9//32
f 24//33 9//33 6//33
f 24//34 6//34 5//34
f 23//35 25//35 27//35
f 27//36 28//36 23//36
f 25//37 27//37 26//37
f 26//38 24//38 25//38
f 12//39 26//39 9//39
f 12//40 26//40 27//40
f 28//41 29//41 12//41
f 12//42 27//42 28//42
f 22//43 29//43 12//43
f 12//44 11//44 22//44

usemtl material_4
f 5//45 2//45 3//45
f 3//46 6//46 5//46
f 7//47 8//47 3//47
f 3//48 4//48 7//48
f 9//49 8//49 3//49
f 3//50 6//50 9//50
f 13//51 14//51 10//51
f 10//52 11//52 13//52
f 30//53 13//53 11//53
f 11//54 31//54 30//54
f 32//55 33//55 22//55
f 22//56 34//56 32//56
f 35//57 30//57 36//57
f 36//58 37//58 35//58
f 30//59 38//59 39//59
f 39//60 36//60 30//60
f 40//61 15//61 12//61
f 12//62 41//62 40//62
f 42//63 43//63 29//63
f 29//64 44//64 42//64
f 45//65 40//65 46//65
f 46//66 47//66 45//66
f 40//67 48//67 49//67
f 49//68 46//68 40//68
f 30//69 40//69 15//69
f 15//70 13//70 30//70
f 32//71 42//71 43//71
f 43//72 33//72 32//72
# 72 faces, 0 coords texture

# End of File
