####
#
# OBJ File Generated by Meshlab
#
####
# Object prmpspd.obj
#
# Vertices: 36
# Faces: 50
#
####
mtllib ./prmpspd.obj.mtl

vn 1.000000 0.000000 0.000000
vn 1.000000 0.000000 0.000000
vn 1.000000 0.000000 0.000000
vn 1.000000 0.000000 0.000000
vn 1.000000 0.000000 0.000000
vn 1.000000 0.000000 0.000000
vn 1.000000 0.000000 0.000000
vn 1.000000 0.000000 0.000000
vn 1.000000 0.000000 0.000000
vn 1.000000 0.000000 0.000000
vn -1.000000 0.000000 0.000000
vn -1.000000 0.000000 0.000000
vn -1.000000 0.000000 0.000000
vn -1.000000 0.000000 0.000000
vn 1.000000 0.000000 0.000000
vn 1.000000 0.000000 0.000000
vn 1.000000 0.000000 0.000000
vn 1.000000 0.000000 0.000000
vn 1.000000 0.000000 0.000000
vn 1.000000 0.000000 0.000000
vn 1.000000 0.000000 0.000000
vn 1.000000 0.000000 0.000000
vn 1.000000 0.000000 0.000000
vn 1.000000 0.000000 0.000000
vn -1.000000 0.000000 0.000000
vn -1.000000 0.000000 0.000000
vn -1.000000 0.000000 0.000000
vn -1.000000 0.000000 0.000000
vn 0.000000 0.000000 -1.000000
vn 0.000000 0.000000 -1.000000
vn 0.000000 0.000000 -1.000000
vn 0.000000 0.000000 1.000000
vn 0.000000 0.000000 1.000000
vn 0.000000 0.000000 1.000000
vn 0.000000 0.000000 1.000000
vn 0.000000 0.000000 1.000000
vn 0.000000 0.000000 1.000000
vn 0.000000 0.000000 1.000000
vn 0.000000 0.000000 1.000000
vn 0.000000 0.000000 1.000000
vn 0.000000 -0.956739 -0.290949
vn 0.000000 -0.956739 -0.290949
vn 0.000000 0.956088 0.293081
vn 0.000000 0.956088 0.293081
vn 0.000000 -0.829014 -0.559227
vn 0.000000 -0.829014 -0.559227
vn 0.000000 0.829572 0.558400
vn 0.000000 0.829572 0.558400
vn 0.000000 0.829572 0.558400
vn 0.000000 0.829572 0.558400
@
v -350.000000 0.000000 -1071.000000
@
v 350.000000 0.000000 -1071.000000
@
v 350.000000 -163.000000 -535.000000
@
v -350.000000 -163.000000 -535.000000
@
v -350.000000 -327.000000 0.000000
@
v 350.000000 -327.000000 0.000000
@
v 350.000000 -640.000000 464.000000
@
v -350.000000 -640.000000 464.000000
@
v -350.000000 -953.000000 929.000000
@
v -250.000000 -953.000000 929.000000
@
v 250.000000 -953.000000 929.000000
@
v 350.000000 -953.000000 929.000000
@
v -350.000000 0.000000 929.000000
@
v -350.000000 -163.000000 929.000000
@
v -350.000000 -163.000000 762.000000
@
v -350.000000 -163.000000 464.000000
@
v -350.000000 -163.000000 240.000000
@
v -350.000000 -103.000000 -535.000000
@
v -350.000000 -267.000000 0.000000
@
v -350.000000 -893.000000 929.000000
@
v -350.000000 -813.000000 762.000000
@
v -350.000000 -450.000000 240.000000
@
v -250.000000 -163.000000 929.000000
@
v -250.000000 -903.000000 929.000000
@
v 350.000000 0.000000 929.000000
@
v 350.000000 -163.000000 929.000000
@
v 350.000000 -163.000000 762.000000
@
v 350.000000 -163.000000 464.000000
@
v 350.000000 -163.000000 240.000000
@
v 350.000000 -103.000000 -535.000000
@
v 350.000000 -267.000000 0.000000
@
v 350.000000 -893.000000 929.000000
@
v 350.000000 -813.000000 762.000000
@
v 350.000000 -450.000000 240.000000
@
v 250.000000 -163.000000 929.000000
@
v 250.000000 -903.000000 929.000000
# 36 vertices, 0 vertices normals


usemtl material_0
f 13//1 14//1 15//1
f 13//2 15//2 16//2
f 13//3 16//3 17//3
f 13//4 17//4 4//4
f 13//5 4//5 1//5
f 4//6 18//6 19//6
f 19//7 5//7 4//7
f 5//8 19//8 20//8
f 5//9 20//9 9//9
f 5//10 9//10 8//10
f 9//11 14//11 15//11
f 15//12 21//12 9//12
f 8//13 16//13 17//13
f 17//14 22//14 8//14
f 25//15 26//15 27//15
f 25//16 27//16 28//16
f 25//17 28//17 29//17
f 25//18 29//18 3//18
f 25//19 3//19 2//19
f 3//20 30//20 31//20
f 31//21 6//21 3//21
f 6//22 31//22 32//22
f 6//23 32//23 12//23
f 6//24 12//24 7//24
f 12//25 26//25 27//25
f 27//26 33//26 12//26
f 7//27 28//27 29//27
f 29//28 34//28 7//28

usemtl material_1
f 9//29 14//29 23//29
f 9//30 23//30 24//30
f 9//31 24//31 10//31
f 12//32 26//32 35//32
f 12//33 35//33 36//33
f 12//34 36//34 11//34
f 25//35 13//35 14//35
f 25//36 14//36 23//36
f 25//37 23//37 35//37
f 25//38 35//38 26//38
f 24//39 10//39 11//39
f 11//40 36//40 24//40

usemtl material_2
f 1//41 2//41 3//41
f 3//42 4//42 1//42
f 3//43 4//43 5//43
f 5//44 6//44 3//44

usemtl material_3
f 5//45 6//45 7//45
f 7//46 8//46 5//46
f 7//47 8//47 9//47
f 7//48 9//48 10//48
f 7//49 10//49 11//49
f 7//50 11//50 12//50
# 50 faces, 0 coords texture

# End of File
