####
#
# OBJ File Generated by Meshlab
#
####
# Object prmpg.obj
#
# Vertices: 74
# Faces: 92
#
####
mtllib ./prmpg.obj.mtl

vn 0.000000 -1.000000 0.000000
vn 0.000000 -1.000000 0.000000
vn 0.000000 1.000000 0.000000
vn 0.000000 1.000000 0.000000
vn 0.000000 -1.000000 0.000000
vn 0.000000 -1.000000 0.000000
vn 0.000000 1.000000 0.000000
vn 0.000000 1.000000 0.000000
vn 0.000000 -1.000000 0.000000
vn 0.000000 -1.000000 0.000000
vn 0.000000 1.000000 0.000000
vn 0.000000 1.000000 0.000000
vn 0.000000 1.000000 0.000000
vn 0.000000 1.000000 0.000000
vn 0.000000 -1.000000 0.000000
vn 0.000000 -1.000000 0.000000
vn 0.000000 1.000000 0.000000
vn 0.000000 1.000000 0.000000
vn 0.000000 -1.000000 0.000000
vn 0.000000 -1.000000 0.000000
vn 0.000000 1.000000 0.000000
vn 0.000000 1.000000 0.000000
vn 0.000000 -1.000000 0.000000
vn 0.000000 -1.000000 0.000000
vn 0.000000 -0.965908 -0.258885
vn 0.000000 -0.965908 -0.258885
vn 0.000000 0.965908 0.258885
vn 0.000000 0.965908 0.258885
vn 0.000000 -0.965908 -0.258885
vn 0.000000 -0.965908 -0.258885
vn 0.000000 0.965908 0.258885
vn 0.000000 0.965908 0.258885
vn 0.000000 0.965908 -0.258885
vn 0.000000 0.965908 -0.258885
vn 0.000000 -0.965908 0.258885
vn 0.000000 -0.965908 0.258885
vn 0.000000 1.000000 0.000000
vn 0.000000 1.000000 0.000000
vn 1.000000 0.000000 0.000000
vn 1.000000 0.000000 0.000000
vn 1.000000 0.000000 0.000000
vn -1.000000 0.000000 0.000000
vn -1.000000 0.000000 0.000000
vn 1.000000 0.000000 0.000000
vn 1.000000 0.000000 0.000000
vn -1.000000 0.000000 0.000000
vn -1.000000 0.000000 0.000000
vn 1.000000 0.000000 0.000000
vn 1.000000 0.000000 0.000000
vn 1.000000 0.000000 0.000000
vn -1.000000 0.000000 0.000000
vn -1.000000 0.000000 0.000000
vn 1.000000 0.000000 0.000000
vn 1.000000 0.000000 0.000000
vn -1.000000 0.000000 0.000000
vn -1.000000 0.000000 0.000000
vn -1.000000 0.000000 0.000000
vn -1.000000 0.000000 0.000000
vn -1.000000 0.000000 0.000000
vn 1.000000 0.000000 0.000000
vn 1.000000 0.000000 0.000000
vn -1.000000 0.000000 0.000000
vn -1.000000 0.000000 0.000000
vn 1.000000 0.000000 0.000000
vn 1.000000 0.000000 0.000000
vn -1.000000 0.000000 0.000000
vn -1.000000 0.000000 0.000000
vn -1.000000 0.000000 0.000000
vn 1.000000 0.000000 0.000000
vn 1.000000 0.000000 0.000000
vn -1.000000 0.000000 0.000000
vn -1.000000 0.000000 0.000000
vn 1.000000 0.000000 0.000000
vn 1.000000 0.000000 0.000000
vn 1.000000 0.000000 0.000000
vn 1.000000 0.000000 0.000000
vn 1.000000 0.000000 0.000000
vn 1.000000 0.000000 0.000000
vn 0.000000 0.965908 0.258885
vn 0.000000 0.965908 0.258885
vn 0.000000 -0.965908 -0.258885
vn 0.000000 -0.965908 -0.258885
vn 0.000000 -0.965908 0.258885
vn 0.000000 -0.965908 0.258885
vn 0.000000 -0.965908 0.258885
vn 0.000000 -0.965908 0.258885
vn 0.000000 0.965908 -0.258885
vn 0.000000 0.965908 -0.258885
vn 0.000000 0.965908 -0.258885
vn 0.000000 0.965908 -0.258885
vn 0.000000 -1.000000 0.000000
vn 0.000000 -1.000000 0.000000
@
v -700.000000 0.000000 -2164.000000
@
v 0.000000 0.000000 -2164.000000
@
v 0.000000 -145.000000 -1623.000000
@
v -700.000000 -145.000000 -1623.000000
@
v 700.000000 0.000000 -2164.000000
@
v 700.000000 -145.000000 -1623.000000
@
v -700.000000 -290.000000 -1082.000000
@
v 0.000000 -290.000000 -1082.000000
@
v 700.000000 -290.000000 -1082.000000
@
v 0.000000 -435.000000 -541.000000
@
v -700.000000 -435.000000 -541.000000
@
v 700.000000 -435.000000 -541.000000
@
v -700.000000 0.000000 2164.000000
@
v 0.000000 0.000000 2164.000000
@
v 0.000000 -145.000000 1623.000000
@
v -700.000000 -145.000000 1623.000000
@
v 700.000000 0.000000 2164.000000
@
v 700.000000 -145.000000 1623.000000
@
v -700.000000 -290.000000 1082.000000
@
v 0.000000 -290.000000 1082.000000
@
v 700.000000 -290.000000 1082.000000
@
v 0.000000 -435.000000 541.000000
@
v -700.000000 -435.000000 541.000000
@
v 700.000000 -435.000000 541.000000
@
v -700.000000 0.000000 -1623.000000
@
v -700.000000 -145.000000 -1082.000000
@
v -700.000000 -380.000000 -541.000000
@
v -700.000000 0.000000 -1082.000000
@
v -700.000000 -145.000000 -541.000000
@
v -700.000000 0.000000 -541.000000
@
v -700.000000 0.000000 0.000000
@
v -700.000000 -145.000000 0.000000
@
v 700.000000 0.000000 -1623.000000
@
v 700.000000 -145.000000 -1082.000000
@
v 700.000000 -380.000000 -541.000000
@
v 700.000000 0.000000 -1082.000000
@
v 700.000000 -145.000000 -541.000000
@
v 700.000000 0.000000 -541.000000
@
v 700.000000 0.000000 0.000000
@
v 700.000000 -145.000000 0.000000
@
v -700.000000 0.000000 1623.000000
@
v -700.000000 -145.000000 1082.000000
@
v -700.000000 -380.000000 541.000000
@
v -700.000000 0.000000 1082.000000
@
v -700.000000 -145.000000 541.000000
@
v -700.000000 0.000000 541.000000
@
v 700.000000 0.000000 1623.000000
@
v 700.000000 -145.000000 1082.000000
@
v 700.000000 -380.000000 541.000000
@
v 700.000000 0.000000 1082.000000
@
v 700.000000 -145.000000 541.000000
@
v 700.000000 0.000000 541.000000
@
v -840.000000 0.000000 2164.000000
@
v -840.000000 0.000000 1464.000000
@
v -700.000000 0.000000 1464.000000
@
v -700.000000 0.000000 764.000000
@
v -840.000000 0.000000 764.000000
@
v -840.000000 0.000000 0.000000
@
v -840.000000 0.000000 -2164.000000
@
v -840.000000 0.000000 -1464.000000
@
v -700.000000 0.000000 -1464.000000
@
v -700.000000 0.000000 -764.000000
@
v -840.000000 0.000000 -764.000000
@
v 840.000000 0.000000 2164.000000
@
v 840.000000 0.000000 1464.000000
@
v 700.000000 0.000000 1464.000000
@
v 700.000000 0.000000 764.000000
@
v 840.000000 0.000000 764.000000
@
v 840.000000 0.000000 0.000000
@
v 840.000000 0.000000 -2164.000000
@
v 840.000000 0.000000 -1464.000000
@
v 700.000000 0.000000 -1464.000000
@
v 700.000000 0.000000 -764.000000
@
v 840.000000 0.000000 -764.000000
# 74 vertices, 0 vertices normals


usemtl material_0
f 13//1 53//1 54//1
f 54//2 55//2 13//2
f 56//3 57//3 54//3
f 54//4 55//4 56//4
f 56//5 57//5 58//5
f 58//6 31//6 56//6
f 1//7 59//7 60//7
f 60//8 61//8 1//8
f 62//9 63//9 60//9
f 60//10 61//10 62//10
f 62//11 63//11 58//11
f 58//12 31//12 62//12
f 17//13 64//13 65//13
f 65//14 66//14 17//14
f 67//15 68//15 65//15
f 65//16 66//16 67//16
f 67//17 68//17 69//17
f 69//18 39//18 67//18
f 5//19 70//19 71//19
f 71//20 72//20 5//20
f 73//21 74//21 71//21
f 71//22 72//22 73//22
f 73//23 74//23 69//23
f 69//24 39//24 73//24

usemtl material_1
f 1//25 2//25 3//25
f 3//26 4//26 1//26
f 7//27 8//27 3//27
f 3//28 4//28 7//28
f 9//29 8//29 3//29
f 3//30 6//30 9//30
f 9//31 8//31 10//31
f 10//32 12//32 9//32
f 13//33 14//33 15//33
f 15//34 16//34 13//34
f 21//35 20//35 22//35
f 22//36 24//36 21//36
f 12//37 10//37 22//37
f 22//38 24//38 12//38
f 1//39 25//39 4//39
f 7//40 26//40 27//40
f 27//41 11//41 7//41
f 28//42 26//42 29//42
f 29//43 30//43 28//43
f 31//44 32//44 29//44
f 29//45 30//45 31//45
f 7//46 28//46 25//46
f 25//47 4//47 7//47
f 5//48 33//48 6//48
f 9//49 34//49 35//49
f 35//50 12//50 9//50
f 36//51 34//51 37//51
f 37//52 38//52 36//52
f 39//53 40//53 37//53
f 37//54 38//54 39//54
f 9//55 36//55 33//55
f 33//56 6//56 9//56
f 13//57 41//57 16//57
f 19//58 42//58 43//58
f 43//59 23//59 19//59
f 44//60 42//60 45//60
f 45//61 46//61 44//61
f 31//62 32//62 45//62
f 45//63 46//63 31//63
f 19//64 44//64 41//64
f 41//65 16//65 19//65
f 17//66 47//66 18//66
f 21//67 48//67 49//67
f 49//68 24//68 21//68
f 50//69 48//69 51//69
f 51//70 52//70 50//70
f 39//71 40//71 51//71
f 51//72 52//72 39//72
f 21//73 50//73 47//73
f 47//74 18//74 21//74
f 43//75 23//75 11//75
f 11//76 27//76 43//76
f 49//77 24//77 12//77
f 12//78 35//78 49//78

usemtl material_2
f 5//79 2//79 3//79
f 3//80 6//80 5//80
f 7//81 8//81 10//81
f 10//82 11//82 7//82
f 17//83 14//83 15//83
f 15//84 18//84 17//84
f 19//85 20//85 15//85
f 15//86 16//86 19//86
f 21//87 20//87 15//87
f 15//88 18//88 21//88
f 19//89 20//89 22//89
f 22//90 23//90 19//90
f 11//91 10//91 22//91
f 22//92 23//92 11//92
# 92 faces, 0 coords texture

# End of File
