mtllib ./prmpm.obj.mtl

v -700.000000 0.000000 -2164.000000
v 0.000000 0.000000 -2164.000000
v 0.000000 -145.000000 -1623.000000
v -700.000000 -145.000000 -1623.000000
v 700.000000 0.000000 -2164.000000
v 700.000000 -145.000000 -1623.000000
v -700.000000 -290.000000 -1082.000000
v 0.000000 -290.000000 -1082.000000
v 700.000000 -290.000000 -1082.000000
v 0.000000 -435.000000 -541.000000
v -700.000000 -435.000000 -541.000000
v 700.000000 -435.000000 -541.000000
v -700.000000 0.000000 2164.000000
v 0.000000 0.000000 2164.000000
v 0.000000 -145.000000 1623.000000
v -700.000000 -145.000000 1623.000000
v 700.000000 0.000000 2164.000000
v 700.000000 -145.000000 1623.000000
v -700.000000 -290.000000 1082.000000
v 0.000000 -290.000000 1082.000000
v 700.000000 -290.000000 1082.000000
v 0.000000 -435.000000 541.000000
v -700.000000 -435.000000 541.000000
v 700.000000 -435.000000 541.000000
v -630.000000 -814.000000 0.000000
v -70.000000 -814.000000 0.000000
v -700.000000 -435.000000 0.000000
v 0.000000 -435.000000 0.000000
v -700.000000 0.000000 -1623.000000
v -700.000000 -145.000000 -1082.000000
v -700.000000 -380.000000 -541.000000
v -700.000000 0.000000 -1082.000000
v -700.000000 -145.000000 -541.000000
v -700.000000 0.000000 -541.000000
v -700.000000 0.000000 0.000000
v -700.000000 -145.000000 0.000000
v 700.000000 0.000000 -1623.000000
v 700.000000 -145.000000 -1082.000000
v 700.000000 -380.000000 -541.000000
v 700.000000 0.000000 -1082.000000
v 700.000000 -145.000000 -541.000000
v 700.000000 0.000000 -541.000000
v 700.000000 0.000000 0.000000
v 700.000000 -145.000000 0.000000
v -700.000000 0.000000 1623.000000
v -700.000000 -145.000000 1082.000000
v -700.000000 -380.000000 541.000000
v -700.000000 0.000000 1082.000000
v -700.000000 -145.000000 541.000000
v -700.000000 0.000000 541.000000
v 700.000000 0.000000 1623.000000
v 700.000000 -145.000000 1082.000000
v 700.000000 -380.000000 541.000000
v 700.000000 0.000000 1082.000000
v 700.000000 -145.000000 541.000000
v 700.000000 0.000000 541.000000
v -840.000000 0.000000 2164.000000
v -840.000000 0.000000 1464.000000
v -700.000000 0.000000 1464.000000
v -700.000000 0.000000 764.000000
v -840.000000 0.000000 764.000000
v -840.000000 0.000000 0.000000
v -840.000000 0.000000 -2164.000000
v -840.000000 0.000000 -1464.000000
v -700.000000 0.000000 -1464.000000
v -700.000000 0.000000 -764.000000
v -840.000000 0.000000 -764.000000
v 840.000000 0.000000 2164.000000
v 840.000000 0.000000 1464.000000
v 700.000000 0.000000 1464.000000
v 700.000000 0.000000 764.000000
v 840.000000 0.000000 764.000000
v 840.000000 0.000000 0.000000
v 840.000000 0.000000 -2164.000000
v 840.000000 0.000000 -1464.000000
v 700.000000 0.000000 -1464.000000
v 700.000000 0.000000 -764.000000
v 840.000000 0.000000 -764.000000
vn 0.000000 -1.000000 0.000000
vn 0.000000 -1.000000 0.000000
vn 0.000000 1.000000 0.000000
vn 0.000000 1.000000 0.000000
vn 0.000000 -1.000000 0.000000
vn 0.000000 -1.000000 0.000000
vn 0.000000 1.000000 0.000000
vn 0.000000 1.000000 0.000000
vn 0.000000 -1.000000 0.000000
vn 0.000000 -1.000000 0.000000
vn 0.000000 1.000000 0.000000
vn 0.000000 1.000000 0.000000
vn 0.000000 1.000000 0.000000
vn 0.000000 1.000000 0.000000
vn 0.000000 -1.000000 0.000000
vn 0.000000 -1.000000 0.000000
vn 0.000000 1.000000 0.000000
vn 0.000000 1.000000 0.000000
vn 0.000000 -1.000000 0.000000
vn 0.000000 -1.000000 0.000000
vn 0.000000 1.000000 0.000000
vn 0.000000 1.000000 0.000000
vn 0.000000 -1.000000 0.000000
vn 0.000000 -1.000000 0.000000
vn 0.000000 -0.965908 -0.258885
vn 0.000000 -0.965908 -0.258885
vn 0.000000 0.965908 0.258885
vn 0.000000 0.965908 0.258885
vn 0.000000 -0.965908 -0.258885
vn 0.000000 -0.965908 -0.258885
vn 0.000000 0.965908 0.258885
vn 0.000000 0.965908 0.258885
vn 0.000000 0.965908 -0.258885
vn 0.000000 0.965908 -0.258885
vn 0.000000 -0.965908 0.258885
vn 0.000000 -0.965908 0.258885
vn 0.000000 1.000000 0.000000
vn 0.000000 1.000000 0.000000
vn 1.000000 0.000000 0.000000
vn 1.000000 0.000000 0.000000
vn 1.000000 0.000000 0.000000
vn -1.000000 0.000000 0.000000
vn -1.000000 0.000000 0.000000
vn 1.000000 0.000000 0.000000
vn 1.000000 0.000000 0.000000
vn -1.000000 0.000000 0.000000
vn -1.000000 0.000000 0.000000
vn 1.000000 0.000000 0.000000
vn 1.000000 0.000000 0.000000
vn 1.000000 0.000000 0.000000
vn -1.000000 0.000000 0.000000
vn -1.000000 0.000000 0.000000
vn 1.000000 0.000000 0.000000
vn 1.000000 0.000000 0.000000
vn -1.000000 0.000000 0.000000
vn -1.000000 0.000000 0.000000
vn -1.000000 0.000000 0.000000
vn -1.000000 0.000000 0.000000
vn -1.000000 0.000000 0.000000
vn 1.000000 0.000000 0.000000
vn 1.000000 0.000000 0.000000
vn -1.000000 0.000000 0.000000
vn -1.000000 0.000000 0.000000
vn 1.000000 0.000000 0.000000
vn 1.000000 0.000000 0.000000
vn -1.000000 0.000000 0.000000
vn -1.000000 0.000000 0.000000
vn -1.000000 0.000000 0.000000
vn 1.000000 0.000000 0.000000
vn 1.000000 0.000000 0.000000
vn -1.000000 0.000000 0.000000
vn -1.000000 0.000000 0.000000
vn 1.000000 0.000000 0.000000
vn 1.000000 0.000000 0.000000
vn 1.000000 0.000000 0.000000
vn 1.000000 0.000000 0.000000
vn 1.000000 0.000000 0.000000
vn 1.000000 0.000000 0.000000
vn 0.000000 0.965908 0.258885
vn 0.000000 0.965908 0.258885
vn 0.000000 -0.965908 -0.258885
vn 0.000000 -0.965908 -0.258885
vn 0.000000 -0.965908 0.258885
vn 0.000000 -0.965908 0.258885
vn 0.000000 -0.965908 0.258885
vn 0.000000 -0.965908 0.258885
vn 0.000000 0.965908 -0.258885
vn 0.000000 0.965908 -0.258885
vn 0.000000 0.965908 -0.258885
vn 0.000000 0.965908 -0.258885
vn 0.000000 -0.819018 0.573767
vn 0.000000 -0.819018 0.573767
vn 0.000000 0.819018 0.573767
vn 0.000000 0.819018 0.573767
vn -0.983368 -0.181625 0.000000
vn -0.983368 -0.181625 0.000000
vn -0.983368 0.181625 0.000000
vn -0.983368 0.181625 0.000000
usemtl material_0
f 13//1 57//1 58//1
f 58//2 59//2 13//2
f 60//3 61//3 58//3
f 58//4 59//4 60//4
f 60//5 61//5 62//5
f 62//6 35//6 60//6
f 1//7 63//7 64//7
f 64//8 65//8 1//8
f 66//9 67//9 64//9
f 64//10 65//10 66//10
f 66//11 67//11 62//11
f 62//12 35//12 66//12
f 17//13 68//13 69//13
f 69//14 70//14 17//14
f 71//15 72//15 69//15
f 69//16 70//16 71//16
f 71//17 72//17 73//17
f 73//18 43//18 71//18
f 5//19 74//19 75//19
f 75//20 76//20 5//20
f 77//21 78//21 75//21
f 75//22 76//22 77//22
f 77//23 78//23 73//23
f 73//24 43//24 77//24

usemtl material_1
f 1//25 2//25 3//25
f 3//26 4//26 1//26
f 7//27 8//27 3//27
f 3//28 4//28 7//28
f 9//29 8//29 3//29
f 3//30 6//30 9//30
f 9//31 8//31 10//31
f 10//32 12//32 9//32
f 13//33 14//33 15//33
f 15//34 16//34 13//34
f 21//35 20//35 22//35
f 22//36 24//36 21//36
f 12//37 10//37 22//37
f 22//38 24//38 12//38
f 1//39 29//39 4//39
f 7//40 30//40 31//40
f 31//41 11//41 7//41
f 32//42 30//42 33//42
f 33//43 34//43 32//43
f 35//44 36//44 33//44
f 33//45 34//45 35//45
f 7//46 32//46 29//46
f 29//47 4//47 7//47
f 5//48 37//48 6//48
f 9//49 38//49 39//49
f 39//50 12//50 9//50
f 40//51 38//51 41//51
f 41//52 42//52 40//52
f 43//53 44//53 41//53
f 41//54 42//54 43//54
f 9//55 40//55 37//55
f 37//56 6//56 9//56
f 13//57 45//57 16//57
f 19//58 46//58 47//58
f 47//59 23//59 19//59
f 48//60 46//60 49//60
f 49//61 50//61 48//61
f 35//62 36//62 49//62
f 49//63 50//63 35//63
f 19//64 48//64 45//64
f 45//65 16//65 19//65
f 17//66 51//66 18//66
f 21//67 52//67 53//67
f 53//68 24//68 21//68
f 54//69 52//69 55//69
f 55//70 56//70 54//70
f 43//71 44//71 55//71
f 55//72 56//72 43//72
f 21//73 54//73 51//73
f 51//74 18//74 21//74
f 47//75 23//75 11//75
f 11//76 31//76 47//76
f 53//77 24//77 12//77
f 12//78 39//78 53//78

usemtl material_2
f 5//79 2//79 3//79
f 3//80 6//80 5//80
f 7//81 8//81 10//81
f 10//82 11//82 7//82
f 17//83 14//83 15//83
f 15//84 18//84 17//84
f 19//85 20//85 15//85
f 15//86 16//86 19//86
f 21//87 20//87 15//87
f 15//88 18//88 21//88
f 19//89 20//89 22//89
f 22//90 23//90 19//90
f 25//91 26//91 22//91
f 22//92 23//92 25//92
f 25//93 26//93 10//93
f 10//94 11//94 25//94
f 25//95 23//95 27//95
f 27//96 11//96 25//96
f 26//97 22//97 28//97
f 28//98 10//98 26//98
# 98 faces, 0 coords texture

# End of File
