mtllib ./prodb2.obj.mtl

v 0.000000 0.000000 -2240.000000
v 0.000000 0.000000 -2800.000000
v 700.000000 0.000000 -2800.000000
v 700.000000 0.000000 -2240.000000
v -700.000000 0.000000 -2240.000000
v -700.000000 0.000000 -2800.000000
v 0.000000 0.000000 -1680.000000
v 700.000000 0.000000 -1680.000000
v -700.000000 0.000000 -1680.000000
v 0.000000 0.000000 -1120.000000
v 700.000000 0.000000 -1120.000000
v -700.000000 0.000000 -1120.000000
v -700.000000 0.000000 -560.000000
v 0.000000 0.000000 -560.000000
v 700.000000 0.000000 -560.000000
v -700.000000 0.000000 0.000000
v 0.000000 0.000000 0.000000
v 700.000000 0.000000 0.000000
v -700.000000 0.000000 560.000000
v 0.000000 0.000000 560.000000
v 700.000000 0.000000 560.000000
v -700.000000 0.000000 1120.000000
v 0.000000 0.000000 1120.000000
v 700.000000 0.000000 1120.000000
v -700.000000 0.000000 1680.000000
v 0.000000 0.000000 1680.000000
v 700.000000 0.000000 1680.000000
v -700.000000 0.000000 2240.000000
v 0.000000 0.000000 2240.000000
v 700.000000 0.000000 2240.000000
v -700.000000 0.000000 2800.000000
v 0.000000 0.000000 2800.000000
v 700.000000 0.000000 2800.000000
v 840.000000 0.000000 -2100.000000
v 840.000000 0.000000 -2800.000000
v 700.000000 0.000000 -2100.000000
v 840.000000 0.000000 -1400.000000
v 700.000000 0.000000 -1400.000000
v 840.000000 0.000000 -700.000000
v 700.000000 0.000000 -700.000000
v 840.000000 0.000000 0.000000
v 840.000000 0.000000 2100.000000
v 840.000000 0.000000 2800.000000
v 700.000000 0.000000 2100.000000
v 840.000000 0.000000 1400.000000
v 700.000000 0.000000 1400.000000
v 840.000000 0.000000 700.000000
v 700.000000 0.000000 700.000000
v -840.000000 0.000000 -2100.000000
v -840.000000 0.000000 -2800.000000
v -700.000000 0.000000 -2100.000000
v -840.000000 0.000000 -1400.000000
v -700.000000 0.000000 -1400.000000
v -840.000000 0.000000 -700.000000
v -700.000000 0.000000 -700.000000
v -840.000000 0.000000 0.000000
v -840.000000 0.000000 2100.000000
v -840.000000 0.000000 2800.000000
v -700.000000 0.000000 2100.000000
v -840.000000 0.000000 1400.000000
v -700.000000 0.000000 1400.000000
v -840.000000 0.000000 700.000000
v -700.000000 0.000000 700.000000
v -112.000000 0.000000 3220.000000
v -718.000000 0.000000 2870.000000
v 493.000000 0.000000 3570.000000
v 615.000000 0.000000 3640.000000
v 112.000000 0.000000 -3220.000000
v 718.000000 0.000000 -2870.000000
v -493.000000 0.000000 -3570.000000
v -615.000000 0.000000 -3640.000000
v -20.000000 0.000000 280.000000
v -20.000000 0.000000 -280.000000
v 20.000000 0.000000 -280.000000
v 20.000000 0.000000 280.000000
v -20.000000 0.000000 1400.000000
v -20.000000 0.000000 840.000000
v 20.000000 0.000000 840.000000
v 20.000000 0.000000 1400.000000
v -20.000000 0.000000 -1400.000000
v -20.000000 0.000000 -840.000000
v 20.000000 0.000000 -840.000000
v 20.000000 0.000000 -1400.000000
v -20.000000 0.000000 1960.000000
v -20.000000 0.000000 2520.000000
v 20.000000 0.000000 2520.000000
v 20.000000 0.000000 1960.000000
v -20.000000 0.000000 -1960.000000
v -20.000000 0.000000 -2520.000000
v 20.000000 0.000000 -2520.000000
v 20.000000 0.000000 -1960.000000
vn 0.000000 1.000000 0.000000
vn 0.000000 -1.000000 0.000000
vn 0.000000 -1.000000 0.000000
vn 0.000000 -1.000000 0.000000
vn 0.000000 -1.000000 0.000000
vn 0.000000 -1.000000 0.000000
vn 0.000000 1.000000 0.000000
vn 0.000000 1.000000 0.000000
vn 0.000000 1.000000 0.000000
vn 0.000000 1.000000 0.000000
vn 0.000000 1.000000 0.000000
vn 0.000000 1.000000 0.000000
vn 0.000000 1.000000 0.000000
vn 0.000000 -1.000000 0.000000
vn 0.000000 -1.000000 0.000000
vn 0.000000 -1.000000 0.000000
vn 0.000000 -1.000000 0.000000
vn 0.000000 -1.000000 0.000000
vn 0.000000 -1.000000 0.000000
vn 0.000000 -1.000000 0.000000
vn 0.000000 1.000000 0.000000
vn 0.000000 1.000000 0.000000
vn 0.000000 1.000000 0.000000
vn 0.000000 1.000000 0.000000
vn 0.000000 1.000000 0.000000
vn 0.000000 1.000000 0.000000
vn 0.000000 1.000000 0.000000
vn 0.000000 1.000000 0.000000
vn 0.000000 -1.000000 0.000000
vn 0.000000 -1.000000 0.000000
vn 0.000000 -1.000000 0.000000
vn 0.000000 -1.000000 0.000000
vn 0.000000 -1.000000 0.000000
vn 0.000000 1.000000 0.000000
vn 0.000000 1.000000 0.000000
vn 0.000000 -1.000000 0.000000
vn 0.000000 1.000000 0.000000
vn 0.000000 1.000000 0.000000
vn 0.000000 -1.000000 0.000000
vn 0.000000 -1.000000 0.000000
vn 0.000000 -1.000000 0.000000
vn 0.000000 -1.000000 0.000000
vn 0.000000 1.000000 0.000000
vn 0.000000 1.000000 0.000000
vn 0.000000 1.000000 0.000000
vn 0.000000 1.000000 0.000000
vn 0.000000 -1.000000 0.000000
vn 0.000000 -1.000000 0.000000
vn 0.000000 -1.000000 0.000000
vn 0.000000 -1.000000 0.000000
vn 0.000000 1.000000 0.000000
vn 0.000000 1.000000 0.000000
vn 0.000000 -1.000000 0.000000
vn 0.000000 -1.000000 0.000000
vn 0.000000 -1.000000 0.000000
vn 0.000000 -1.000000 0.000000
vn 0.000000 1.000000 0.000000
vn 0.000000 1.000000 0.000000
vn 0.000000 1.000000 0.000000
vn 0.000000 1.000000 0.000000
vn 0.000000 -1.000000 0.000000
vn 0.000000 -1.000000 0.000000
vn 0.000000 -1.000000 0.000000
vn 0.000000 -1.000000 0.000000
vn 0.000000 -1.000000 0.000000
vn 0.000000 -1.000000 0.000000
vn 0.000000 1.000000 0.000000
vn 0.000000 1.000000 0.000000
vn 0.000000 -1.000000 0.000000
vn 0.000000 -1.000000 0.000000
vn 0.000000 1.000000 0.000000
vn 0.000000 1.000000 0.000000
vn 0.000000 1.000000 0.000000
vn 0.000000 1.000000 0.000000
vn 0.000000 -1.000000 0.000000
vn 0.000000 -1.000000 0.000000
vn 0.000000 -1.000000 0.000000
vn 0.000000 -1.000000 0.000000
vn 0.000000 1.000000 0.000000
vn 0.000000 1.000000 0.000000
vn 0.000000 1.000000 0.000000
vn 0.000000 1.000000 0.000000
vn 0.000000 1.000000 0.000000
vn 0.000000 1.000000 0.000000
vn 0.000000 -1.000000 0.000000
vn 0.000000 -1.000000 0.000000
vn 0.000000 1.000000 0.000000
vn 0.000000 1.000000 0.000000
vn 0.000000 -1.000000 0.000000
vn 0.000000 -1.000000 0.000000
vn 0.000000 1.000000 0.000000
vn 0.000000 1.000000 0.000000
vn 0.000000 -1.000000 0.000000
vn 0.000000 -1.000000 0.000000
vn 0.000000 1.000000 0.000000
vn 0.000000 1.000000 0.000000
usemtl material_0
f 34//1 35//1 3//1
f 37//2 39//2 40//2
f 42//3 43//3 33//3
f 33//4 44//4 42//4
f 45//5 42//5 44//5
f 44//6 46//6 45//6
f 45//7 47//7 48//7
f 48//8 46//8 45//8
f 47//9 41//9 18//9
f 18//10 48//10 47//10
f 3//11 36//11 34//11
f 37//12 34//12 36//12
f 36//13 38//13 37//13
f 40//14 38//14 37//14
f 39//15 41//15 18//15
f 18//16 40//16 39//16
f 49//17 50//17 6//17
f 6//18 51//18 49//18
f 52//19 49//19 51//19
f 51//20 53//20 52//20
f 52//21 54//21 55//21
f 55//22 53//22 52//22
f 54//23 56//23 16//23
f 16//24 55//24 54//24
f 57//25 58//25 31//25
f 31//26 59//26 57//26
f 60//27 57//27 59//27
f 59//28 61//28 60//28
f 60//29 62//29 63//29
f 63//30 61//30 60//30
f 62//31 56//31 16//31
f 16//32 63//32 62//32
f 58//33 31//33 65//33
f 43//34 33//34 66//34
f 66//35 67//35 43//35
f 35//36 3//36 69//36
f 50//37 6//37 70//37
f 70//38 71//38 50//38
f 72//39 73//39 74//39
f 74//40 75//40 72//40
f 76//41 77//41 78//41
f 78//42 79//42 76//42
f 80//43 81//43 82//43
f 82//44 83//44 80//44
f 84//45 85//45 86//45
f 86//46 87//46 84//46
f 88//47 89//47 90//47
f 90//48 91//48 88//48

usemtl material_1
f 1//49 2//49 3//49
f 3//50 4//50 1//50
f 1//51 7//51 8//51
f 8//52 4//52 1//52
f 10//53 7//53 8//53
f 8//54 11//54 10//54
f 12//55 9//55 7//55
f 7//56 10//56 12//56
f 12//57 13//57 14//57
f 14//58 10//58 12//58
f 16//59 19//59 20//59
f 20//60 17//60 16//60
f 22//61 19//61 20//61
f 20//62 23//62 22//62
f 23//63 20//63 21//63
f 21//64 24//64 23//64
f 28//65 25//65 26//65
f 26//66 29//66 28//66
f 28//67 31//67 32//67
f 32//68 29//68 28//68

usemtl material_2
f 5//69 6//69 2//69
f 2//70 1//70 5//70
f 5//71 9//71 7//71
f 7//72 1//72 5//72
f 10//73 14//73 15//73
f 15//74 11//74 10//74
f 16//75 13//75 14//75
f 14//76 17//76 16//76
f 17//77 14//77 15//77
f 15//78 18//78 17//78
f 17//79 20//79 21//79
f 21//80 18//80 17//80
f 22//81 25//81 26//81
f 26//82 23//82 22//82
f 23//83 26//83 27//83
f 27//84 24//84 23//84
f 29//85 26//85 27//85
f 27//86 30//86 29//86
f 29//87 32//87 33//87
f 33//88 30//88 29//88
f 31//89 32//89 64//89
f 64//90 65//90 31//90
f 33//91 32//91 64//91
f 64//92 66//92 33//92
f 3//93 2//93 68//93
f 68//94 69//94 3//94
f 6//95 2//95 68//95
f 68//96 70//96 6//96
# 96 faces, 0 coords texture

# End of File
