####
#
# OBJ File Generated by Meshlab
#
####
# Object prode.obj
#
# Vertices: 27
# Faces: 26
#
####
mtllib ./prode.obj.mtl

vn 0.000000 -1.000000 0.000000
vn 0.000000 -1.000000 0.000000
vn 0.000000 1.000000 0.000000
vn 0.000000 1.000000 0.000000
vn 0.000000 1.000000 0.000000
vn 0.000000 1.000000 0.000000
vn 0.000000 -1.000000 0.000000
vn 0.000000 -1.000000 0.000000
vn 0.000000 1.000000 0.000000
vn 0.000000 1.000000 0.000000
vn 0.000000 -1.000000 0.000000
vn 0.000000 -1.000000 0.000000
vn 0.000000 -1.000000 0.000000
vn 0.000000 -1.000000 0.000000
vn 0.000000 -1.000000 0.000000
vn 0.000000 -1.000000 0.000000
vn 0.000000 -1.000000 0.000000
vn 0.000000 -1.000000 0.000000
vn 0.000000 1.000000 0.000000
vn 0.000000 1.000000 0.000000
vn 0.000000 1.000000 0.000000
vn 0.000000 1.000000 0.000000
vn 0.000000 -1.000000 0.000000
vn 0.000000 -1.000000 0.000000
vn 0.000000 -1.000000 0.000000
vn 0.000000 -1.000000 0.000000
@
v 0.000000 0.000000 -1120.000000
@
v 0.000000 0.000000 -1680.000000
@
v 700.000000 0.000000 -1680.000000
@
v 700.000000 0.000000 -1120.000000
@
v -700.000000 0.000000 -1120.000000
@
v -700.000000 0.000000 -1680.000000
@
v -700.000000 0.000000 -560.000000
@
v 0.000000 0.000000 -560.000000
@
v 700.000000 0.000000 -560.000000
@
v -700.000000 0.000000 0.000000
@
v 0.000000 0.000000 0.000000
@
v 700.000000 0.000000 0.000000
@
v 840.000000 0.000000 -840.000000
@
v 840.000000 0.000000 0.000000
@
v 700.000000 0.000000 -840.000000
@
v 840.000000 0.000000 -1680.000000
@
v -840.000000 0.000000 -840.000000
@
v -840.000000 0.000000 0.000000
@
v -700.000000 0.000000 -840.000000
@
v -840.000000 0.000000 -1680.000000
@
v -700.000000 0.000000 -1820.000000
@
v 0.000000 0.000000 -1890.000000
@
v 700.000000 0.000000 -1820.000000
@
v -20.000000 0.000000 -280.000000
@
v -20.000000 0.000000 -840.000000
@
v 20.000000 0.000000 -840.000000
@
v 20.000000 0.000000 -280.000000
# 27 vertices, 0 vertices normals


usemtl material_0
f 13//1 14//1 12//1
f 12//2 15//2 13//2
f 13//3 16//3 3//3
f 3//4 15//4 13//4
f 17//5 18//5 10//5
f 10//6 19//6 17//6
f 17//7 20//7 6//7
f 6//8 19//8 17//8
f 21//9 20//9 2//9
f 2//10 22//10 21//10
f 23//11 16//11 2//11
f 2//12 22//12 23//12
f 24//13 25//13 26//13
f 26//14 27//14 24//14

usemtl material_1
f 1//15 2//15 3//15
f 3//16 4//16 1//16
f 5//17 6//17 2//17
f 2//18 1//18 5//18
f 5//19 7//19 8//19
f 8//20 1//20 5//20

usemtl material_2
f 1//21 8//21 9//21
f 9//22 4//22 1//22
f 10//23 7//23 8//23
f 8//24 11//24 10//24
f 11//25 8//25 9//25
f 9//26 12//26 11//26
# 26 faces, 0 coords texture

# End of File
