mtllib ./tre3.obj.mtl

v 18.000000 0.000000 0.000000
v 0.000000 -1200.000000 0.000000
v -18.000000 0.000000 0.000000
v 0.000000 0.000000 18.000000
v 0.000000 0.000000 -18.000000
v 0.000000 -252.000000 0.000000
v 0.000000 -240.000000 0.000000
v 120.000000 -330.000000 120.000000
v -150.000000 -330.000000 -150.000000
v -150.000000 -360.000000 60.000000
v 0.000000 -852.000000 0.000000
v 0.000000 -840.000000 0.000000
v -30.000000 -930.000000 -72.000000
v -36.000000 -960.000000 75.000000
v 60.000000 -330.000000 -180.000000
v 0.000000 -336.000000 0.000000
v 0.000000 -345.000000 0.000000
v 69.000000 -390.000000 120.000000
v 0.000000 -312.000000 0.000000
v -60.000000 -420.000000 -129.000000
v 0.000000 -396.000000 0.000000
v 0.000000 -387.000000 0.000000
v 156.000000 -420.000000 -63.000000
v 0.000000 -342.000000 0.000000
v 0.000000 -330.000000 0.000000
v -129.000000 -450.000000 -150.000000
v 0.000000 -696.000000 0.000000
v 0.000000 -687.000000 0.000000
v 120.000000 -780.000000 -33.000000
v 0.000000 -642.000000 0.000000
v 0.000000 -630.000000 0.000000
v -69.000000 -750.000000 -90.000000
v 0.000000 -306.000000 0.000000
v 0.000000 -315.000000 0.000000
v -123.000000 -390.000000 192.000000
v 0.000000 -300.000000 0.000000
v 0.000000 -420.000000 105.000000
v 0.000000 -402.000000 0.000000
v 0.000000 -390.000000 0.000000
v 129.000000 -510.000000 150.000000
v 0.000000 -612.000000 0.000000
v 0.000000 -600.000000 0.000000
v 0.000000 -720.000000 105.000000
v 0.000000 -702.000000 0.000000
v 0.000000 -690.000000 0.000000
v -99.000000 -810.000000 0.000000
v 0.000000 -912.000000 0.000000
v 0.000000 -900.000000 0.000000
v 30.000000 -1020.000000 75.000000
v 0.000000 -1002.000000 0.000000
v 0.000000 -990.000000 0.000000
v -30.000000 -1110.000000 -45.000000
v -39.000000 -420.000000 120.000000
v 123.000000 -420.000000 -60.000000
v 0.000000 -462.000000 0.000000
v 0.000000 -450.000000 0.000000
v 0.000000 -540.000000 120.000000
v 0.000000 -570.000000 -60.000000
v 120.000000 -510.000000 -120.000000
vn 0.000000 0.000000 -1.000000
vn 1.000000 0.000000 0.000000
vn 0.707107 0.000000 -0.707107
vn -0.707107 0.000000 0.707107
vn 0.371391 0.000000 0.928477
vn -0.923077 0.000000 0.384615
vn 0.901523 0.000000 0.432731
vn -0.948683 0.000000 -0.316228
vn -0.866906 0.000000 0.498471
vn 0.906721 0.000000 -0.421731
vn -0.374463 0.000000 -0.927242
vn -0.758185 0.000000 0.652039
vn -0.265156 0.000000 -0.964205
vn -0.793606 0.000000 0.608432
vn -0.842032 0.000000 -0.539427
vn 1.000000 0.000000 0.000000
vn 0.758185 0.000000 -0.652039
vn 1.000000 0.000000 0.000000
vn 0.000000 0.000000 1.000000
vn 0.928477 0.000000 -0.371391
vn -0.832050 0.000000 0.554700
vn 0.951034 0.000000 0.309086
vn -0.438424 0.000000 -0.898768
vn 1.000000 0.000000 0.000000
vn -1.000000 0.000000 0.000000
vn -0.707107 0.000000 -0.707107
usemtl material_0
f 1//1 2//1 3//1
f 4//2 2//2 5//2
f 6//3 7//3 8//3
f 6//4 7//4 9//4
f 6//5 7//5 10//5
f 11//6 12//6 13//6
f 11//7 12//7 14//7
f 6//8 7//8 15//8
f 16//9 17//9 18//9
f 19//10 17//10 20//10
f 21//11 22//11 23//11
f 24//12 25//12 26//12
f 27//13 28//13 29//13
f 30//14 31//14 32//14
f 33//15 34//15 35//15
f 19//16 36//16 37//16
f 38//17 39//17 40//17
f 41//18 42//18 43//18
f 44//19 45//19 46//19
f 47//20 48//20 49//20
f 50//21 51//21 52//21
f 19//22 36//22 53//22
f 19//23 36//23 54//23
f 55//24 56//24 57//24
f 55//25 56//25 58//25
f 55//26 56//26 59//26
# 26 faces, 0 coords texture

# End of File
