mtllib ./tre4.obj.mtl

v 80.000000 0.000000 0.000000
v 40.000000 -160.000000 0.000000
v 16.000000 -400.000000 0.000000
v -16.000000 -400.000000 0.000000
v -40.000000 -160.000000 0.000000
v -80.000000 0.000000 0.000000
v 0.000000 0.000000 80.000000
v 0.000000 -160.000000 40.000000
v 0.000000 -400.000000 16.000000
v 0.000000 -400.000000 -16.000000
v 0.000000 -160.000000 -40.000000
v 0.000000 0.000000 -80.000000
v 24.000000 -600.000000 0.000000
v 88.000000 -560.000000 0.000000
v 136.000000 -504.000000 0.000000
v 148.000000 -480.000000 0.000000
v 152.000000 -456.000000 0.000000
v 144.000000 -416.000000 0.000000
v 140.000000 -400.000000 0.000000
v 92.000000 -340.000000 0.000000
v 32.000000 -320.000000 0.000000
v -32.000000 -320.000000 0.000000
v -64.000000 -340.000000 0.000000
v -136.000000 -396.000000 0.000000
v -148.000000 -424.000000 0.000000
v -160.000000 -456.000000 0.000000
v -148.000000 -480.000000 0.000000
v -132.000000 -520.000000 0.000000
v -84.000000 -580.000000 0.000000
v -24.000000 -596.000000 0.000000
v 0.000000 -600.000000 24.000000
v 0.000000 -580.000000 48.000000
v 0.000000 -544.000000 104.000000
v 0.000000 -480.000000 148.000000
v 0.000000 -456.000000 144.000000
v 0.000000 -376.000000 112.000000
v 0.000000 -352.000000 80.000000
v 0.000000 -328.000000 52.000000
v 0.000000 -320.000000 32.000000
v 0.000000 -320.000000 -32.000000
v 0.000000 -336.000000 -68.000000
v 0.000000 -356.000000 -100.000000
v 0.000000 -424.000000 -152.000000
v 0.000000 -464.000000 -152.000000
v 0.000000 -480.000000 -148.000000
v 0.000000 -556.000000 -92.000000
v 0.000000 -584.000000 -44.000000
v 0.000000 -596.000000 -24.000000
v -104.000000 -444.000000 24.000000
v -84.000000 -444.000000 48.000000
v -64.000000 -444.000000 80.000000
v -40.000000 -444.000000 92.000000
v -16.000000 -444.000000 100.000000
v 24.000000 -444.000000 100.000000
v 40.000000 -444.000000 88.000000
v 100.000000 -444.000000 52.000000
v 104.000000 -444.000000 24.000000
v 108.000000 -444.000000 -24.000000
v 100.000000 -444.000000 -52.000000
v 44.000000 -444.000000 -100.000000
v 16.000000 -444.000000 -108.000000
v -16.000000 -444.000000 -108.000000
v -40.000000 -444.000000 -96.000000
v -52.000000 -444.000000 -80.000000
v -92.000000 -444.000000 -44.000000
v -96.000000 -444.000000 -24.000000
vn 0.000000 0.000000 -1.000000
vn 0.000000 0.000000 -1.000000
vn 0.000000 0.000000 -1.000000
vn 0.000000 0.000000 -1.000000
vn 1.000000 0.000000 0.000000
vn 1.000000 0.000000 0.000000
vn 1.000000 0.000000 0.000000
vn 1.000000 0.000000 0.000000
vn 0.000000 0.000000 1.000000
vn 0.000000 0.000000 1.000000
vn 0.000000 0.000000 1.000000
vn 0.000000 0.000000 1.000000
vn 0.000000 0.000000 1.000000
vn 0.000000 0.000000 1.000000
vn 0.000000 0.000000 1.000000
vn 0.000000 0.000000 1.000000
vn 0.000000 0.000000 1.000000
vn 0.000000 0.000000 1.000000
vn 0.000000 0.000000 1.000000
vn 0.000000 0.000000 1.000000
vn 0.000000 0.000000 1.000000
vn 0.000000 0.000000 1.000000
vn 0.000000 0.000000 1.000000
vn 0.000000 0.000000 1.000000
vn -1.000000 0.000000 0.000000
vn -1.000000 0.000000 0.000000
vn -1.000000 0.000000 0.000000
vn -1.000000 0.000000 0.000000
vn -1.000000 0.000000 0.000000
vn -1.000000 0.000000 0.000000
vn -1.000000 0.000000 0.000000
vn -1.000000 0.000000 0.000000
vn -1.000000 0.000000 0.000000
vn -1.000000 0.000000 0.000000
vn -1.000000 0.000000 0.000000
vn -1.000000 0.000000 0.000000
vn -1.000000 0.000000 0.000000
vn -1.000000 0.000000 0.000000
vn -1.000000 0.000000 0.000000
vn -1.000000 0.000000 0.000000
vn 0.000000 1.000000 0.000000
vn 0.000000 1.000000 0.000000
vn 0.000000 1.000000 0.000000
vn 0.000000 1.000000 0.000000
vn 0.000000 1.000000 0.000000
vn 0.000000 1.000000 0.000000
vn 0.000000 1.000000 0.000000
vn 0.000000 1.000000 0.000000
vn 0.000000 1.000000 0.000000
vn 0.000000 1.000000 0.000000
vn 0.000000 1.000000 0.000000
vn 0.000000 1.000000 0.000000
vn 0.000000 1.000000 0.000000
vn 0.000000 1.000000 0.000000
vn 0.000000 1.000000 0.000000
vn 0.000000 1.000000 0.000000
usemtl material_0
f 6//1 1//1 5//1
f 5//2 1//2 2//2
f 5//3 2//3 4//3
f 4//4 2//4 3//4
f 8//5 9//5 11//5
f 8//6 11//6 12//6
f 8//7 12//7 7//7
f 11//8 9//8 10//8

usemtl material_1
f 13//9 14//9 15//9
f 13//10 15//10 16//10
f 13//11 16//11 17//11
f 13//12 17//12 18//12
f 13//13 18//13 19//13
f 13//14 19//14 20//14
f 13//15 20//15 21//15
f 13//16 21//16 22//16
f 13//17 22//17 23//17
f 13//18 23//18 24//18
f 13//19 24//19 25//19
f 13//20 25//20 26//20
f 13//21 26//21 27//21
f 13//22 27//22 28//22
f 13//23 28//23 29//23
f 13//24 29//24 30//24
f 39//25 40//25 38//25
f 38//26 40//26 41//26
f 38//27 41//27 37//27
f 37//28 41//28 42//28
f 37//29 42//29 36//29
f 36//30 42//30 43//30
f 36//31 43//31 35//31
f 35//32 43//32 44//32
f 35//33 44//33 45//33
f 47//34 32//34 46//34
f 46//35 32//35 33//35
f 46//36 33//36 45//36
f 45//37 33//37 34//37
f 45//38 34//38 35//38
f 48//39 31//39 32//39
f 48//40 32//40 47//40
f 65//41 66//41 58//41
f 58//42 66//42 49//42
f 58//43 49//43 57//43
f 57//44 49//44 50//44
f 57//45 50//45 56//45
f 56//46 50//46 51//46
f 56//47 51//47 55//47
f 55//48 51//48 52//48
f 55//49 52//49 54//49
f 54//50 52//50 53//50
f 59//51 60//51 63//51
f 59//52 63//52 64//52
f 59//53 64//53 65//53
f 59//54 65//54 58//54
f 61//55 62//55 63//55
f 61//56 63//56 60//56
# 56 faces, 0 coords texture

# End of File
