mtllib ./tre5.obj.mtl

v 15.000000 0.000000 0.000000
v 12.000000 -37.500000 0.000000
v 9.000000 -150.000000 0.000000
v 4.500000 -225.000000 0.000000
v 0.000000 -300.000000 0.000000
v -9.000000 -150.000000 0.000000
v -12.000000 -37.500000 0.000000
v -15.000000 0.000000 0.000000
v 0.000000 0.000000 15.000000
v 0.000000 -37.500000 12.000000
v 0.000000 -150.000000 9.000000
v 0.000000 -225.000000 4.500000
v 0.000000 -150.000000 -9.000000
v 0.000000 -37.500000 -12.000000
v 0.000000 0.000000 -15.000000
v 0.000000 -126.000000 0.000000
v 0.000000 -120.000000 0.000000
v 60.000000 -165.000000 60.000000
v -75.000000 -180.000000 30.000000
v 30.000000 -165.000000 -90.000000
v 0.000000 -168.000000 0.000000
v 0.000000 -172.500000 0.000000
v 34.500000 -195.000000 60.000000
v 0.000000 -156.000000 0.000000
v -30.000000 -210.000000 -64.500000
v 0.000000 -198.000000 0.000000
v 0.000000 -193.500000 0.000000
v 78.000000 -210.000000 -31.500000
v 0.000000 -171.000000 0.000000
v 0.000000 -165.000000 0.000000
v -64.500000 -225.000000 -75.000000
v 0.000000 -153.000000 0.000000
v 0.000000 -157.500000 0.000000
v -61.500000 -195.000000 96.000000
v 0.000000 -150.000000 0.000000
v 0.000000 -210.000000 52.500000
v 0.000000 -201.000000 0.000000
v 0.000000 -195.000000 0.000000
v 64.500000 -255.000000 75.000000
v -19.500000 -210.000000 60.000000
v 61.500000 -210.000000 -30.000000
v 0.000000 -231.000000 0.000000
v 0.000000 -225.000000 0.000000
v 0.000000 -270.000000 60.000000
v 0.000000 -285.000000 -30.000000
v 60.000000 -255.000000 -60.000000
vn 0.000000 0.000000 -1.000000
vn 0.000000 0.000000 -1.000000
vn 0.000000 0.000000 -1.000000
vn 0.000000 0.000000 -1.000000
vn 0.000000 0.000000 -1.000000
vn 0.000000 0.000000 -1.000000
vn 1.000000 0.000000 0.000000
vn 1.000000 0.000000 0.000000
vn 1.000000 0.000000 0.000000
vn 1.000000 0.000000 0.000000
vn 1.000000 0.000000 0.000000
vn 1.000000 0.000000 0.000000
vn 0.707107 0.000000 -0.707107
vn 0.371391 0.000000 0.928477
vn -0.948683 0.000000 -0.316228
vn -0.866906 0.000000 0.498471
vn 0.906721 0.000000 -0.421731
vn -0.374463 0.000000 -0.927242
vn -0.758185 0.000000 0.652039
vn -0.842032 0.000000 -0.539427
vn 1.000000 0.000000 0.000000
vn 0.758185 0.000000 -0.652039
vn 0.951034 0.000000 0.309086
vn -0.438424 0.000000 -0.898768
vn 1.000000 0.000000 0.000000
vn -1.000000 0.000000 0.000000
vn -0.707107 0.000000 -0.707107
usemtl material_0
f 2//1 3//1 4//1
f 2//2 4//2 5//2
f 2//3 5//3 6//3
f 2//4 6//4 1//4
f 7//5 8//5 1//5
f 7//6 1//6 6//6
f 12//7 13//7 11//7
f 11//8 13//8 14//8
f 11//9 14//9 10//9
f 10//10 14//10 15//10
f 10//11 15//11 9//11
f 13//12 12//12 5//12
f 16//13 17//13 18//13
f 16//14 17//14 19//14
f 16//15 17//15 20//15
f 21//16 22//16 23//16
f 24//17 22//17 25//17
f 26//18 27//18 28//18
f 29//19 30//19 31//19
f 32//20 33//20 34//20
f 24//21 35//21 36//21
f 37//22 38//22 39//22
f 24//23 35//23 40//23
f 24//24 35//24 41//24
f 42//25 43//25 44//25
f 42//26 43//26 45//26
f 42//27 43//27 46//27
# 27 faces, 0 coords texture

# End of File
