####
#
# OBJ File Generated by Meshlab
#
####
# Object drod.obj
#
# Vertices: 75
# Faces: 90
#
####
mtllib ./drod.obj.mtl

vn 0.000000 -1.000000 0.000000
vn 0.000000 -1.000000 0.000000
vn 0.000000 -1.000000 0.000000
vn 0.000000 -1.000000 0.000000
vn 0.000000 1.000000 0.000000
vn 0.000000 1.000000 0.000000
vn 0.000000 1.000000 0.000000
vn 0.000000 1.000000 0.000000
vn 0.000000 -1.000000 0.000000
vn 0.000000 -1.000000 0.000000
vn 0.000000 1.000000 0.000000
vn 0.000000 1.000000 0.000000
vn 0.000000 1.000000 0.000000
vn 0.000000 1.000000 0.000000
vn 0.000000 -1.000000 0.000000
vn 0.000000 -1.000000 0.000000
vn 0.000000 -1.000000 0.000000
vn 0.000000 -1.000000 0.000000
vn 0.000000 1.000000 0.000000
vn 0.000000 1.000000 0.000000
vn 0.000000 1.000000 0.000000
vn 0.000000 1.000000 0.000000
vn 0.000000 1.000000 0.000000
vn 0.000000 1.000000 0.000000
vn 0.000000 -1.000000 0.000000
vn 0.000000 -1.000000 0.000000
vn 0.000000 -1.000000 0.000000
vn 0.000000 -1.000000 0.000000
vn 0.000000 1.000000 0.000000
vn 0.000000 1.000000 0.000000
vn 0.000000 -1.000000 0.000000
vn 0.000000 -1.000000 0.000000
vn 0.000000 -1.000000 0.000000
vn 0.000000 -1.000000 0.000000
vn 0.000000 1.000000 0.000000
vn 0.000000 1.000000 0.000000
vn 0.000000 1.000000 0.000000
vn 0.000000 1.000000 0.000000
vn 0.000000 -1.000000 0.000000
vn 0.000000 -1.000000 0.000000
vn 0.000000 -1.000000 0.000000
vn 0.000000 -1.000000 0.000000
vn 0.000000 -1.000000 0.000000
vn 0.000000 -1.000000 0.000000
vn 0.000000 1.000000 0.000000
vn 0.000000 1.000000 0.000000
vn 0.000000 1.000000 0.000000
vn 0.000000 1.000000 0.000000
vn 0.000000 -1.000000 0.000000
vn 0.000000 -1.000000 0.000000
vn 0.000000 -1.000000 0.000000
vn 0.000000 -1.000000 0.000000
vn 0.000000 1.000000 0.000000
vn 0.000000 1.000000 0.000000
vn 0.000000 -1.000000 0.000000
vn 0.000000 -1.000000 0.000000
vn 0.000000 -1.000000 0.000000
vn 0.000000 -1.000000 0.000000
vn 0.000000 1.000000 0.000000
vn 0.000000 1.000000 0.000000
vn 0.000000 1.000000 0.000000
vn 0.000000 1.000000 0.000000
vn 0.000000 -1.000000 0.000000
vn 0.000000 -1.000000 0.000000
vn 0.000000 -1.000000 0.000000
vn 0.000000 -1.000000 0.000000
vn 0.000000 -1.000000 0.000000
vn 0.000000 -1.000000 0.000000
vn 0.000000 1.000000 0.000000
vn 0.000000 1.000000 0.000000
vn 0.000000 -1.000000 0.000000
vn 0.000000 -1.000000 0.000000
vn 0.000000 1.000000 0.000000
vn 0.000000 1.000000 0.000000
vn 0.000000 1.000000 0.000000
vn 0.000000 1.000000 0.000000
vn 0.000000 -1.000000 0.000000
vn 0.000000 -1.000000 0.000000
vn 0.000000 -1.000000 0.000000
vn 0.000000 -1.000000 0.000000
vn 0.000000 1.000000 0.000000
vn 0.000000 1.000000 0.000000
vn 0.000000 1.000000 0.000000
vn 0.000000 1.000000 0.000000
vn 0.000000 1.000000 0.000000
vn 0.000000 1.000000 0.000000
vn 0.000000 -1.000000 0.000000
vn 0.000000 -1.000000 0.000000
vn 0.000000 1.000000 0.000000
vn 0.000000 1.000000 0.000000
@
v 140.000000 0.000000 -2240.000000
@
v 70.000000 0.000000 -2800.000000
@
v 840.000000 0.000000 -2800.000000
@
v 910.000000 0.000000 -2240.000000
@
v -910.000000 0.000000 -2240.000000
@
v -840.000000 0.000000 -2800.000000
@
v -70.000000 0.000000 -1680.000000
@
v 770.000000 0.000000 -1680.000000
@
v -770.000000 0.000000 -1680.000000
@
v 0.000000 0.000000 -1120.000000
@
v 840.000000 0.000000 -1120.000000
@
v -840.000000 0.000000 -1120.000000
@
v -770.000000 0.000000 -560.000000
@
v -140.000000 0.000000 -560.000000
@
v 840.000000 0.000000 -560.000000
@
v -840.000000 0.000000 0.000000
@
v -70.000000 0.000000 0.000000
@
v 700.000000 0.000000 0.000000
@
v -770.000000 0.000000 560.000000
@
v 0.000000 0.000000 560.000000
@
v 700.000000 0.000000 560.000000
@
v -700.000000 0.000000 1120.000000
@
v 0.000000 0.000000 1120.000000
@
v 910.000000 0.000000 1120.000000
@
v -770.000000 0.000000 1680.000000
@
v -70.000000 0.000000 1680.000000
@
v 840.000000 0.000000 1680.000000
@
v -910.000000 0.000000 2240.000000
@
v 140.000000 0.000000 2240.000000
@
v 770.000000 0.000000 2240.000000
@
v -840.000000 0.000000 2800.000000
@
v 70.000000 0.000000 2800.000000
@
v 840.000000 0.000000 2800.000000
@
v 1260.000000 0.000000 2240.000000
@
v 1190.000000 0.000000 2800.000000
@
v 1260.000000 0.000000 1680.000000
@
v 1190.000000 0.000000 1120.000000
@
v 1120.000000 0.000000 560.000000
@
v 1190.000000 0.000000 0.000000
@
v 1260.000000 0.000000 -2240.000000
@
v 1190.000000 0.000000 -2800.000000
@
v 1120.000000 0.000000 -1680.000000
@
v 1190.000000 0.000000 -1120.000000
@
v 1190.000000 0.000000 -560.000000
@
v -1120.000000 0.000000 2240.000000
@
v -1190.000000 0.000000 2800.000000
@
v -1190.000000 0.000000 1680.000000
@
v -1120.000000 0.000000 1120.000000
@
v -1260.000000 0.000000 560.000000
@
v -1190.000000 0.000000 0.000000
@
v -1120.000000 0.000000 -2240.000000
@
v -1190.000000 0.000000 -2800.000000
@
v -1120.000000 0.000000 -1680.000000
@
v -1260.000000 0.000000 -1120.000000
@
v -1260.000000 0.000000 -560.000000
@
v -20.000000 0.000000 280.000000
@
v -20.000000 0.000000 -280.000000
@
v 20.000000 0.000000 -280.000000
@
v 20.000000 0.000000 280.000000
@
v -20.000000 0.000000 1400.000000
@
v -20.000000 0.000000 840.000000
@
v 20.000000 0.000000 840.000000
@
v 20.000000 0.000000 1400.000000
@
v -20.000000 0.000000 -1400.000000
@
v -20.000000 0.000000 -840.000000
@
v 20.000000 0.000000 -840.000000
@
v 20.000000 0.000000 -1400.000000
@
v -20.000000 0.000000 1960.000000
@
v -20.000000 0.000000 2520.000000
@
v 20.000000 0.000000 2520.000000
@
v 20.000000 0.000000 1960.000000
@
v -20.000000 0.000000 -1960.000000
@
v -20.000000 0.000000 -2520.000000
@
v 20.000000 0.000000 -2520.000000
@
v 20.000000 0.000000 -1960.000000
# 75 vertices, 0 vertices normals


usemtl material_0
f 34//1 35//1 33//1
f 33//2 30//2 34//2
f 36//3 34//3 30//3
f 30//4 27//4 36//4
f 36//5 37//5 24//5
f 24//6 27//6 36//6
f 37//7 38//7 21//7
f 21//8 24//8 37//8
f 39//9 38//9 21//9
f 21//10 18//10 39//10
f 40//11 41//11 3//11
f 3//12 4//12 40//12
f 42//13 40//13 4//13
f 4//14 8//14 42//14
f 42//15 43//15 11//15
f 11//16 8//16 42//16
f 43//17 44//17 15//17
f 15//18 11//18 43//18
f 39//19 44//19 15//19
f 15//20 18//20 39//20
f 45//21 46//21 31//21
f 31//22 28//22 45//22
f 47//23 45//23 28//23
f 28//24 25//24 47//24
f 47//25 48//25 22//25
f 22//26 25//26 47//26
f 48//27 49//27 19//27
f 19//28 22//28 48//28
f 50//29 49//29 19//29
f 19//30 16//30 50//30
f 51//31 52//31 6//31
f 6//32 5//32 51//32
f 53//33 51//33 5//33
f 5//34 9//34 53//34
f 53//35 54//35 12//35
f 12//36 9//36 53//36
f 54//37 55//37 13//37
f 13//38 12//38 54//38
f 50//39 55//39 13//39
f 13//40 16//40 50//40

usemtl material_1
f 56//41 57//41 58//41
f 58//42 59//42 56//42
f 60//43 61//43 62//43
f 62//44 63//44 60//44
f 64//45 65//45 66//45
f 66//46 67//46 64//46
f 68//47 69//47 70//47
f 70//48 71//48 68//48
f 72//49 73//49 74//49
f 74//50 75//50 72//50

usemtl material_2
f 1//51 2//51 3//51
f 3//52 4//52 1//52
f 1//53 7//53 8//53
f 8//54 4//54 1//54
f 10//55 7//55 8//55
f 8//56 11//56 10//56
f 12//57 9//57 7//57
f 7//58 10//58 12//58
f 12//59 13//59 14//59
f 14//60 10//60 12//60
f 16//61 19//61 20//61
f 20//62 17//62 16//62
f 22//63 19//63 20//63
f 20//64 23//64 22//64
f 23//65 20//65 21//65
f 21//66 24//66 23//66
f 28//67 25//67 26//67
f 26//68 29//68 28//68
f 28//69 31//69 32//69
f 32//70 29//70 28//70

usemtl material_3
f 5//71 6//71 2//71
f 2//72 1//72 5//72
f 5//73 9//73 7//73
f 7//74 1//74 5//74
f 10//75 14//75 15//75
f 15//76 11//76 10//76
f 16//77 13//77 14//77
f 14//78 17//78 16//78
f 17//79 14//79 15//79
f 15//80 18//80 17//80
f 17//81 20//81 21//81
f 21//82 18//82 17//82
f 22//83 25//83 26//83
f 26//84 23//84 22//84
f 23//85 26//85 27//85
f 27//86 24//86 23//86
f 29//87 26//87 27//87
f 27//88 30//88 29//88
f 29//89 32//89 33//89
f 33//90 30//90 29//90
# 90 faces, 0 coords texture

# End of File
