####
#
# OBJ File Generated by Meshlab
#
####
# Object pile2.obj
#
# Vertices: 16
# Faces: 22
#
####
mtllib ./pile2.obj.mtl

vn -0.060685 -0.916911 -0.394452
vn 0.116422 -0.975944 -0.184335
vn 0.034588 -0.821064 -0.569787
vn -0.070026 -0.948627 -0.308550
vn 0.461656 -0.587050 -0.665016
vn -0.499895 -0.861436 0.089623
vn -0.207396 -0.973200 -0.099341
vn -0.535538 -0.844284 -0.019571
vn -0.712916 -0.701247 -0.002037
vn -0.562214 -0.825711 0.046007
vn 0.224675 0.806967 -0.546192
vn -0.056837 0.913312 -0.403274
vn -0.071105 0.926063 -0.370610
vn -0.091915 0.823125 -0.560373
vn -0.505094 -0.030264 -0.862534
vn 0.253242 0.948905 -0.188277
vn -0.085216 0.990304 0.109713
vn -0.682557 0.724793 -0.093758
vn -0.496393 0.862160 0.101358
vn -0.672056 0.737062 0.071283
vn -0.685802 0.723871 0.075405
vn -0.625979 0.779799 0.008025
@
v -142.000000 -94.000000 234.000000
@
v -290.000000 0.000000 312.000000
@
v -8.000000 0.000000 428.000000
@
v 290.000000 0.000000 386.000000
@
v 228.000000 -84.000000 188.000000
@
v 122.000000 -168.000000 82.000000
@
v -10.000000 -188.000000 160.000000
@
v 340.000000 0.000000 22.000000
@
v 262.000000 0.000000 -360.000000
@
v 148.000000 -120.000000 -194.000000
@
v 106.000000 -180.000000 0.000000
@
v -170.000000 -64.000000 -294.000000
@
v -266.000000 0.000000 -428.000000
@
v 72.000000 0.000000 -480.000000
@
v -76.000000 -160.000000 -144.000000
@
v -380.000000 0.000000 -190.000000
# 16 vertices, 0 vertices normals


usemtl material_0
f 12//1 13//1 14//1
f 12//2 14//2 9//2
f 12//3 9//3 10//3
f 12//4 10//4 11//4
f 12//5 11//5 15//5

usemtl material_1
f 1//6 2//6 16//6
f 1//7 16//7 13//7
f 1//8 13//8 12//8
f 1//9 12//9 15//9
f 1//10 15//10 7//10

usemtl material_2
f 1//11 2//11 3//11
f 1//12 3//12 4//12
f 1//13 4//13 5//13
f 1//14 5//14 6//14
f 1//15 6//15 7//15
f 6//16 11//16 15//16
f 15//17 7//17 6//17

usemtl material_3
f 5//18 4//18 8//18
f 5//19 8//19 9//19
f 5//20 9//20 10//20
f 5//21 10//21 11//21
f 5//22 11//22 6//22
# 22 faces, 0 coords texture

# End of File
