####
#
# OBJ File Generated by Meshlab
#
####
# Object prmpup.obj
#
# Vertices: 147
# Faces: 162
#
####
mtllib ./prmpup.obj.mtl

vn 0.000000 0.000000 -1.000000
vn 0.000000 0.000000 -1.000000
vn 0.000000 0.000000 1.000000
vn 0.000000 0.000000 1.000000
vn 0.000000 0.000000 -1.000000
vn 0.000000 0.000000 -1.000000
vn 0.000000 0.000000 1.000000
vn 0.000000 0.000000 1.000000
vn 0.000000 0.000000 1.000000
vn 0.000000 0.000000 1.000000
vn 0.000000 0.000000 -1.000000
vn 0.000000 0.000000 -1.000000
vn 0.000000 0.000000 1.000000
vn 0.000000 0.000000 1.000000
vn 0.000000 0.000000 -1.000000
vn 0.000000 0.000000 -1.000000
vn 0.000000 -1.000000 0.000000
vn 0.000000 -1.000000 0.000000
vn 0.000000 -1.000000 0.000000
vn 0.000000 -1.000000 0.000000
vn 0.000000 1.000000 0.000000
vn 0.000000 1.000000 0.000000
vn 0.000000 1.000000 0.000000
vn 0.000000 1.000000 0.000000
vn 0.000000 1.000000 0.000000
vn 0.000000 1.000000 0.000000
vn 0.000000 1.000000 0.000000
vn 0.000000 1.000000 0.000000
vn 0.000000 -1.000000 0.000000
vn 0.000000 -1.000000 0.000000
vn 0.000000 -1.000000 0.000000
vn 0.000000 -1.000000 0.000000
vn 0.000000 -1.000000 0.000000
vn 0.000000 -1.000000 0.000000
vn 0.000000 -1.000000 0.000000
vn 0.000000 -1.000000 0.000000
vn 0.000000 1.000000 0.000000
vn 0.000000 1.000000 0.000000
vn 0.000000 1.000000 0.000000
vn 0.000000 1.000000 0.000000
vn 0.000000 1.000000 0.000000
vn 0.000000 1.000000 0.000000
vn 0.000000 1.000000 0.000000
vn 0.000000 1.000000 0.000000
vn 0.000000 -1.000000 0.000000
vn 0.000000 -1.000000 0.000000
vn 0.000000 -1.000000 0.000000
vn 0.000000 -1.000000 0.000000
vn 0.000000 -1.000000 0.000000
vn 0.000000 -1.000000 0.000000
vn 0.000000 -1.000000 0.000000
vn 0.000000 -1.000000 0.000000
vn 0.000000 1.000000 0.000000
vn 0.000000 1.000000 0.000000
vn 0.000000 1.000000 0.000000
vn 0.000000 1.000000 0.000000
vn 0.000000 -1.000000 0.000000
vn 0.000000 -1.000000 0.000000
vn 0.000000 -1.000000 0.000000
vn 0.000000 -1.000000 0.000000
vn 0.000000 1.000000 0.000000
vn 0.000000 1.000000 0.000000
vn 0.000000 1.000000 0.000000
vn 0.000000 1.000000 0.000000
vn 0.000000 -1.000000 0.000000
vn 0.000000 -1.000000 0.000000
vn 0.000000 1.000000 0.000000
vn 0.000000 1.000000 0.000000
vn 0.000000 -1.000000 0.000000
vn 0.000000 -1.000000 0.000000
vn 0.000000 1.000000 0.000000
vn 0.000000 1.000000 0.000000
vn 0.000000 -1.000000 0.000000
vn 0.000000 -1.000000 0.000000
vn 0.000000 -1.000000 0.000000
vn 0.000000 -1.000000 0.000000
vn 0.000000 -1.000000 0.000000
vn 0.000000 -1.000000 0.000000
vn 0.000000 1.000000 0.000000
vn 0.000000 1.000000 0.000000
vn -1.000000 0.000000 0.000000
vn -1.000000 0.000000 0.000000
vn 1.000000 0.000000 0.000000
vn 1.000000 0.000000 0.000000
vn -1.000000 0.000000 0.000000
vn -1.000000 0.000000 0.000000
vn 1.000000 0.000000 0.000000
vn 1.000000 0.000000 0.000000
vn 1.000000 0.000000 0.000000
vn 1.000000 0.000000 0.000000
vn -1.000000 0.000000 0.000000
vn -1.000000 0.000000 0.000000
vn 1.000000 0.000000 0.000000
vn 1.000000 0.000000 0.000000
vn 1.000000 0.000000 0.000000
vn 1.000000 0.000000 0.000000
vn 1.000000 0.000000 0.000000
vn 1.000000 0.000000 0.000000
vn -1.000000 0.000000 0.000000
vn -1.000000 0.000000 0.000000
vn 1.000000 0.000000 0.000000
vn 1.000000 0.000000 0.000000
vn -1.000000 0.000000 0.000000
vn -1.000000 0.000000 0.000000
vn -1.000000 0.000000 0.000000
vn -1.000000 0.000000 0.000000
vn 1.000000 0.000000 0.000000
vn 1.000000 0.000000 0.000000
vn -1.000000 0.000000 0.000000
vn -1.000000 0.000000 0.000000
vn -1.000000 0.000000 0.000000
vn -1.000000 0.000000 0.000000
vn -1.000000 0.000000 0.000000
vn -1.000000 0.000000 0.000000
vn 1.000000 0.000000 0.000000
vn 1.000000 0.000000 0.000000
vn -1.000000 0.000000 0.000000
vn -1.000000 0.000000 0.000000
vn 1.000000 0.000000 0.000000
vn 1.000000 0.000000 0.000000
vn 1.000000 0.000000 0.000000
vn 1.000000 0.000000 0.000000
vn -1.000000 0.000000 0.000000
vn -1.000000 0.000000 0.000000
vn 1.000000 0.000000 0.000000
vn 1.000000 0.000000 0.000000
vn 1.000000 0.000000 0.000000
vn 1.000000 0.000000 0.000000
vn 1.000000 0.000000 0.000000
vn 1.000000 0.000000 0.000000
vn -1.000000 0.000000 0.000000
vn -1.000000 0.000000 0.000000
vn 1.000000 0.000000 0.000000
vn 1.000000 0.000000 0.000000
vn -1.000000 0.000000 0.000000
vn -1.000000 0.000000 0.000000
vn -1.000000 0.000000 0.000000
vn -1.000000 0.000000 0.000000
vn 1.000000 0.000000 0.000000
vn 1.000000 0.000000 0.000000
vn -1.000000 0.000000 0.000000
vn -1.000000 0.000000 0.000000
vn -1.000000 0.000000 0.000000
vn -1.000000 0.000000 0.000000
vn 0.000000 -1.000000 0.000000
vn 0.000000 -1.000000 0.000000
vn 0.000000 -1.000000 0.000000
vn 0.000000 -1.000000 0.000000
vn 0.000000 1.000000 0.000000
vn 0.000000 1.000000 0.000000
vn 0.000000 -1.000000 0.000000
vn 0.000000 -1.000000 0.000000
vn 0.000000 1.000000 0.000000
vn 0.000000 1.000000 0.000000
vn 0.000000 1.000000 0.000000
vn 0.000000 1.000000 0.000000
vn 0.000000 1.000000 0.000000
vn 0.000000 1.000000 0.000000
vn 0.000000 -1.000000 0.000000
vn 0.000000 -1.000000 0.000000
vn 0.000000 1.000000 0.000000
vn 0.000000 1.000000 0.000000
@
v 0.000000 -583.000000 -2240.000000
@
v 0.000000 -583.000000 -2800.000000
@
v 700.000000 -583.000000 -2800.000000
@
v 700.000000 -583.000000 -2240.000000
@
v -700.000000 -583.000000 -2240.000000
@
v -700.000000 -583.000000 -2800.000000
@
v 0.000000 -583.000000 -1680.000000
@
v 700.000000 -583.000000 -1680.000000
@
v -700.000000 -583.000000 -1680.000000
@
v 0.000000 -583.000000 -1120.000000
@
v 700.000000 -583.000000 -1120.000000
@
v -700.000000 -583.000000 -1120.000000
@
v -700.000000 -583.000000 -560.000000
@
v 0.000000 -583.000000 -560.000000
@
v 700.000000 -583.000000 -560.000000
@
v -700.000000 -583.000000 0.000000
@
v 0.000000 -583.000000 0.000000
@
v 700.000000 -583.000000 0.000000
@
v -700.000000 -583.000000 560.000000
@
v 0.000000 -583.000000 560.000000
@
v 700.000000 -583.000000 560.000000
@
v -700.000000 -583.000000 1120.000000
@
v 0.000000 -583.000000 1120.000000
@
v 700.000000 -583.000000 1120.000000
@
v -700.000000 -583.000000 1680.000000
@
v 0.000000 -583.000000 1680.000000
@
v 700.000000 -583.000000 1680.000000
@
v -700.000000 -583.000000 2240.000000
@
v 0.000000 -583.000000 2240.000000
@
v 700.000000 -583.000000 2240.000000
@
v -700.000000 -583.000000 2800.000000
@
v 0.000000 -583.000000 2800.000000
@
v 700.000000 -583.000000 2800.000000
@
v -700.000000 -500.000000 2800.000000
@
v -700.000000 -500.000000 2240.000000
@
v -700.000000 -500.000000 1680.000000
@
v -700.000000 -150.000000 2240.000000
@
v -700.000000 -150.000000 2800.000000
@
v -700.000000 0.000000 2800.000000
@
v -700.000000 0.000000 2240.000000
@
v -700.000000 -150.000000 1680.000000
@
v -700.000000 0.000000 1680.000000
@
v -700.000000 0.000000 1120.000000
@
v -700.000000 0.000000 560.000000
@
v -700.000000 -500.000000 0.000000
@
v -700.000000 -500.000000 560.000000
@
v -700.000000 -150.000000 560.000000
@
v -700.000000 -150.000000 0.000000
@
v -700.000000 0.000000 0.000000
@
v -700.000000 -500.000000 -2800.000000
@
v -700.000000 -500.000000 -2240.000000
@
v -700.000000 -500.000000 -1680.000000
@
v -700.000000 -150.000000 -2240.000000
@
v -700.000000 -150.000000 -2800.000000
@
v -700.000000 0.000000 -2800.000000
@
v -700.000000 0.000000 -2240.000000
@
v -700.000000 -150.000000 -1680.000000
@
v -700.000000 0.000000 -1680.000000
@
v -700.000000 0.000000 -1120.000000
@
v -700.000000 0.000000 -560.000000
@
v -700.000000 -500.000000 -560.000000
@
v -700.000000 -150.000000 -560.000000
@
v 700.000000 -500.000000 2800.000000
@
v 700.000000 -500.000000 2240.000000
@
v 700.000000 -500.000000 1680.000000
@
v 700.000000 -150.000000 2240.000000
@
v 700.000000 -150.000000 2800.000000
@
v 700.000000 0.000000 2800.000000
@
v 700.000000 0.000000 2240.000000
@
v 700.000000 -150.000000 1680.000000
@
v 700.000000 0.000000 1680.000000
@
v 700.000000 0.000000 1120.000000
@
v 700.000000 0.000000 560.000000
@
v 700.000000 -500.000000 0.000000
@
v 700.000000 -500.000000 560.000000
@
v 700.000000 -150.000000 560.000000
@
v 700.000000 -150.000000 0.000000
@
v 700.000000 0.000000 0.000000
@
v 700.000000 -500.000000 -2800.000000
@
v 700.000000 -500.000000 -2240.000000
@
v 700.000000 -500.000000 -1680.000000
@
v 700.000000 -150.000000 -2240.000000
@
v 700.000000 -150.000000 -2800.000000
@
v 700.000000 0.000000 -2800.000000
@
v 700.000000 0.000000 -2240.000000
@
v 700.000000 -150.000000 -1680.000000
@
v 700.000000 0.000000 -1680.000000
@
v 700.000000 0.000000 -1120.000000
@
v 700.000000 0.000000 -560.000000
@
v 700.000000 -500.000000 -560.000000
@
v 700.000000 -150.000000 -560.000000
@
v 0.000000 0.000000 2800.000000
@
v 0.000000 -150.000000 2800.000000
@
v 0.000000 0.000000 -2800.000000
@
v 0.000000 -150.000000 -2800.000000
@
v 0.000000 -500.000000 -2800.000000
@
v 0.000000 -500.000000 2800.000000
@
v 840.000000 0.000000 -2100.000000
@
v 840.000000 0.000000 -2800.000000
@
v 700.000000 0.000000 -2100.000000
@
v 840.000000 0.000000 -1400.000000
@
v 700.000000 0.000000 -1400.000000
@
v 840.000000 0.000000 -700.000000
@
v 700.000000 0.000000 -700.000000
@
v 840.000000 0.000000 0.000000
@
v 840.000000 0.000000 2100.000000
@
v 840.000000 0.000000 2800.000000
@
v 700.000000 0.000000 2100.000000
@
v 840.000000 0.000000 1400.000000
@
v 700.000000 0.000000 1400.000000
@
v 840.000000 0.000000 700.000000
@
v 700.000000 0.000000 700.000000
@
v -840.000000 0.000000 -2100.000000
@
v -840.000000 0.000000 -2800.000000
@
v -700.000000 0.000000 -2100.000000
@
v -840.000000 0.000000 -1400.000000
@
v -700.000000 0.000000 -1400.000000
@
v -840.000000 0.000000 -700.000000
@
v -700.000000 0.000000 -700.000000
@
v -840.000000 0.000000 0.000000
@
v -840.000000 0.000000 2100.000000
@
v -840.000000 0.000000 2800.000000
@
v -700.000000 0.000000 2100.000000
@
v -840.000000 0.000000 1400.000000
@
v -700.000000 0.000000 1400.000000
@
v -840.000000 0.000000 700.000000
@
v -700.000000 0.000000 700.000000
@
v -20.000000 -583.000000 280.000000
@
v -20.000000 -583.000000 -280.000000
@
v 20.000000 -583.000000 -280.000000
@
v 20.000000 -583.000000 280.000000
@
v -20.000000 -583.000000 1400.000000
@
v -20.000000 -583.000000 840.000000
@
v 20.000000 -583.000000 840.000000
@
v 20.000000 -583.000000 1400.000000
@
v -20.000000 -583.000000 -1400.000000
@
v -20.000000 -583.000000 -840.000000
@
v 20.000000 -583.000000 -840.000000
@
v 20.000000 -583.000000 -1400.000000
@
v -20.000000 -583.000000 1960.000000
@
v -20.000000 -583.000000 2520.000000
@
v 20.000000 -583.000000 2520.000000
@
v 20.000000 -583.000000 1960.000000
@
v -20.000000 -583.000000 -1960.000000
@
v -20.000000 -583.000000 -2520.000000
@
v 20.000000 -583.000000 -2520.000000
@
v 20.000000 -583.000000 -1960.000000
# 147 vertices, 0 vertices normals


usemtl material_0
f 38//1 39//1 92//1
f 92//2 93//2 38//2
f 67//3 68//3 92//3
f 92//4 93//4 67//4
f 54//5 55//5 94//5
f 94//6 95//6 54//6
f 83//7 84//7 94//7
f 94//8 95//8 83//8
f 50//9 6//9 2//9
f 2//10 96//10 50//10
f 79//11 3//11 2//11
f 2//12 96//12 79//12
f 34//13 31//13 32//13
f 32//14 97//14 34//14
f 63//15 33//15 32//15
f 32//16 97//16 63//16

usemtl material_1
f 106//17 107//17 68//17
f 68//18 108//18 106//18
f 109//19 106//19 108//19
f 108//20 110//20 109//20
f 109//21 111//21 112//21
f 112//22 110//22 109//22
f 111//23 105//23 78//23
f 78//24 112//24 111//24
f 98//25 99//25 84//25
f 84//26 100//26 98//26
f 101//27 98//27 100//27
f 100//28 102//28 101//28
f 101//29 103//29 104//29
f 104//30 102//30 101//30
f 103//31 105//31 78//31
f 78//32 104//32 103//32
f 113//33 114//33 55//33
f 55//34 115//34 113//34
f 116//35 113//35 115//35
f 115//36 117//36 116//36
f 116//37 118//37 119//37
f 119//38 117//38 116//38
f 118//39 120//39 49//39
f 49//40 119//40 118//40
f 121//41 122//41 39//41
f 39//42 123//42 121//42
f 124//43 121//43 123//43
f 123//44 125//44 124//44
f 124//45 126//45 127//45
f 127//46 125//46 124//46
f 126//47 120//47 49//47
f 49//48 127//48 126//48
f 128//49 129//49 130//49
f 130//50 131//50 128//50
f 132//51 133//51 134//51
f 134//52 135//52 132//52
f 136//53 137//53 138//53
f 138//54 139//54 136//54
f 140//55 141//55 142//55
f 142//56 143//56 140//56
f 144//57 145//57 146//57
f 146//58 147//58 144//58

usemtl material_2
f 1//59 2//59 3//59
f 3//60 4//60 1//60
f 1//61 7//61 8//61
f 8//62 4//62 1//62
f 5//63 9//63 7//63
f 7//64 1//64 5//64
f 12//65 9//65 7//65
f 7//66 10//66 12//66
f 12//67 13//67 14//67
f 14//68 10//68 12//68
f 17//69 14//69 15//69
f 15//70 18//70 17//70
f 16//71 19//71 20//71
f 20//72 17//72 16//72
f 22//73 19//73 20//73
f 20//74 23//74 22//74
f 23//75 20//75 21//75
f 21//76 24//76 23//76
f 29//77 26//77 27//77
f 27//78 30//78 29//78
f 28//79 31//79 32//79
f 32//80 29//80 28//80
f 28//81 31//81 34//81
f 34//82 35//82 28//82
f 28//83 25//83 36//83
f 36//84 35//84 28//84
f 37//85 38//85 39//85
f 39//86 40//86 37//86
f 37//87 41//87 42//87
f 42//88 40//88 37//88
f 25//89 22//89 43//89
f 43//90 42//90 25//90
f 19//91 22//91 43//91
f 43//92 44//92 19//92
f 19//93 16//93 45//93
f 45//94 46//94 19//94
f 47//95 48//95 49//95
f 49//96 44//96 47//96
f 5//97 6//97 50//97
f 50//98 51//98 5//98
f 5//99 9//99 52//99
f 52//100 51//100 5//100
f 53//101 54//101 55//101
f 55//102 56//102 53//102
f 53//103 57//103 58//103
f 58//104 56//104 53//104
f 9//105 12//105 59//105
f 59//106 58//106 9//106
f 13//107 12//107 59//107
f 59//108 60//108 13//108
f 13//109 16//109 45//109
f 45//110 61//110 13//110
f 62//111 48//111 49//111
f 49//112 60//112 62//112
f 30//113 33//113 63//113
f 63//114 64//114 30//114
f 30//115 27//115 65//115
f 65//116 64//116 30//116
f 66//117 67//117 68//117
f 68//118 69//118 66//118
f 66//119 70//119 71//119
f 71//120 69//120 66//120
f 27//121 24//121 72//121
f 72//122 71//122 27//122
f 21//123 24//123 72//123
f 72//124 73//124 21//124
f 21//125 18//125 74//125
f 74//126 75//126 21//126
f 76//127 77//127 78//127
f 78//128 73//128 76//128
f 4//129 3//129 79//129
f 79//130 80//130 4//130
f 4//131 8//131 81//131
f 81//132 80//132 4//132
f 82//133 83//133 84//133
f 84//134 85//134 82//134
f 82//135 86//135 87//135
f 87//136 85//136 82//136
f 8//137 11//137 88//137
f 88//138 87//138 8//138
f 15//139 11//139 88//139
f 88//140 89//140 15//140
f 15//141 18//141 74//141
f 74//142 90//142 15//142
f 91//143 77//143 78//143
f 78//144 89//144 91//144

usemtl material_3
f 5//145 6//145 2//145
f 2//146 1//146 5//146
f 10//147 7//147 8//147
f 8//148 11//148 10//148
f 10//149 14//149 15//149
f 15//150 11//150 10//150
f 16//151 13//151 14//151
f 14//152 17//152 16//152
f 17//153 20//153 21//153
f 21//154 18//154 17//154
f 22//155 25//155 26//155
f 26//156 23//156 22//156
f 23//157 26//157 27//157
f 27//158 24//158 23//158
f 28//159 25//159 26//159
f 26//160 29//160 28//160
f 29//161 32//161 33//161
f 33//162 30//162 29//162
# 162 faces, 0 coords texture

# End of File
