####
#
# OBJ File Generated by Meshlab
#
####
# Object prodt.obj
#
# Vertices: 42
# Faces: 49
#
####
mtllib ./prodt.obj.mtl

vn 0.000000 1.000000 0.000000
vn 0.000000 1.000000 0.000000
vn 0.000000 -1.000000 0.000000
vn 0.000000 -1.000000 0.000000
vn 0.000000 1.000000 0.000000
vn 0.000000 1.000000 0.000000
vn 0.000000 -1.000000 0.000000
vn 0.000000 -1.000000 0.000000
vn 0.000000 -1.000000 0.000000
vn 0.000000 -1.000000 0.000000
vn 0.000000 1.000000 0.000000
vn 0.000000 1.000000 0.000000
vn 0.000000 -1.000000 0.000000
vn 0.000000 -1.000000 0.000000
vn 0.000000 1.000000 0.000000
vn 0.000000 1.000000 0.000000
vn 0.000000 -1.000000 0.000000
vn 0.000000 -1.000000 0.000000
vn 0.000000 -1.000000 0.000000
vn 0.000000 -1.000000 0.000000
vn 0.000000 -1.000000 0.000000
vn 0.000000 -1.000000 0.000000
vn 0.000000 1.000000 0.000000
vn 0.000000 1.000000 0.000000
vn 0.000000 -1.000000 0.000000
vn 0.000000 -1.000000 0.000000
vn 0.000000 -1.000000 0.000000
vn 0.000000 -1.000000 0.000000
vn 0.000000 1.000000 0.000000
vn 0.000000 1.000000 0.000000
vn 0.000000 1.000000 0.000000
vn 0.000000 -1.000000 0.000000
vn 0.000000 1.000000 0.000000
vn 0.000000 -1.000000 0.000000
vn 0.000000 1.000000 0.000000
vn 0.000000 -1.000000 0.000000
vn 0.000000 -1.000000 0.000000
vn 0.000000 -1.000000 0.000000
vn 0.000000 -1.000000 0.000000
vn 0.000000 1.000000 0.000000
vn 0.000000 1.000000 0.000000
vn 0.000000 -1.000000 0.000000
vn 0.000000 -1.000000 0.000000
vn 0.000000 1.000000 0.000000
vn 0.000000 1.000000 0.000000
vn 0.000000 1.000000 0.000000
vn 0.000000 1.000000 0.000000
vn 0.000000 1.000000 0.000000
vn 0.000000 1.000000 0.000000
@
v -700.000000 0.000000 -1050.000000
@
v -700.000000 0.000000 -1750.000000
@
v 0.000000 0.000000 -1750.000000
@
v 0.000000 0.000000 -1050.000000
@
v 700.000000 0.000000 -1050.000000
@
v 700.000000 0.000000 -1750.000000
@
v -350.000000 0.000000 -490.000000
@
v 0.000000 0.000000 -490.000000
@
v 350.000000 0.000000 -490.000000
@
v 0.000000 0.000000 0.000000
@
v 490.000000 0.000000 -350.000000
@
v 1050.000000 0.000000 -700.000000
@
v 490.000000 0.000000 0.000000
@
v 490.000000 0.000000 350.000000
@
v 1050.000000 0.000000 700.000000
@
v 1050.000000 0.000000 0.000000
@
v 1750.000000 0.000000 0.000000
@
v 1750.000000 0.000000 700.000000
@
v 1750.000000 0.000000 -700.000000
@
v -840.000000 0.000000 -1750.000000
@
v -840.000000 0.000000 -1050.000000
@
v 840.000000 0.000000 -1750.000000
@
v 840.000000 0.000000 -1050.000000
@
v -560.000000 0.000000 -490.000000
@
v -140.000000 0.000000 140.000000
@
v 1050.000000 0.000000 840.000000
@
v 490.000000 0.000000 560.000000
@
v 1050.000000 0.000000 -840.000000
@
v 1750.000000 0.000000 -840.000000
@
v 1750.000000 0.000000 840.000000
@
v -20.000000 0.000000 -1035.000000
@
v -20.000000 0.000000 -1470.000000
@
v 20.000000 0.000000 -1470.000000
@
v 20.000000 0.000000 -1050.000000
@
v 1050.000000 0.000000 -20.000000
@
v 1470.000000 0.000000 -20.000000
@
v 1470.000000 0.000000 20.000000
@
v 1035.000000 0.000000 20.000000
@
v 213.000000 0.000000 -585.000000
@
v 250.000000 0.000000 -600.000000
@
v 585.000000 0.000000 -213.000000
@
v 600.000000 0.000000 -250.000000
# 42 vertices, 0 vertices normals


usemtl material_0
f 1//1 2//1 20//1
f 20//2 21//2 1//2
f 5//3 6//3 22//3
f 22//4 23//4 5//4
f 1//5 21//5 24//5
f 24//6 7//6 1//6
f 24//7 7//7 10//7
f 10//8 25//8 24//8
f 15//9 26//9 27//9
f 27//10 14//10 15//10
f 27//11 14//11 10//11
f 10//12 25//12 27//12
f 28//13 12//13 5//13
f 5//14 23//14 28//14
f 12//15 19//15 29//15
f 29//16 28//16 12//16
f 15//17 18//17 30//17
f 30//18 26//18 15//18
f 31//19 32//19 33//19
f 33//20 34//20 31//20
f 35//21 36//21 37//21
f 37//22 38//22 35//22
f 34//23 31//23 39//23
f 39//24 40//24 34//24
f 35//25 38//25 41//25
f 41//26 42//26 35//26

usemtl material_1
f 1//27 2//27 3//27
f 3//28 4//28 1//28
f 1//29 7//29 8//29
f 8//30 4//30 1//30
f 9//31 8//31 10//31
f 7//32 8//32 10//32
f 9//33 10//33 11//33
f 11//34 13//34 10//34
f 14//35 13//35 10//35
f 15//36 14//36 13//36
f 13//37 16//37 15//37
f 16//38 17//38 18//38
f 18//39 15//39 16//39

usemtl material_2
f 5//40 6//40 3//40
f 3//41 4//41 5//41
f 5//42 9//42 8//42
f 8//43 4//43 5//43
f 9//44 11//44 12//44
f 12//45 5//45 9//45
f 12//46 11//46 13//46
f 13//47 16//47 12//47
f 16//48 17//48 19//48
f 19//49 12//49 16//49
# 49 faces, 0 coords texture

# End of File
