####
#
# OBJ File Generated by Meshlab
#
####
# Object rail.obj
#
# Vertices: 20
# Faces: 24
#
####
mtllib ./rail.obj.mtl

vn 0.000000 1.000000 0.000000
vn 0.000000 1.000000 0.000000
vn 1.000000 0.000000 0.000000
vn 1.000000 0.000000 0.000000
vn 1.000000 0.000000 0.000000
vn 1.000000 0.000000 0.000000
vn -1.000000 0.000000 0.000000
vn -1.000000 0.000000 0.000000
vn -1.000000 0.000000 0.000000
vn -1.000000 0.000000 0.000000
vn 0.000000 -1.000000 0.000000
vn 0.000000 -1.000000 0.000000
vn 0.000000 0.000000 1.000000
vn 0.000000 0.000000 1.000000
vn 0.000000 0.000000 -1.000000
vn 0.000000 0.000000 -1.000000
vn 0.000000 0.000000 1.000000
vn 0.000000 0.000000 1.000000
vn 0.000000 0.000000 -1.000000
vn 0.000000 0.000000 -1.000000
vn 0.000000 0.000000 -1.000000
vn 0.000000 0.000000 -1.000000
vn 0.000000 0.000000 -1.000000
vn 0.000000 0.000000 -1.000000
@
v -700.000000 0.000000 175.000000
@
v -700.000000 0.000000 -175.000000
@
v 700.000000 0.000000 -175.000000
@
v 700.000000 0.000000 175.000000
@
v -840.000000 0.000000 175.000000
@
v -840.000000 -840.000000 175.000000
@
v -700.000000 -840.000000 175.000000
@
v 840.000000 0.000000 175.000000
@
v 840.000000 -840.000000 175.000000
@
v 700.000000 -840.000000 175.000000
@
v -840.000000 0.000000 -175.000000
@
v -840.000000 -840.000000 -175.000000
@
v -700.000000 -840.000000 -175.000000
@
v 840.000000 0.000000 -175.000000
@
v 840.000000 -840.000000 -175.000000
@
v 700.000000 -840.000000 -175.000000
@
v -700.000000 -700.000000 -175.000000
@
v 700.000000 -700.000000 -175.000000
@
v -700.000000 -700.000000 175.000000
@
v 700.000000 -700.000000 175.000000
# 20 vertices, 0 vertices normals


usemtl material_0
f 12//1 6//1 9//1
f 9//2 15//2 12//2
f 19//3 17//3 2//3
f 2//4 1//4 19//4
f 20//5 18//5 3//5
f 3//6 4//6 20//6

usemtl material_1
f 12//7 6//7 5//7
f 5//8 11//8 12//8
f 15//9 9//9 8//9
f 8//10 14//10 15//10

usemtl material_2
f 1//11 2//11 3//11
f 3//12 4//12 1//12

usemtl material_3
f 1//13 5//13 6//13
f 6//14 7//14 1//14
f 4//15 8//15 9//15
f 9//16 10//16 4//16
f 2//17 11//17 12//17
f 12//18 13//18 2//18
f 3//19 14//19 15//19
f 15//20 16//20 3//20
f 13//21 17//21 18//21
f 18//22 16//22 13//22
f 7//23 19//23 20//23
f 20//24 10//24 7//24
# 24 faces, 0 coords texture

# End of File
