####
#
# OBJ File Generated by Meshlab
#
####
# Object tre1.obj
#
# Vertices: 46
# Faces: 27
#
####
mtllib ./tre1.obj.mtl

vn 0.000000 0.000000 -1.000000
vn 0.000000 0.000000 -1.000000
vn 0.000000 0.000000 -1.000000
vn 0.000000 0.000000 -1.000000
vn 0.000000 0.000000 -1.000000
vn 0.000000 0.000000 -1.000000
vn 1.000000 0.000000 0.000000
vn 1.000000 0.000000 0.000000
vn 1.000000 0.000000 0.000000
vn 1.000000 0.000000 0.000000
vn 1.000000 0.000000 0.000000
vn 1.000000 0.000000 0.000000
vn 0.707107 0.000000 -0.707107
vn 0.371391 0.000000 0.928477
vn -0.948683 0.000000 -0.316228
vn -0.866906 0.000000 0.498471
vn 0.906721 0.000000 -0.421731
vn -0.374463 0.000000 -0.927242
vn -0.758185 0.000000 0.652039
vn -0.842032 0.000000 -0.539427
vn 1.000000 0.000000 0.000000
vn 0.758185 0.000000 -0.652039
vn 0.951034 0.000000 0.309086
vn -0.438424 0.000000 -0.898768
vn 1.000000 0.000000 0.000000
vn -1.000000 0.000000 0.000000
vn -0.707107 0.000000 -0.707107
@
v 31.000000 0.000000 0.000000
@
v 24.799999 -77.500000 0.000000
@
v 18.600000 -310.000000 0.000000
@
v 9.300000 -465.000000 0.000000
@
v 0.000000 -620.000000 0.000000
@
v -18.600000 -310.000000 0.000000
@
v -24.799999 -77.500000 0.000000
@
v -31.000000 0.000000 0.000000
@
v 0.000000 0.000000 31.000000
@
v 0.000000 -77.500000 24.799999
@
v 0.000000 -310.000000 18.600000
@
v 0.000000 -465.000000 9.300000
@
v 0.000000 -310.000000 -18.600000
@
v 0.000000 -77.500000 -24.799999
@
v 0.000000 0.000000 -31.000000
@
v 0.000000 -260.399994 0.000000
@
v 0.000000 -248.000000 0.000000
@
v 124.000000 -341.000000 124.000000
@
v -155.000000 -372.000000 62.000000
@
v 62.000000 -341.000000 -186.000000
@
v 0.000000 -347.200012 0.000000
@
v 0.000000 -356.500000 0.000000
@
v 71.300003 -403.000000 124.000000
@
v 0.000000 -322.399994 0.000000
@
v -62.000000 -434.000000 -133.300003
@
v 0.000000 -409.200012 0.000000
@
v 0.000000 -399.899994 0.000000
@
v 161.199997 -434.000000 -65.099998
@
v 0.000000 -353.399994 0.000000
@
v 0.000000 -341.000000 0.000000
@
v -133.300003 -465.000000 -155.000000
@
v 0.000000 -316.200012 0.000000
@
v 0.000000 -325.500000 0.000000
@
v -127.099998 -403.000000 198.399994
@
v 0.000000 -310.000000 0.000000
@
v 0.000000 -434.000000 108.500000
@
v 0.000000 -415.399994 0.000000
@
v 0.000000 -403.000000 0.000000
@
v 133.300003 -527.000000 155.000000
@
v -40.299999 -434.000000 124.000000
@
v 127.099998 -434.000000 -62.000000
@
v 0.000000 -477.399994 0.000000
@
v 0.000000 -465.000000 0.000000
@
v 0.000000 -558.000000 124.000000
@
v 0.000000 -589.000000 -62.000000
@
v 124.000000 -527.000000 -124.000000
# 46 vertices, 0 vertices normals


usemtl material_0
f 2//1 3//1 4//1
f 2//2 4//2 5//2
f 2//3 5//3 6//3
f 2//4 6//4 1//4
f 7//5 8//5 1//5
f 7//6 1//6 6//6
f 12//7 13//7 11//7
f 11//8 13//8 14//8
f 11//9 14//9 10//9
f 10//10 14//10 15//10
f 10//11 15//11 9//11
f 13//12 12//12 5//12
f 16//13 17//13 18//13
f 16//14 17//14 19//14
f 16//15 17//15 20//15
f 21//16 22//16 23//16
f 24//17 22//17 25//17
f 26//18 27//18 28//18
f 29//19 30//19 31//19
f 32//20 33//20 34//20
f 24//21 35//21 36//21
f 37//22 38//22 39//22
f 24//23 35//23 40//23
f 24//24 35//24 41//24
f 42//25 43//25 44//25
f 42//26 43//26 45//26
f 42//27 43//27 46//27
# 27 faces, 0 coords texture

# End of File
