####
#
# OBJ File Generated by Meshlab
#
####
# Object tre6.obj
#
# Vertices: 129
# Faces: 96
#
####
mtllib ./tre6.obj.mtl

vn 0.000000 0.000000 1.000000
vn 0.000000 0.000000 1.000000
vn 0.000000 0.000000 1.000000
vn 0.000000 0.000000 0.000000
vn 0.000000 0.000000 1.000000
vn 0.000000 0.000000 1.000000
vn 0.000000 0.000000 1.000000
vn 0.000000 0.000000 1.000000
vn -1.000000 0.000000 0.000000
vn -1.000000 0.000000 0.000000
vn -1.000000 0.000000 0.000000
vn -1.000000 0.000000 0.000000
vn -1.000000 0.000000 0.000000
vn -1.000000 0.000000 0.000000
vn -1.000000 0.000000 0.000000
vn -1.000000 0.000000 0.000000
vn 1.000000 0.000000 0.000000
vn 1.000000 0.000000 0.000000
vn 1.000000 0.000000 0.000000
vn 1.000000 0.000000 0.000000
vn 1.000000 0.000000 0.000000
vn 1.000000 0.000000 0.000000
vn 1.000000 0.000000 0.000000
vn 1.000000 0.000000 0.000000
vn 1.000000 0.000000 0.000000
vn 1.000000 0.000000 0.000000
vn 1.000000 0.000000 0.000000
vn 1.000000 0.000000 0.000000
vn 1.000000 0.000000 0.000000
vn 1.000000 0.000000 0.000000
vn 1.000000 0.000000 0.000000
vn 1.000000 0.000000 0.000000
vn 1.000000 0.000000 0.000000
vn 1.000000 0.000000 0.000000
vn 1.000000 0.000000 0.000000
vn 1.000000 0.000000 0.000000
vn -1.000000 0.000000 0.000000
vn -1.000000 0.000000 0.000000
vn -1.000000 0.000000 0.000000
vn -1.000000 0.000000 0.000000
vn -1.000000 0.000000 0.000000
vn -1.000000 0.000000 0.000000
vn -1.000000 0.000000 0.000000
vn -1.000000 0.000000 0.000000
vn -1.000000 0.000000 0.000000
vn -1.000000 0.000000 0.000000
vn -1.000000 0.000000 0.000000
vn -1.000000 0.000000 0.000000
vn -1.000000 0.000000 0.000000
vn -1.000000 0.000000 0.000000
vn -1.000000 0.000000 0.000000
vn -1.000000 0.000000 0.000000
vn -1.000000 0.000000 0.000000
vn -1.000000 0.000000 0.000000
vn -1.000000 0.000000 0.000000
vn -1.000000 0.000000 0.000000
vn 0.000000 0.000000 1.000000
vn 0.000000 0.000000 1.000000
vn 0.000000 0.000000 1.000000
vn 0.000000 0.000000 1.000000
vn 0.000000 0.000000 1.000000
vn 0.000000 0.000000 1.000000
vn 0.000000 0.000000 1.000000
vn 0.000000 0.000000 1.000000
vn 0.000000 0.000000 1.000000
vn 0.000000 0.000000 1.000000
vn 0.000000 0.000000 1.000000
vn 0.000000 0.000000 1.000000
vn 0.000000 0.000000 1.000000
vn 0.000000 0.000000 1.000000
vn 0.000000 0.000000 1.000000
vn 0.000000 0.000000 1.000000
vn 0.000000 0.000000 1.000000
vn 0.000000 0.000000 1.000000
vn 0.000000 0.000000 1.000000
vn 0.000000 0.000000 1.000000
vn 0.000000 0.000000 -1.000000
vn 0.000000 0.000000 -1.000000
vn 0.000000 0.000000 -1.000000
vn 0.000000 0.000000 -1.000000
vn 0.000000 0.000000 -1.000000
vn 0.000000 0.000000 -1.000000
vn 0.000000 0.000000 -1.000000
vn 0.000000 0.000000 -1.000000
vn 0.000000 0.000000 -1.000000
vn 0.000000 0.000000 -1.000000
vn 0.000000 0.000000 -1.000000
vn 0.000000 0.000000 -1.000000
vn 0.000000 0.000000 -1.000000
vn 0.000000 0.000000 -1.000000
vn 0.000000 0.000000 -1.000000
vn 0.000000 0.000000 -1.000000
vn 0.000000 0.000000 -1.000000
vn 0.000000 0.000000 -1.000000
vn 0.000000 0.000000 -1.000000
vn 0.000000 0.000000 -1.000000
@
v 15.000000 -900.000000 0.000000
@
v 45.000000 -840.000000 0.000000
@
v 24.000000 -780.000000 0.000000
@
v 45.000000 -300.000000 0.000000
@
v 75.000000 0.000000 0.000000
@
v -75.000000 0.000000 0.000000
@
v -45.000000 -300.000000 0.000000
@
v -24.000000 -780.000000 0.000000
@
v -45.000000 -840.000000 0.000000
@
v -15.000000 -900.000000 0.000000
@
v 0.000000 -900.000000 15.000000
@
v 0.000000 -840.000000 45.000000
@
v 0.000000 -780.000000 24.000000
@
v 0.000000 -300.000000 45.000000
@
v 0.000000 0.000000 75.000000
@
v 0.000000 0.000000 -75.000000
@
v 0.000000 -300.000000 -45.000000
@
v 0.000000 -780.000000 -24.000000
@
v 0.000000 -840.000000 -45.000000
@
v 0.000000 -900.000000 -15.000000
@
v 0.000000 -819.000000 -30.000000
@
v 0.000000 -774.000000 -105.000000
@
v 0.000000 -708.000000 -165.000000
@
v 0.000000 -675.000000 -195.000000
@
v 0.000000 -687.000000 -165.000000
@
v 0.000000 -747.000000 -105.000000
@
v 0.000000 -795.000000 -15.000000
@
v 0.000000 -855.000000 -30.000000
@
v 0.000000 -840.000000 -165.000000
@
v 0.000000 -786.000000 -255.000000
@
v 0.000000 -753.000000 -285.000000
@
v 0.000000 -765.000000 -255.000000
@
v 0.000000 -810.000000 -165.000000
@
v 0.000000 -825.000000 -30.000000
@
v 0.000000 -885.000000 -15.000000
@
v 0.000000 -909.000000 -165.000000
@
v 0.000000 -888.000000 -255.000000
@
v 0.000000 -861.000000 -285.000000
@
v 0.000000 -867.000000 -255.000000
@
v 0.000000 -882.000000 -165.000000
@
v 0.000000 -870.000000 -30.000000
@
v 0.000000 -900.000000 0.000000
@
v 0.000000 -939.000000 -45.000000
@
v 0.000000 -960.000000 -105.000000
@
v 0.000000 -957.000000 -195.000000
@
v 0.000000 -948.000000 -135.000000
@
v 0.000000 -930.000000 -75.000000
@
v 0.000000 -891.000000 -18.000000
@
v 0.000000 -819.000000 30.000000
@
v 0.000000 -774.000000 105.000000
@
v 0.000000 -708.000000 165.000000
@
v 0.000000 -675.000000 195.000000
@
v 0.000000 -687.000000 165.000000
@
v 0.000000 -747.000000 105.000000
@
v 0.000000 -795.000000 15.000000
@
v 0.000000 -855.000000 30.000000
@
v 0.000000 -840.000000 165.000000
@
v 0.000000 -786.000000 255.000000
@
v 0.000000 -753.000000 285.000000
@
v 0.000000 -765.000000 255.000000
@
v 0.000000 -810.000000 165.000000
@
v 0.000000 -825.000000 30.000000
@
v 0.000000 -885.000000 15.000000
@
v 0.000000 -909.000000 165.000000
@
v 0.000000 -888.000000 255.000000
@
v 0.000000 -861.000000 285.000000
@
v 0.000000 -867.000000 255.000000
@
v 0.000000 -882.000000 165.000000
@
v 0.000000 -870.000000 30.000000
@
v 0.000000 -939.000000 45.000000
@
v 0.000000 -960.000000 105.000000
@
v 0.000000 -957.000000 195.000000
@
v 0.000000 -948.000000 135.000000
@
v 0.000000 -930.000000 75.000000
@
v 0.000000 -891.000000 18.000000
@
v 30.000000 -819.000000 0.000000
@
v 105.000000 -774.000000 0.000000
@
v 165.000000 -708.000000 0.000000
@
v 195.000000 -675.000000 0.000000
@
v 165.000000 -687.000000 0.000000
@
v 105.000000 -747.000000 0.000000
@
v 15.000000 -795.000000 0.000000
@
v 30.000000 -855.000000 0.000000
@
v 165.000000 -840.000000 0.000000
@
v 255.000000 -786.000000 0.000000
@
v 285.000000 -753.000000 0.000000
@
v 255.000000 -765.000000 0.000000
@
v 165.000000 -810.000000 0.000000
@
v 30.000000 -825.000000 0.000000
@
v 15.000000 -885.000000 0.000000
@
v 165.000000 -909.000000 0.000000
@
v 255.000000 -888.000000 0.000000
@
v 285.000000 -861.000000 0.000000
@
v 255.000000 -867.000000 0.000000
@
v 165.000000 -882.000000 0.000000
@
v 30.000000 -870.000000 0.000000
@
v 45.000000 -939.000000 0.000000
@
v 105.000000 -960.000000 0.000000
@
v 195.000000 -957.000000 0.000000
@
v 135.000000 -948.000000 0.000000
@
v 75.000000 -930.000000 0.000000
@
v 18.000000 -891.000000 0.000000
@
v -30.000000 -819.000000 0.000000
@
v -105.000000 -774.000000 0.000000
@
v -165.000000 -708.000000 0.000000
@
v -195.000000 -675.000000 0.000000
@
v -165.000000 -687.000000 0.000000
@
v -105.000000 -747.000000 0.000000
@
v -15.000000 -795.000000 0.000000
@
v -30.000000 -855.000000 0.000000
@
v -165.000000 -840.000000 0.000000
@
v -255.000000 -786.000000 0.000000
@
v -285.000000 -753.000000 0.000000
@
v -255.000000 -765.000000 0.000000
@
v -165.000000 -810.000000 0.000000
@
v -30.000000 -825.000000 0.000000
@
v -15.000000 -885.000000 0.000000
@
v -165.000000 -909.000000 0.000000
@
v -255.000000 -888.000000 0.000000
@
v -285.000000 -861.000000 0.000000
@
v -255.000000 -867.000000 0.000000
@
v -165.000000 -882.000000 0.000000
@
v -30.000000 -870.000000 0.000000
@
v -45.000000 -939.000000 0.000000
@
v -105.000000 -960.000000 0.000000
@
v -195.000000 -957.000000 0.000000
@
v -135.000000 -948.000000 0.000000
@
v -75.000000 -930.000000 0.000000
@
v -18.000000 -891.000000 0.000000
# 129 vertices, 0 vertices normals


usemtl material_0
f 2//1 3//1 1//1
f 1//2 3//2 4//2
f 1//3 4//3 10//3
f 10//4 4//4 5//4
f 10//5 5//5 8//5
f 8//6 5//6 7//6
f 10//7 8//7 9//7
f 7//8 5//8 6//8
f 20//9 12//9 19//9
f 19//10 12//10 13//10
f 19//11 13//11 18//11
f 18//12 13//12 14//12
f 18//13 14//13 17//13
f 17//14 14//14 15//14
f 17//15 15//15 16//15
f 12//16 20//16 11//16

usemtl material_1
f 24//17 25//17 23//17
f 23//18 25//18 26//18
f 23//19 26//19 22//19
f 22//20 26//20 27//20
f 22//21 27//21 21//21
f 31//22 32//22 30//22
f 30//23 32//23 33//23
f 30//24 33//24 29//24
f 29//25 33//25 34//25
f 29//26 34//26 28//26
f 38//27 39//27 37//27
f 37//28 39//28 40//28
f 37//29 40//29 35//29
f 35//30 40//30 41//30
f 37//31 35//31 36//31
f 45//32 46//32 43//32
f 43//33 46//33 47//33
f 43//34 47//34 42//34
f 42//35 47//35 48//35
f 45//36 43//36 44//36
f 52//37 53//37 51//37
f 51//38 53//38 54//38
f 51//39 54//39 50//39
f 50//40 54//40 55//40
f 50//41 55//41 49//41
f 59//42 60//42 58//42
f 58//43 60//43 61//43
f 58//44 61//44 57//44
f 57//45 61//45 62//45
f 57//46 62//46 56//46
f 66//47 67//47 65//47
f 65//48 67//48 68//48
f 65//49 68//49 63//49
f 63//50 68//50 69//50
f 65//51 63//51 64//51
f 72//52 73//52 70//52
f 70//53 73//53 74//53
f 70//54 74//54 42//54
f 42//55 74//55 75//55
f 72//56 70//56 71//56
f 76//57 77//57 81//57
f 81//58 77//58 78//58
f 81//59 78//59 80//59
f 80//60 78//60 79//60
f 76//61 81//61 82//61
f 86//62 87//62 85//62
f 85//63 87//63 88//63
f 85//64 88//64 84//64
f 84//65 88//65 89//65
f 84//66 89//66 83//66
f 93//67 94//67 92//67
f 92//68 94//68 95//68
f 92//69 95//69 91//69
f 91//70 95//70 96//70
f 91//71 96//71 90//71
f 99//72 100//72 98//72
f 98//73 100//73 101//73
f 98//74 101//74 97//74
f 97//75 101//75 102//75
f 97//76 102//76 42//76
f 106//77 107//77 105//77
f 105//78 107//78 108//78
f 105//79 108//79 104//79
f 104//80 108//80 109//80
f 104//81 109//81 103//81
f 113//82 114//82 112//82
f 112//83 114//83 115//83
f 112//84 115//84 111//84
f 111//85 115//85 116//85
f 111//86 116//86 110//86
f 120//87 121//87 119//87
f 119//88 121//88 122//88
f 119//89 122//89 118//89
f 118//90 122//90 123//90
f 118//91 123//91 117//91
f 126//92 127//92 125//92
f 125//93 127//93 128//93
f 125//94 128//94 124//94
f 124//95 128//95 129//95
f 124//96 129//96 42//96
# 96 faces, 0 coords texture

# End of File
