####
#
# OBJ File Generated by Meshlab
#
####
# Object tre7.obj
#
# Vertices: 129
# Faces: 96
#
####
mtllib ./tre7.obj.mtl

vn 0.000000 0.000000 1.000000
vn 0.000000 0.000000 1.000000
vn 0.000000 0.000000 1.000000
vn 0.000000 0.000000 1.000000
vn 0.000000 0.000000 1.000000
vn 0.000000 0.000000 1.000000
vn 0.000000 0.000000 1.000000
vn 0.000000 0.000000 1.000000
vn -1.000000 0.000000 0.000000
vn -1.000000 0.000000 0.000000
vn -1.000000 0.000000 0.000000
vn -1.000000 0.000000 0.000000
vn -1.000000 0.000000 0.000000
vn -1.000000 0.000000 0.000000
vn -1.000000 0.000000 0.000000
vn -1.000000 0.000000 0.000000
vn 1.000000 0.000000 0.000000
vn 1.000000 0.000000 0.000000
vn 1.000000 0.000000 0.000000
vn 1.000000 0.000000 0.000000
vn 1.000000 0.000000 0.000000
vn 1.000000 0.000000 0.000000
vn 1.000000 0.000000 0.000000
vn 1.000000 0.000000 0.000000
vn 1.000000 0.000000 0.000000
vn 1.000000 0.000000 0.000000
vn 1.000000 0.000000 0.000000
vn 1.000000 0.000000 0.000000
vn 1.000000 0.000000 0.000000
vn 1.000000 0.000000 0.000000
vn 1.000000 0.000000 0.000000
vn 1.000000 0.000000 0.000000
vn 1.000000 0.000000 0.000000
vn 1.000000 0.000000 0.000000
vn 1.000000 0.000000 0.000000
vn 1.000000 0.000000 0.000000
vn -1.000000 0.000000 0.000000
vn -1.000000 0.000000 0.000000
vn -1.000000 0.000000 0.000000
vn -1.000000 0.000000 0.000000
vn -1.000000 0.000000 0.000000
vn -1.000000 0.000000 0.000000
vn -1.000000 0.000000 0.000000
vn -1.000000 0.000000 0.000000
vn -1.000000 0.000000 0.000000
vn -1.000000 0.000000 0.000000
vn -1.000000 0.000000 0.000000
vn -1.000000 0.000000 0.000000
vn -1.000000 0.000000 0.000000
vn -1.000000 0.000000 0.000000
vn -1.000000 0.000000 0.000000
vn -1.000000 0.000000 0.000000
vn -1.000000 0.000000 0.000000
vn -1.000000 0.000000 0.000000
vn -1.000000 0.000000 0.000000
vn -1.000000 0.000000 0.000000
vn 0.000000 0.000000 1.000000
vn 0.000000 0.000000 1.000000
vn 0.000000 0.000000 1.000000
vn 0.000000 0.000000 1.000000
vn 0.000000 0.000000 1.000000
vn 0.000000 0.000000 1.000000
vn 0.000000 0.000000 1.000000
vn 0.000000 0.000000 1.000000
vn 0.000000 0.000000 1.000000
vn 0.000000 0.000000 1.000000
vn 0.000000 0.000000 1.000000
vn 0.000000 0.000000 1.000000
vn 0.000000 0.000000 1.000000
vn 0.000000 0.000000 1.000000
vn 0.000000 0.000000 1.000000
vn 0.000000 0.000000 1.000000
vn 0.000000 0.000000 1.000000
vn 0.000000 0.000000 1.000000
vn 0.000000 0.000000 1.000000
vn 0.000000 0.000000 1.000000
vn 0.000000 0.000000 -1.000000
vn 0.000000 0.000000 -1.000000
vn 0.000000 0.000000 -1.000000
vn 0.000000 0.000000 -1.000000
vn 0.000000 0.000000 -1.000000
vn 0.000000 0.000000 -1.000000
vn 0.000000 0.000000 -1.000000
vn 0.000000 0.000000 -1.000000
vn 0.000000 0.000000 -1.000000
vn 0.000000 0.000000 -1.000000
vn 0.000000 0.000000 -1.000000
vn 0.000000 0.000000 -1.000000
vn 0.000000 0.000000 -1.000000
vn 0.000000 0.000000 -1.000000
vn 0.000000 0.000000 -1.000000
vn 0.000000 0.000000 -1.000000
vn 0.000000 0.000000 -1.000000
vn 0.000000 0.000000 -1.000000
vn 0.000000 0.000000 -1.000000
vn 0.000000 0.000000 -1.000000
@
v 14.000000 -616.000000 0.000000
@
v 42.000000 -560.000000 0.000000
@
v 22.400000 -504.000000 0.000000
@
v 42.000000 -140.000000 0.000000
@
v 70.000000 0.000000 0.000000
@
v -70.000000 0.000000 0.000000
@
v -42.000000 -140.000000 0.000000
@
v -22.400000 -504.000000 0.000000
@
v -42.000000 -560.000000 0.000000
@
v -14.000000 -616.000000 0.000000
@
v 0.000000 -616.000000 14.000000
@
v 0.000000 -560.000000 42.000000
@
v 0.000000 -504.000000 22.400000
@
v 0.000000 -140.000000 42.000000
@
v 0.000000 0.000000 70.000000
@
v 0.000000 0.000000 -70.000000
@
v 0.000000 -140.000000 -42.000000
@
v 0.000000 -504.000000 -22.400000
@
v 0.000000 -560.000000 -42.000000
@
v 0.000000 -616.000000 -14.000000
@
v 0.000000 -540.400024 -28.000000
@
v 0.000000 -498.399994 -98.000000
@
v 0.000000 -436.799988 -154.000000
@
v 0.000000 -406.000000 -182.000000
@
v 0.000000 -417.200012 -154.000000
@
v 0.000000 -473.200012 -98.000000
@
v 0.000000 -518.000000 -14.000000
@
v 0.000000 -574.000000 -28.000000
@
v 0.000000 -560.000000 -154.000000
@
v 0.000000 -509.600006 -238.000000
@
v 0.000000 -478.799988 -266.000000
@
v 0.000000 -490.000000 -238.000000
@
v 0.000000 -532.000000 -154.000000
@
v 0.000000 -546.000000 -28.000000
@
v 0.000000 -602.000000 -14.000000
@
v 0.000000 -624.400024 -154.000000
@
v 0.000000 -604.799988 -238.000000
@
v 0.000000 -579.599976 -266.000000
@
v 0.000000 -585.200012 -238.000000
@
v 0.000000 -599.200012 -154.000000
@
v 0.000000 -588.000000 -28.000000
@
v 0.000000 -616.000000 0.000000
@
v 0.000000 -652.400024 -42.000000
@
v 0.000000 -672.000000 -98.000000
@
v 0.000000 -669.200012 -182.000000
@
v 0.000000 -660.799988 -126.000000
@
v 0.000000 -644.000000 -70.000000
@
v 0.000000 -607.599976 -16.799999
@
v 0.000000 -540.400024 28.000000
@
v 0.000000 -498.399994 98.000000
@
v 0.000000 -436.799988 154.000000
@
v 0.000000 -406.000000 182.000000
@
v 0.000000 -417.200012 154.000000
@
v 0.000000 -473.200012 98.000000
@
v 0.000000 -518.000000 14.000000
@
v 0.000000 -574.000000 28.000000
@
v 0.000000 -560.000000 154.000000
@
v 0.000000 -509.600006 238.000000
@
v 0.000000 -478.799988 266.000000
@
v 0.000000 -490.000000 238.000000
@
v 0.000000 -532.000000 154.000000
@
v 0.000000 -546.000000 28.000000
@
v 0.000000 -602.000000 14.000000
@
v 0.000000 -624.400024 154.000000
@
v 0.000000 -604.799988 238.000000
@
v 0.000000 -579.599976 266.000000
@
v 0.000000 -585.200012 238.000000
@
v 0.000000 -599.200012 154.000000
@
v 0.000000 -588.000000 28.000000
@
v 0.000000 -652.400024 42.000000
@
v 0.000000 -672.000000 98.000000
@
v 0.000000 -669.200012 182.000000
@
v 0.000000 -660.799988 126.000000
@
v 0.000000 -644.000000 70.000000
@
v 0.000000 -607.599976 16.799999
@
v 28.000000 -540.400024 0.000000
@
v 98.000000 -498.399994 0.000000
@
v 154.000000 -436.799988 0.000000
@
v 182.000000 -406.000000 0.000000
@
v 154.000000 -417.200012 0.000000
@
v 98.000000 -473.200012 0.000000
@
v 14.000000 -518.000000 0.000000
@
v 28.000000 -574.000000 0.000000
@
v 154.000000 -560.000000 0.000000
@
v 238.000000 -509.600006 0.000000
@
v 266.000000 -478.799988 0.000000
@
v 238.000000 -490.000000 0.000000
@
v 154.000000 -532.000000 0.000000
@
v 28.000000 -546.000000 0.000000
@
v 14.000000 -602.000000 0.000000
@
v 154.000000 -624.400024 0.000000
@
v 238.000000 -604.799988 0.000000
@
v 266.000000 -579.599976 0.000000
@
v 238.000000 -585.200012 0.000000
@
v 154.000000 -599.200012 0.000000
@
v 28.000000 -588.000000 0.000000
@
v 42.000000 -652.400024 0.000000
@
v 98.000000 -672.000000 0.000000
@
v 182.000000 -669.200012 0.000000
@
v 126.000000 -660.799988 0.000000
@
v 70.000000 -644.000000 0.000000
@
v 16.799999 -607.599976 0.000000
@
v -28.000000 -540.400024 0.000000
@
v -98.000000 -498.399994 0.000000
@
v -154.000000 -436.799988 0.000000
@
v -182.000000 -406.000000 0.000000
@
v -154.000000 -417.200012 0.000000
@
v -98.000000 -473.200012 0.000000
@
v -14.000000 -518.000000 0.000000
@
v -28.000000 -574.000000 0.000000
@
v -154.000000 -560.000000 0.000000
@
v -238.000000 -509.600006 0.000000
@
v -266.000000 -478.799988 0.000000
@
v -238.000000 -490.000000 0.000000
@
v -154.000000 -532.000000 0.000000
@
v -28.000000 -546.000000 0.000000
@
v -14.000000 -602.000000 0.000000
@
v -154.000000 -624.400024 0.000000
@
v -238.000000 -604.799988 0.000000
@
v -266.000000 -579.599976 0.000000
@
v -238.000000 -585.200012 0.000000
@
v -154.000000 -599.200012 0.000000
@
v -28.000000 -588.000000 0.000000
@
v -42.000000 -652.400024 0.000000
@
v -98.000000 -672.000000 0.000000
@
v -182.000000 -669.200012 0.000000
@
v -126.000000 -660.799988 0.000000
@
v -70.000000 -644.000000 0.000000
@
v -16.799999 -607.599976 0.000000
# 129 vertices, 0 vertices normals


usemtl material_0
f 4//1 5//1 7//1
f 4//2 7//2 8//2
f 4//3 8//3 10//3
f 4//4 10//4 1//4
f 4//5 1//5 3//5
f 10//6 8//6 9//6
f 2//7 3//7 1//7
f 7//8 5//8 6//8
f 20//9 12//9 19//9
f 19//10 12//10 13//10
f 19//11 13//11 18//11
f 18//12 13//12 14//12
f 18//13 14//13 17//13
f 17//14 14//14 15//14
f 17//15 15//15 16//15
f 12//16 20//16 11//16

usemtl material_1
f 24//17 25//17 23//17
f 23//18 25//18 26//18
f 23//19 26//19 22//19
f 22//20 26//20 27//20
f 22//21 27//21 21//21
f 31//22 32//22 30//22
f 30//23 32//23 33//23
f 30//24 33//24 29//24
f 29//25 33//25 34//25
f 29//26 34//26 28//26
f 38//27 39//27 37//27
f 37//28 39//28 40//28
f 37//29 40//29 35//29
f 35//30 40//30 41//30
f 37//31 35//31 36//31
f 45//32 46//32 43//32
f 43//33 46//33 47//33
f 43//34 47//34 42//34
f 42//35 47//35 48//35
f 45//36 43//36 44//36
f 52//37 53//37 51//37
f 51//38 53//38 54//38
f 51//39 54//39 50//39
f 50//40 54//40 55//40
f 50//41 55//41 49//41
f 59//42 60//42 58//42
f 58//43 60//43 61//43
f 58//44 61//44 57//44
f 57//45 61//45 62//45
f 57//46 62//46 56//46
f 66//47 67//47 65//47
f 65//48 67//48 68//48
f 65//49 68//49 63//49
f 63//50 68//50 69//50
f 65//51 63//51 64//51
f 72//52 73//52 70//52
f 70//53 73//53 74//53
f 70//54 74//54 42//54
f 42//55 74//55 75//55
f 72//56 70//56 71//56
f 76//57 77//57 81//57
f 81//58 77//58 78//58
f 81//59 78//59 80//59
f 80//60 78//60 79//60
f 76//61 81//61 82//61
f 86//62 87//62 85//62
f 85//63 87//63 88//63
f 85//64 88//64 84//64
f 84//65 88//65 89//65
f 84//66 89//66 83//66
f 93//67 94//67 92//67
f 92//68 94//68 95//68
f 92//69 95//69 91//69
f 91//70 95//70 96//70
f 91//71 96//71 90//71
f 99//72 100//72 98//72
f 98//73 100//73 101//73
f 98//74 101//74 97//74
f 97//75 101//75 102//75
f 97//76 102//76 42//76
f 106//77 107//77 105//77
f 105//78 107//78 108//78
f 105//79 108//79 104//79
f 104//80 108//80 109//80
f 104//81 109//81 103//81
f 113//82 114//82 112//82
f 112//83 114//83 115//83
f 112//84 115//84 111//84
f 111//85 115//85 116//85
f 111//86 116//86 110//86
f 120//87 121//87 119//87
f 119//88 121//88 122//88
f 119//89 122//89 118//89
f 118//90 122//90 123//90
f 118//91 123//91 117//91
f 126//92 127//92 125//92
f 125//93 127//93 128//93
f 125//94 128//94 124//94
f 124//95 128//95 129//95
f 124//96 129//96 42//96
# 96 faces, 0 coords texture

# End of File
